<?xml version="1.0" encoding="utf-8"?>
<svg xmlns="http://www.w3.org/2000/svg" viewBox="0 0 500 500">
  <defs>
    <clipPath id="clipPath28" clipPathUnits="userSpaceOnUse">
      <path id="path26" d="m 310.489,85.917 h 51.646 v 44.506 h -51.646 z"/>
    </clipPath>
  </defs>
  <g id="g22" transform="matrix(1.333333, 0, 0, 1.333333, -199.599411, 103.63485)">
    <g clip-path="url(#clipPath28)" id="g24">
      <g transform="translate(351.1284,109.798)" id="g30">
        <path id="path32" style="fill:#feffa0;fill-opacity:1;fill-rule:nonzero;stroke:none" d="m 0,0 c 0.0892,-0.8247 0.1178,-1.6566 0.0464,-2.4848 -0.0786,-0.8497 -0.2178,-1.6994 -0.4677,-2.517 -0.1321,-0.4391 -0.2785,-0.8711 -0.4569,-1.296 -0.1571,-0.382 -0.3357,-0.7533 -0.5285,-1.121 -0.4105,-0.7747 -0.9139,-1.5066 -1.478,-2.1778 -1.0603,-1.2603 -2.3742,-2.3028 -3.8344,-3.0632 -0.6926,-0.3606 -1.4245,-0.6605 -2.1742,-0.8819 -0.7819,-0.2285 -1.5852,-0.3962 -2.3956,-0.4712 -0.8033,-0.0714 -1.6101,-0.0786 -2.417,-0.0036 -0.0857,0.0071 -0.1749,0.0143 -0.2606,0.025 -0.0072,0 -0.0179,0 -0.025,0.0036 -0.1,0.0107 -0.2,0.025 -0.2963,0.0392 -0.0143,0 -0.025,0.0036 -0.0357,0.0036 -0.0072,0 -0.0143,0 -0.0215,0.0036 -0.0821,0.0107 -0.1678,0.0214 -0.2499,0.0357 -0.0143,0.0035 -0.0321,0.0071 -0.0499,0.0107 -0.0072,0.0036 -0.0179,0.0036 -0.0286,0.0071 -0.0035,0 -0.0107,0 -0.0178,0.0036 -1.0354,0.1821 -2.0458,0.4963 -3.0061,0.9283 -0.6605,0.2963 -1.2888,0.6497 -1.8887,1.0531 -0.6283,0.4249 -1.2139,0.9104 -1.7565,1.4424 -0.6497,0.6355 -1.221,1.3424 -1.7244,2.0993 -0.4748,0.714 -0.8639,1.4887 -1.1817,2.2849 -0.15,0.3784 -0.2821,0.7711 -0.3927,1.1638 -0.1143,0.4213 -0.2214,0.8497 -0.2928,1.2817 -0.0357,0.225 -0.0714,0.4499 -0.0964,0.6784 -0.0285,0.2142 -0.0464,0.432 -0.0607,0.6462 -0.0322,0.4462 -0.0322,0.8925 -0.0179,1.3388 0.0286,0.9211 0.1786,1.8386 0.4107,2.7312 0.107,0.4213 0.2427,0.839 0.3998,1.2424 0.1607,0.4248 0.3427,0.8461 0.5534,1.2495 0.4034,0.7783 0.8747,1.5316 1.4352,2.21 0.1356,0.1606 0.2678,0.3213 0.407,0.4784 0.1571,0.1714 0.3142,0.3391 0.4784,0.5034 0.1499,0.1499 0.3034,0.2927 0.4605,0.4355 0.1607,0.1428 0.3213,0.2856 0.4892,0.4213 0.3713,0.2928 0.7461,0.5748 1.146,0.8283 0.2142,0.1321 0.4248,0.2678 0.6462,0.3892 0.2071,0.1142 0.4177,0.2249 0.6319,0.332 0.3891,0.1963 0.7962,0.357 1.2031,0.5141 0.2142,0.0785 0.4284,0.1499 0.6427,0.2142 0.207,0.0607 0.4141,0.1214 0.6212,0.1714 0.2321,0.0571 0.4606,0.1142 0.6962,0.1535 0.2213,0.0393 0.4427,0.0785 0.664,0.1106 0.432,0.0607 0.8676,0.0964 1.3031,0.1071 0.1464,0.0036 0.2928,0.0036 0.4356,0.0036 0.7354,0 1.4709,-0.0535 2.1957,-0.1928 0.4462,-0.0857 0.8925,-0.182 1.3316,-0.3177 0.2321,-0.0714 0.4677,-0.1392 0.6926,-0.2249 0.225,-0.0857 0.4499,-0.1714 0.6713,-0.2642 0.2141,-0.0857 0.4176,-0.1857 0.6247,-0.2821 0.2,-0.0964 0.3963,-0.1963 0.5855,-0.3034 C -6.0193,9.3324 -5.6588,9.1147 -5.316,8.8754 -4.9769,8.6362 -4.6448,8.3828 -4.3306,8.115 -3.9843,7.8151 -3.6451,7.5009 -3.3345,7.1618 -3.0383,6.8405 -2.7455,6.512 -2.4849,6.1585 -2.2064,5.7872 -1.9386,5.4088 -1.7029,5.0054 -1.4745,4.6162 -1.2567,4.2199 -1.0711,3.8058 -0.9711,3.588 -0.8782,3.3702 -0.789,3.1489 -0.7141,2.9525 -0.6462,2.7562 -0.5748,2.5598 -0.432,2.1421 -0.3177,1.7173 -0.2214,1.2888 -0.1249,0.864 -0.0464,0.432 0,0 Z m 10.7426,-3.763 c 0.0036,0.2392 0.0143,0.4784 0.0108,0.7177 -0.0036,0.2391 -0.0108,0.4783 -0.0179,0.7175 -0.0142,0.4606 -0.0536,0.9247 -0.1071,1.3853 -0.0536,0.4677 -0.1285,0.9318 -0.2106,1.3959 C 10.2571,1.3531 10.0143,2.2349 9.7287,3.1025 9.5752,3.5666 9.4002,4.0236 9.2182,4.4806 9.136,4.6841 9.0433,4.884 8.954,5.0839 8.8647,5.2839 8.7755,5.4802 8.6791,5.673 8.2792,6.487 7.8437,7.2831 7.3474,8.04 7.2189,8.24 7.0868,8.4399 6.9511,8.6362 6.8012,8.8469 6.6512,9.0575 6.4977,9.2682 6.362,9.4538 6.2192,9.6395 6.0764,9.8215 5.9301,10.0072 5.7836,10.1928 5.6337,10.3714 5.0375,11.0747 4.4199,11.7566 3.7523,12.3921 3.3917,12.7384 3.0239,13.074 2.649,13.3988 c -0.3605,0.3071 -0.7247,0.607 -1.0996,0.8962 -0.7354,0.5712 -1.503,1.1031 -2.292,1.5958 -0.4177,0.2571 -0.8425,0.507 -1.2746,0.7462 -0.4105,0.2285 -0.8247,0.4498 -1.2495,0.6533 -0.4605,0.225 -0.9283,0.4392 -1.3995,0.6462 -0.4142,0.1821 -0.8319,0.3428 -1.2532,0.5034 -0.4463,0.175 -0.9032,0.3321 -1.3637,0.4749 -0.4571,0.1463 -0.914,0.2891 -1.3782,0.4105 -0.9389,0.2464 -1.885,0.4642 -2.8418,0.6248 -0.4927,0.0857 -0.9854,0.1535 -1.4816,0.2142 -0.4748,0.0572 -0.9532,0.0964 -1.4316,0.1357 -0.2215,0.0178 -0.4428,0.0286 -0.6677,0.0393 -0.232,0.0142 -0.4677,0.025 -0.7033,0.0285 -0.2821,0.0072 -0.5641,0.0072 -0.8497,0.0072 -0.2321,0 -0.4641,0 -0.6997,-0.0072 -0.9533,-0.0214 -1.8994,-0.1071 -2.8419,-0.2213 -0.4499,-0.0536 -0.8926,-0.125 -1.3353,-0.2 -0.2106,-0.0321 -0.4248,-0.0749 -0.6355,-0.1178 -0.257,-0.0535 -0.5141,-0.1071 -0.7711,-0.1642 -0.4927,-0.1142 -0.9782,-0.2392 -1.4638,-0.3784 -0.4677,-0.1321 -0.9283,-0.2856 -1.3888,-0.4427 -0.2213,-0.0786 -0.4427,-0.1607 -0.664,-0.2428 -0.2107,-0.0786 -0.4213,-0.1607 -0.6319,-0.2499 -0.4249,-0.1785 -0.8533,-0.3606 -1.271,-0.5641 -0.4392,-0.2142 -0.8747,-0.432 -1.2996,-0.6676 -0.207,-0.1178 -0.4141,-0.2321 -0.6176,-0.3535 -0.2214,-0.1321 -0.4356,-0.2642 -0.6534,-0.3998 -0.3677,-0.2285 -0.7247,-0.4784 -1.0746,-0.7319 -0.1963,-0.1428 -0.3891,-0.2856 -0.5819,-0.4356 -0.2178,-0.1678 -0.432,-0.3391 -0.6427,-0.5141 -0.3605,-0.2963 -0.7068,-0.6105 -1.0495,-0.9282 -0.3536,-0.3321 -0.6891,-0.6855 -1.0212,-1.039 -0.3177,-0.3427 -0.6176,-0.6997 -0.9139,-1.0639 -0.2892,-0.357 -0.5569,-0.7318 -0.8247,-1.1067 -0.0786,-0.1071 -0.1464,-0.2178 -0.2214,-0.3249 -0.05,-0.0785 -0.1,-0.1535 -0.1499,-0.2321 -0.1535,-0.2427 -0.307,-0.4891 -0.4499,-0.7354 -0.232,-0.3963 -0.4533,-0.7997 -0.6498,-1.2103 -0.207,-0.4356 -0.4105,-0.8711 -0.5854,-1.321 -0.1678,-0.4355 -0.332,-0.8747 -0.4677,-1.3245 -0.075,-0.2392 -0.1428,-0.482 -0.2106,-0.7247 C -39.811,4.4591 -39.8681,4.2449 -39.9145,4.0272 -40.0181,3.5595 -40.118,3.0918 -40.1823,2.6205 -40.2144,2.3956 -40.243,2.1707 -40.268,1.9457 -40.293,1.6958 -40.3179,1.4495 -40.3358,1.1996 -40.3536,0.9532 -40.3644,0.7069 -40.3751,0.457 c -0.0107,-0.2428 -0.0107,-0.4891 -0.0107,-0.7319 -0.0035,-0.125 0.0036,-0.2499 0.0071,-0.3749 0,-0.0821 0.0036,-0.1678 0.0072,-0.2499 0.0143,-0.282 0.0285,-0.5605 0.05,-0.839 0.0357,-0.4463 0.0857,-0.8961 0.1571,-1.3352 0.0749,-0.4677 0.1678,-0.9318 0.2677,-1.3959 0.1035,-0.4677 0.2392,-0.9283 0.3713,-1.3853 0.0286,-0.0892 0.0571,-0.1749 0.0857,-0.2606 0.0322,-0.1071 0.0643,-0.2106 0.1,-0.3177 0.0857,-0.2357 0.1678,-0.4713 0.257,-0.7069 0.0893,-0.2357 0.1821,-0.4677 0.2785,-0.6998 0.0964,-0.2356 0.1999,-0.4677 0.3035,-0.6998 0.1963,-0.4391 0.4248,-0.8639 0.6533,-1.2888 0.2106,-0.3927 0.4356,-0.7818 0.6747,-1.1603 0.125,-0.1999 0.2536,-0.3998 0.3857,-0.5962 0.1499,-0.2249 0.307,-0.4498 0.4641,-0.6712 0.2856,-0.3998 0.5891,-0.7854 0.8961,-1.171 0.1321,-0.1678 0.2713,-0.3249 0.407,-0.4891 0.1356,-0.1607 0.2785,-0.3213 0.4212,-0.4784 0.3321,-0.3606 0.6641,-0.7212 1.0175,-1.0639 0.3606,-0.3463 0.7248,-0.6927 1.1033,-1.0247 0.357,-0.3106 0.7211,-0.614 1.096,-0.9068 0.3891,-0.3035 0.7854,-0.5998 1.1924,-0.8854 0.4106,-0.2892 0.8319,-0.5677 1.2567,-0.8354 0.4142,-0.2606 0.8426,-0.5106 1.271,-0.7498 0.3892,-0.2213 0.7854,-0.4248 1.1853,-0.6283 0.4356,-0.2249 0.8854,-0.4213 1.3317,-0.6212 0.4498,-0.1964 0.9032,-0.3749 1.3567,-0.5534 0.4391,-0.1678 0.8854,-0.3178 1.3316,-0.4713 0.2106,-0.0678 0.4248,-0.1321 0.6355,-0.1963 0.2035,-0.0643 0.4106,-0.125 0.6141,-0.1821 0.4819,-0.1285 0.9603,-0.2499 1.4423,-0.3642 0.4534,-0.1035 0.9104,-0.1927 1.3674,-0.2749 1.4744,-0.2641 2.9632,-0.4177 4.4592,-0.4641 0.3712,-0.0107 0.7425,-0.0143 1.1139,-0.0107 0.007,0 0.0142,-0.0036 0.0178,-0.0036 0.0035,0 0.0071,0 0.0107,0 0.0036,0 0.0036,0 0.0036,0 0.7818,0.0107 1.5637,0.05 2.342,0.1214 0.2285,0.0214 0.457,0.0429 0.6854,0.0679 0.0108,0.0035 0.0215,0.0035 0.0322,0.0071 1.6601,0.1963 3.2988,0.5355 4.8947,1.0211 0.889,0.2713 1.7601,0.589 2.617,0.9532 0.3891,0.1642 0.7747,0.3427 1.1567,0.532 0.4034,0.1963 0.8069,0.4034 1.196,0.6283 0.4106,0.2321 0.8175,0.4784 1.2174,0.7319 0.3998,0.2499 0.7854,0.5248 1.1675,0.7997 0.7497,0.5427 1.4566,1.1425 2.1278,1.778 0.6462,0.6105 1.2531,1.2638 1.8101,1.9528 0.5854,0.7212 1.121,1.4781 1.5994,2.2742 0.914,1.5209 1.6244,3.1632 2.0743,4.8805 0.2391,0.8996 0.4177,1.8208 0.514,2.749 0.0465,0.4534 0.0857,0.914 0.1,1.3709 z"/>
      </g>
      <g transform="translate(351.1748,107.3131)" id="g34">
        <path id="path36" style="fill:#feffe2;fill-opacity:1;fill-rule:nonzero;stroke:none" d="m 0,0 c 0.0714,0.8283 0.0428,1.6601 -0.0464,2.4848 -0.0464,0.432 -0.1249,0.864 -0.2214,1.2889 -0.0963,0.4284 -0.2106,0.8532 -0.3534,1.2709 -0.0714,0.1964 -0.1392,0.3928 -0.2142,0.5891 -0.0892,0.2214 -0.1821,0.4392 -0.2821,0.6569 -0.1856,0.4142 -0.4034,0.8105 -0.6318,1.1996 -0.2357,0.4034 -0.5034,0.7819 -0.7819,1.1532 -0.2607,0.3534 -0.5535,0.6819 -0.8497,1.0032 -0.3106,0.3392 -0.6498,0.6533 -0.9961,0.9532 -0.3142,0.2678 -0.6463,0.5213 -0.9854,0.7605 -0.3427,0.2392 -0.7033,0.457 -1.0675,0.6676 -0.1892,0.1071 -0.3855,0.2071 -0.5855,0.3035 -0.2071,0.0964 -0.4106,0.1963 -0.6247,0.282 -0.2214,0.0928 -0.4463,0.1785 -0.6712,0.2642 -0.225,0.0857 -0.4606,0.1535 -0.6927,0.2249 -0.4391,0.1357 -0.8853,0.2321 -1.3316,0.3178 -0.7248,0.1392 -1.4602,0.1928 -2.1957,0.1928 -0.1428,0 -0.2892,0 -0.4356,-0.0036 -0.4355,-0.0107 -0.8711,-0.0464 -1.3031,-0.1071 -0.2213,-0.0322 -0.4426,-0.0714 -0.664,-0.1107 -0.2356,-0.0393 -0.4641,-0.0964 -0.6962,-0.1535 -0.2071,-0.05 -0.4142,-0.1107 -0.6212,-0.1714 -0.2142,-0.0642 -0.4285,-0.1356 -0.6426,-0.2142 -0.407,-0.1571 -0.8141,-0.3177 -1.2032,-0.5141 -0.2142,-0.1071 -0.4248,-0.2178 -0.6319,-0.332 -0.2213,-0.1214 -0.432,-0.2571 -0.6462,-0.3892 -0.3999,-0.2535 -0.7747,-0.5355 -1.146,-0.8283 -0.1678,-0.1356 -0.3285,-0.2784 -0.4891,-0.4212 -0.1571,-0.1428 -0.3106,-0.2856 -0.4606,-0.4356 -0.1642,-0.1642 -0.3213,-0.332 -0.4784,-0.5034 -0.1392,-0.1571 -0.2714,-0.3177 -0.407,-0.4784 -0.5605,-0.6783 -1.0318,-1.4316 -1.4352,-2.2099 -0.2107,-0.4034 -0.3927,-0.8247 -0.5534,-1.2496 -0.1571,-0.4034 -0.2928,-0.8211 -0.3998,-1.2424 -0.2321,-0.8925 -0.3821,-1.8101 -0.4107,-2.7312 -0.0142,-0.4463 -0.0142,-0.8925 0.0179,-1.3388 0.0143,-0.2142 0.0322,-0.432 0.0608,-0.6462 0.0249,-0.2285 0.0606,-0.4534 0.0963,-0.6783 0.0714,-0.432 0.1786,-0.8604 0.2928,-1.2817 0.1106,-0.3927 0.2428,-0.7855 0.3927,-1.1639 0.3178,-0.7961 0.7069,-1.5709 1.1817,-2.2849 0.5034,-0.7569 1.0747,-1.4638 1.7244,-2.0993 0.5426,-0.5319 1.1282,-1.0175 1.7565,-1.4423 0.5999,-0.4034 1.2282,-0.7569 1.8887,-1.0532 0.9603,-0.432 1.9707,-0.7462 3.0061,-0.9283 0.0071,-0.0035 0.0143,-0.0035 0.0178,-0.0035 0.0108,-0.0036 0.0214,-0.0036 0.0286,-0.0072 0.0178,-0.0035 0.0356,-0.0071 0.0499,-0.0107 0.0822,-0.0143 0.1679,-0.025 0.2499,-0.0357 0.0072,-0.0036 0.0143,-0.0036 0.0215,-0.0036 0.0107,0 0.0214,-0.0035 0.0357,-0.0035 0.0963,-0.0143 0.1963,-0.0286 0.2963,-0.0393 0.0071,-0.0036 0.0178,-0.0036 0.025,-0.0036 0.0857,-0.0107 0.1749,-0.0178 0.2606,-0.025 0.8069,-0.0749 1.6137,-0.0678 2.417,0.0036 0.8105,0.075 1.6137,0.2428 2.3956,0.4713 0.7497,0.2213 1.4816,0.5212 2.1743,0.8818 1.4602,0.7604 2.774,1.8029 3.8343,3.0632 0.5641,0.6712 1.0675,1.4031 1.478,2.1778 0.1928,0.3677 0.3714,0.739 0.5285,1.1211 0.1784,0.4248 0.3248,0.8568 0.4569,1.2959 C -0.2178,-1.6994 -0.0786,-0.8497 0,0 Z"/>
      </g>
    </g>
  </g>
</svg>