<?xml version="1.0" encoding="utf-8"?>
<svg xmlns="http://www.w3.org/2000/svg" viewBox="0 0 500 500">
  <defs>
    <clipPath id="clipPath28" clipPathUnits="userSpaceOnUse">
      <path id="path26" d="M 225.626,253.883 H 457.001 V 462.535 H 225.626 Z"/>
    </clipPath>
  </defs>
  <g transform="matrix(1.333333, 0, 0, -1.333333, -102.39003, 2026.690918)" id="g10">
    <g transform="matrix(1, 0, 0, -1, -84.830009, 1699.819092)" id="g20">
      <g id="g22">
        <g clip-path="url(#clipPath28)" id="g24">
          <g transform="translate(333.3021,372.1211)" id="g30">
            <path id="path32" style="fill:#feffe2;fill-opacity:0.48771105;fill-rule:nonzero;stroke:none" d="M 0,0 C 0.1602,0.7031 0.418,1.3867 0.7656,2.0234 -2.5664,4.875 -5.9492,7.6641 -9.3359,10.4609 -22.1133,21.043 -34.8945,31.6406 -46.9922,43 c -8.2031,7.6563 -16.0937,15.6328 -24.082,23.5117 -3.6836,3.3399 -10.4063,10.6719 -15.3594,10.7852 -0.3789,-0.0703 -0.707,-0.3203 -0.8945,-0.6524 -1.086,-1.8593 -2.0899,-3.7812 -3.086,-5.6953 -1.289,-2.9531 -3.9336,-6.2422 -2.5976,-9.582 1.8984,-2.6602 4.8945,-4.3203 7.3633,-6.4102 5.2812,-4.0586 10.5468,-8.1289 15.9726,-11.9922 C -53.5156,31.1836 -36.1641,21.207 -18.9805,11.0273 -13.2148,7.5937 -7.4492,4.1523 -1.5859,0.8828 -1.0703,0.5625 -0.5391,0.2617 -0.0039,-0.0234 -0.0039,-0.0156 0,-0.0078 0,0 Z"/>
          </g>
          <g transform="translate(412.3763,421.957)" id="g34">
            <path id="path36" style="fill:#feffe2;fill-opacity:0.48771105;fill-rule:nonzero;stroke:none" d="m 0,0 c 1.7734,2.1133 -0.4687,4.5039 -1.9297,6.0703 -2.1758,2.3242 -4.4492,4.5547 -6.6914,6.8125 -3.2344,2.8242 -7.875,9.2031 -12.2617,9.3438 -1.3047,-0.1133 -2.2969,-1.0977 -3.1328,-2.0157 -1.7227,-1.9765 -3.1094,-4.207 -4.5899,-6.3632 -2.3906,-3.5469 -4.8398,-7.0586 -7.3047,-10.5508 -7.4336,-10.3828 -14.3476,-21.1094 -20.7656,-32.1485 -3.332,-5.3593 -6.3242,-11.0156 -9.8242,-16.289 0.0977,-0.0742 0.1953,-0.1446 0.2891,-0.2227 0.2539,-0.207 0.5,-0.4297 0.7265,-0.664 0.0313,0.0312 0.0586,0.0585 0.0899,0.0898 3.8828,3.9141 8.1132,7.418 12.4336,10.8281 7.4414,5.9414 14.6718,12.1836 22.7695,17.2305 6.5078,4.1094 13.1289,8.0977 19.9219,11.7227 C -6.8359,-4.1719 -2.8516,-2.832 0,0 Z"/>
          </g>
          <g transform="translate(337.556,363.1328)" id="g38">
            <path id="path40" style="fill:#feffe2;fill-opacity:0.48771105;fill-rule:nonzero;stroke:none" d="m 0,0 c -0.3906,0.1992 -0.7734,0.4219 -1.1328,0.6797 -0.3477,0.2578 -0.6797,0.5351 -0.9844,0.8437 0,0 0,0.0039 0,0.0039 -0.1797,0.1836 -0.3476,0.3672 -0.5117,0.5664 -0.1367,0.1641 -0.2656,0.3399 -0.3906,0.5118 -0.0899,0.125 -0.1719,0.2539 -0.2539,0.3867 -0.9336,-0.832 -1.8399,-1.6875 -2.7422,-2.5195 -4.4688,-4.3086 -8.9024,-8.6563 -13.2032,-13.1368 -10.3242,-10.7382 -20.1796,-21.9414 -29.8046,-33.3007 -8.2149,-9.9454 -17.1446,-19.2383 -26.3164,-28.3008 -1.3555,-1.6407 -4.7149,-4.3516 -3.6368,-6.6172 2.7032,-2.3164 6.336,-3.4492 9.5157,-5.0039 4.3476,-1.9141 5.5,-0.6055 7.9296,2.9648 4.3672,6.0899 8.6524,12.2383 12.9454,18.3789 12.4765,18.0039 24.9257,36.043 39.0312,52.8321 C -6.2891,-7.8828 -3.1328,-3.9414 0,0 Z"/>
          </g>
          <g transform="translate(440.0482,263.625)" id="g42">
            <path id="path44" style="fill:#feffe2;fill-opacity:0.48771105;fill-rule:nonzero;stroke:none" d="m 0,0 c 1.6445,1.7031 0.6367,3.9805 -0.6836,5.5469 -16.1445,17.1914 -30.9727,35.6211 -47.8398,52.1328 -11.0391,10.8828 -23,20.7773 -34.3399,31.3398 -3.7851,3.7383 -7.8828,7.2032 -11.6914,10.9258 -0.1992,-0.1328 -0.4062,-0.2539 -0.6172,-0.3633 -0.1094,-0.0586 -0.2226,-0.1132 -0.3359,-0.1601 11.1601,-12.5117 21.9883,-25.918 32.7734,-38.8203 16.7696,-19.7578 33.2383,-39.8047 50.8125,-58.8516 2.1328,-2.2461 4.1094,-4.6562 6.3438,-6.8008 0.3125,-0.2617 0.7109,-0.4726 1.1172,-0.3203 C -2.6484,-3.9531 -1.4805,-1.7656 0,0 Z"/>
          </g>
          <g transform="translate(360.1459,254.1328)" id="g46">
            <path id="path48" style="fill:#feffa0;fill-opacity:0.434146;fill-rule:nonzero;stroke:none" d="m 0,0 c 4.6328,0.3633 2.6875,7.7812 2.4648,10.8437 -1.5546,10.961 -4.8476,21.5743 -7.1953,32.3751 -2.7304,12.1289 -5.7382,24.1875 -8.4336,36.3281 -2.1289,9.4922 -4.2773,19.0195 -6.0781,28.6054 -0.168,0.004 -0.3398,0.0157 -0.5078,0.0313 C -13.7617,76.9297 -5.4805,46.1641 1.2852,15.0898 1.6758,11.4297 3.7969,4 1.4922,1.0586 1.2461,0.8008 0.9023,0.6602 0.5859,0.582 -1.2188,0.293 -3.0273,0.7031 -4.8359,0.8477 -10.5273,1.5 -16.2461,1.9688 -21.957,2.4883 c -4.3243,0.5156 -9.1407,0.8398 -12.7969,3.3554 -0.8047,0.5821 -0.7617,1.6094 -0.7149,2.4766 0.3594,4.7578 0.8321,9.5078 1.2032,14.2656 1.4375,19.5977 3.2578,39.2344 7.2773,58.4883 1.8203,9.1485 4.0625,18.2031 6.4141,27.2305 -0.0039,0 -0.0117,0.004 -0.0156,0.004 -0.0782,0.0156 -0.1563,0.0312 -0.2344,0.0508 -0.0781,0.0156 -0.1524,0.0351 -0.2305,0.0586 -0.082,-0.2891 -0.1562,-0.5782 -0.2148,-0.8672 -0.625,-2.3828 -1.2578,-4.7617 -1.8555,-7.1485 -1.5156,-6.0976 -2.9219,-12.2265 -4.1836,-18.3828 -3.6406,-17.4531 -5.6406,-35.1757 -6.9414,-52.9336 -0.4609,-7.3476 -1.4258,-14.6757 -1.7109,-22.0195 0.4257,-2.8789 5.8515,-3.7305 8.2226,-4.3047 5.3399,-0.957 10.7735,-1.1445 16.1563,-1.707 C -7.7148,0.7578 -3.8711,0.0234 0,0 Z"/>
          </g>
          <g transform="translate(453.9662,375.9453)" id="g50">
            <path id="path52" style="fill:#feffa0;fill-opacity:0.434146;fill-rule:nonzero;stroke:none" d="m 0,0 c 0.5977,-5.8828 -1.3359,-11.7383 -2,-17.5664 -0.2539,-1.2813 -0.2891,-2.6524 -0.7031,-3.875 -0.1406,-0.2734 -0.3985,-0.5195 -0.6875,-0.6719 -4.4375,-1.3828 -9.293,-0.2031 -13.836,0.1367 -16.207,2.0157 -32.2422,5.2383 -48.4765,7.0664 -13.2696,1.6094 -26.9805,1.8829 -39.6836,6.2579 -0.0547,-0.1329 -0.1133,-0.2657 -0.1797,-0.3946 3.2383,-1.1836 6.5273,-2.2734 9.9453,-2.7968 13.3008,-2.2422 26.8086,-2.918 40.1445,-4.879 16.3047,-2.1054 32.4883,-6.039 48.9571,-6.4726 1.4023,0.1055 3.0976,0.0937 4.0859,1.2422 0.9375,2.125 0.8125,4.6406 1.3398,6.9062 0.1016,2.4492 3.879,16.8242 0.129,16.3555 -16.8047,-1.0664 -33.6641,-0.1758 -50.4766,-1.1172 -17.793,-0.9062 -35.4024,-3.668 -53.0234,-6.1445 -0.1133,-0.0039 -0.2266,-0.0117 -0.3438,-0.0196 -0.004,-0.1914 -0.0195,-0.3828 -0.043,-0.5742 15.8164,2.3125 31.6485,4.7188 47.5938,5.8594 18.375,1.5 36.8398,0.3438 55.2305,1.4453 C -1.2266,0.7656 -0.0937,1.1367 0,0 Z"/>
          </g>
          <g transform="translate(333.7396,367.1914)" id="g54">
            <path id="path56" style="fill:#feffa0;fill-opacity:0.434146;fill-rule:nonzero;stroke:none" d="M 0,0 C -0.0664,0.1523 -0.125,0.3047 -0.1797,0.4609 -1.3867,0.1523 -2.5937,-0.1719 -3.7969,-0.5039 -4.0547,-0.5742 -4.3086,-0.6445 -4.5625,-0.7148 -5.5937,-1 -6.6211,-1.293 -7.6484,-1.5898 -8.0742,-1.7109 -8.5,-1.8359 -8.9297,-1.9609 -9.4531,-2.1133 -9.9766,-2.2695 -10.5,-2.4219 c -0.3281,-0.1015 -0.6562,-0.1992 -0.9844,-0.2968 -3.4062,-1.0196 -6.8008,-2.086 -10.1914,-3.1602 -0.5898,-0.1875 -1.1797,-0.375 -1.7695,-0.5625 -4.0703,-1.2969 -8.1367,-2.6055 -12.211,-3.875 -18.2343,-5.7695 -36.6367,-10.9649 -55.0429,-16.1367 -3.1094,-0.5391 -16.4063,-5.5078 -16.6485,-0.4727 0.4844,7.4141 1.7383,14.7774 2.5039,22.1758 0.8555,4.5234 1.3594,17.7266 7.7852,17 20.4336,-2.0391 40.8633,-4.3008 61.3477,-5.9023 1.6718,-0.1524 3.3437,-0.3125 5.0117,-0.4844 1.7461,-0.1797 3.4922,-0.3711 5.2383,-0.5664 0.8554,-0.0977 1.707,-0.1914 2.5586,-0.293 4.3164,-0.5 8.6289,-1.0312 12.9453,-1.543 1.4062,-0.1679 2.8164,-0.332 4.2226,-0.4922 0.8516,-0.1015 1.7032,-0.1992 2.5547,-0.289 0.7383,-0.086 1.4766,-0.168 2.2149,-0.2461 0.121,-0.0117 0.2421,-0.0274 0.3632,-0.0391 -0.0156,0.1485 -0.0234,0.2969 -0.0273,0.4492 -3.0703,0.3672 -6.1328,0.8243 -9.1992,1.2032 -7.5196,0.7734 -15.0235,1.6953 -22.5469,2.4687 -21.7148,1.7891 -43.3867,4.1289 -65.0586,6.2344 -6.8633,0.3125 -7.2187,-14.3125 -8.125,-19.25 -0.7109,-6.7227 -1.7852,-13.4102 -2.3047,-20.1445 0.207,-5.2735 8.6367,-2.2383 11.7813,-1.711 5.6367,1.3594 11.1992,3.0039 16.7734,4.6016 17.1367,4.8281 34.2188,9.8281 51.168,15.293 7.0195,2.1914 13.9922,4.5312 21.0781,6.5117 C -4.7227,-1.3008 -2.3633,-0.6289 0,0 Z"/>
          </g>
          <g transform="translate(353.5092,455.082)" id="g58">
            <path id="path60" style="fill:#feffa0;fill-opacity:0.434146;fill-rule:nonzero;stroke:none" d="m 0,0 c 0,0 0,0 0,-0.0039 -6.6484,-14.2695 -11.4258,-29.4297 -13.8984,-45.0039 -1.4688,-10.668 -1.4883,-21.4492 -1.2305,-32.1992 0.0937,0.0351 0.1914,0.0664 0.2852,0.0976 0.0703,0.0235 0.1445,0.043 0.2148,0.0664 -0.0742,2.9649 -0.1367,5.9258 -0.1406,8.8946 0.0781,8.9492 0.3437,17.9609 1.9804,26.7773 1.8672,9.4375 4.2735,18.8047 7.6485,27.8203 1.2656,3.4336 2.6133,6.8399 4.1992,10.1367 0.4648,1.1485 1.3281,2.293 1.4336,3.5547 -0.1485,0.4961 -0.793,0.3633 -1.1992,0.3789 -6.7188,-0.0508 -13.4532,0.0703 -20.1407,0.7618 -8.0312,0.789 -15.4843,4.2109 -23.2851,5.9218 -0.9219,-0.2109 -0.168,-1.457 -0.0703,-2.0547 0.9648,-3.0351 2,-6.0468 3.0156,-9.0625 4.2227,-12.289 8.2383,-24.6406 12.1602,-37.0273 3.6367,-11.5391 7.4179,-23.0195 11.1445,-34.5274 0.2226,-0.9375 0.5273,-1.8398 0.8594,-2.7343 0.164,0.1172 0.332,0.2304 0.5078,0.332 -6.0196,17.6758 -11.4532,35.5469 -17.2266,53.3047 -3.2734,10.4687 -7.2461,20.7539 -10.332,31.2695 0.0039,0 0.0078,0.0039 0.0117,0.0039 0.0273,0 0.0547,0 0.082,0 0.0039,0 0.0039,0 0.0039,0 0.8047,-0.1914 1.6016,-0.3984 2.3985,-0.6172 0.3906,-0.1093 0.7851,-0.2187 1.1758,-0.332 0.6093,-0.1758 1.2187,-0.3594 1.8281,-0.543 0.5664,-0.1757 1.1328,-0.3515 1.7031,-0.5312 0.0234,-0.0078 0.0469,-0.0117 0.0703,-0.0195 0.3711,-0.1172 0.7422,-0.2344 1.1133,-0.3516 1.9883,-0.625 3.9727,-1.2461 5.9805,-1.793 0.3476,-0.0937 0.6953,-0.1836 1.0429,-0.2734 1.25,-0.3203 2.5118,-0.6055 3.7891,-0.8359 C -16.6875,-0.0937 -8.2891,0.0781 0,0 Z"/>
          </g>
          <g transform="translate(333.5599,367.6523)" id="g62">
            <path id="path64" style="fill:#feffa0;fill-opacity:0.434146;fill-rule:nonzero;stroke:none" d="M 0,0 C 0,0 0,0.0039 0,0.0039 -0.2227,0.6289 -0.3633,1.2773 -0.4219,1.9336 -0.543,1.9453 -0.6641,1.9609 -0.7852,1.9727 -1.5234,2.0508 -2.2617,2.1328 -3,2.2187 -3.8516,2.3086 -4.7031,2.4062 -5.5547,2.5078 -6.9609,2.668 -8.3711,2.832 -9.7773,3 c -4.3164,0.5117 -8.629,1.043 -12.9454,1.543 -0.8515,0.1015 -1.7031,0.1953 -2.5586,0.2929 -1.746,0.1953 -3.4921,0.3868 -5.2382,0.5664 -1.668,0.1719 -3.3399,0.3321 -5.0118,0.4844 -20.4843,1.6016 -40.914,3.8633 -61.3476,5.9024 -6.4258,0.7265 -6.9297,-12.4766 -7.7852,-17 -0.7656,-7.3985 -2.0195,-14.7618 -2.5039,-22.1758 0.2422,-5.0352 13.5391,-0.0664 16.6485,0.4726 18.4062,5.1719 36.8086,10.3672 55.0429,16.1368 4.0743,1.2695 8.1407,2.5781 12.211,3.875 0.5898,0.1875 1.1797,0.375 1.7695,0.5625 3.3906,1.0742 6.7852,2.1406 10.1914,3.1601 0.3281,0.0977 0.6563,0.1953 0.9844,0.2969 0.5234,0.1523 1.0469,0.3086 1.5703,0.4609 0.4258,0.125 0.8555,0.25 1.2813,0.3711 1.0273,0.2969 2.0546,0.5899 3.0859,0.875 0.2539,0.0703 0.5117,0.1406 0.7656,0.211 C -2.4141,-0.6328 -1.207,-0.3086 0,0 Z"/>
          </g>
          <g transform="translate(361.6381,255.1914)" id="g66">
            <path id="path68" style="fill:#feffa0;fill-opacity:0.434146;fill-rule:nonzero;stroke:none" d="m 0,0 c 2.3047,2.9414 0.1836,10.3711 -0.207,14.0312 -6.7657,31.0743 -15.0469,61.8399 -21.0352,93.0938 -0.1758,0.0156 -0.3516,0.0391 -0.5234,0.0664 -0.1016,0.0156 -0.1992,0.0352 -0.3008,0.0547 -2.3516,-9.0273 -4.5938,-18.082 -6.4141,-27.2305 -4.0195,-19.2539 -5.8398,-38.8906 -7.2773,-58.4883 -0.3711,-4.7578 -0.8438,-9.5078 -1.2031,-14.2656 -0.0469,-0.8672 -0.0899,-1.8945 0.7148,-2.4765 3.6563,-2.5157 8.4727,-2.8399 12.7969,-3.3555 5.7109,-0.5195 11.4297,-0.9883 17.1211,-1.6406 1.8086,-0.1446 3.6172,-0.5547 5.4218,-0.2657 C -0.5898,-0.3984 -0.2461,-0.2578 0,0 Z"/>
          </g>
          <g transform="translate(451.9662,358.3789)" id="g70">
            <path id="path72" style="fill:#feffa0;fill-opacity:0.434146;fill-rule:nonzero;stroke:none" d="m 0,0 c 0.6641,5.8281 2.5977,11.6836 2,17.5664 -0.0937,1.1367 -1.2266,0.7656 -2.0273,0.7578 -18.3907,-1.1015 -36.8555,0.0547 -55.2305,-1.4453 -15.9453,-1.1406 -31.7774,-3.5469 -47.5938,-5.8594 0,-0.0156 0,-0.0351 -0.004,-0.0508 -0.0508,-0.4335 -0.1406,-0.8671 -0.2656,-1.2851 -0.0781,-0.2578 -0.1641,-0.5156 -0.2656,-0.7695 12.7031,-4.375 26.414,-4.6485 39.6836,-6.2579 16.2343,-1.8281 32.2695,-5.0507 48.4765,-7.0664 4.543,-0.3398 9.3985,-1.5195 13.836,-0.1367 0.289,0.1524 0.5468,0.3985 0.6875,0.6719 C -0.2891,-2.6523 -0.2539,-1.2813 0,0 Z"/>
          </g>
          <g transform="translate(353.5092,455.0781)" id="g74">
            <path id="path76" style="fill:#feffa0;fill-opacity:0.434146;fill-rule:nonzero;stroke:none" d="m 0,0 c 0,0.0039 0,0.0039 0,0.0039 -8.2891,0.0781 -16.6875,-0.0937 -24.875,1.4102 -1.2773,0.2304 -2.5391,0.5156 -3.7891,0.8359 -0.3476,0.0898 -0.6953,0.1797 -1.0429,0.2734 -2.0078,0.5469 -3.9922,1.168 -5.9805,1.793 -0.3711,0.1172 -0.7422,0.2344 -1.1133,0.3516 -0.0234,0.0078 -0.0469,0.0117 -0.0703,0.0195 -0.5703,0.1797 -1.1367,0.3555 -1.7031,0.5312 -0.6094,0.1836 -1.2188,0.3672 -1.8281,0.543 -0.3907,0.1133 -0.7852,0.2227 -1.1758,0.332 -0.7969,0.2188 -1.5938,0.4258 -2.3985,0.6172 0,0 0,0 -0.0039,0 -0.0273,0 -0.0547,0 -0.082,0 -0.0039,0 -0.0078,-0.0039 -0.0117,-0.0039 3.0859,-10.5156 7.0586,-20.8007 10.332,-31.2695 5.7734,-17.7578 11.207,-35.6289 17.2266,-53.3047 0.1367,0.0859 0.2773,0.1641 0.4179,0.2344 0.3125,0.1601 0.6368,0.3086 0.9688,0.4297 -0.2578,10.75 -0.2383,21.5312 1.2305,32.1992 C -11.4258,-29.4297 -6.6484,-14.2695 0,0 Z"/>
          </g>
          <g transform="translate(339.7184,372.5117)" id="g78">
            <path id="path80" style="fill:#feffe2;fill-opacity:1;fill-rule:nonzero;stroke:none" d="M 0,0 C 0.0117,0.0156 0.0195,0.0273 0.0312,0.043 0.0195,0.0273 0.0078,0.0117 0,0 Z"/>
          </g>
          <g transform="translate(333.8568,372.293)" id="g82">
            <path id="path84" style="fill:#feffe2;fill-opacity:1;fill-rule:nonzero;stroke:none" d="m 0,0 c 0,-0.0039 0,-0.0039 0,-0.0078 0,0 0,0 -0.0039,-0.0039 C -0.0039,-0.0039 0,-0.0039 0,0 Z m 0.1875,-4.5117 c 0.2734,0.0703 0.5508,0.1406 0.8281,0.2109 -0.2773,-0.0703 -0.5508,-0.1406 -0.8281,-0.2148 0,0 0,0 0,0.0039 z m 15.1133,2.1953 c 0.0156,0.2422 0.0156,0.4805 0.0039,0.7226 -0.0156,0.4297 -0.0781,0.8555 -0.1641,1.2774 -0.0859,0.4414 -0.2265,0.8711 -0.3867,1.2891 -0.1602,0.4296 -0.375,0.8359 -0.6094,1.2304 -0.3086,0.5235 -0.6797,1 -1.1093,1.4297 0,0 0,0.0039 0,0.0039 -0.2266,0.2344 -0.4727,0.457 -0.7266,0.6641 -0.0938,0.0781 -0.1914,0.1484 -0.2891,0.2226 -0.2304,0.168 -0.4687,0.3203 -0.7148,0.4649 C 10.9102,5.2187 10.4922,5.418 10.0625,5.5742 9.6523,5.7187 9.2305,5.8437 8.8008,5.9219 8.582,5.9648 8.3594,6 8.1367,6.0234 7.8906,6.0469 7.6445,6.0625 7.3984,6.0703 7.3437,6.0703 7.2891,6.0742 7.2344,6.0742 6.8633,6.0742 6.4922,6.0391 6.1289,5.9883 5.7539,5.9375 5.3828,5.8516 5.0234,5.7461 4.9531,5.7227 4.8789,5.7031 4.8086,5.6797 4.7148,5.6484 4.6172,5.6172 4.5234,5.582 4.1914,5.4609 3.8672,5.3125 3.5547,5.1523 3.4141,5.082 3.2734,5.0039 3.1367,4.918 2.9609,4.8164 2.793,4.7031 2.6289,4.5859 2.5273,4.5156 2.4297,4.4414 2.3359,4.3672 1.4609,3.6953 0.7344,2.8281 0.2109,1.8555 c 0,0 0,-0.0039 0,-0.0039 -0.3476,-0.6368 -0.6054,-1.3204 -0.7656,-2.0235 0,-0.0078 -0.0039,-0.0156 -0.0039,-0.0234 -0.1523,-0.6797 -0.2148,-1.3711 -0.1875,-2.0586 0,0 0,-0.0039 0,-0.0039 0.0039,-0.1524 0.0117,-0.3008 0.0274,-0.4492 0.0585,-0.6563 0.1992,-1.3047 0.4218,-1.9297 0,0 0,-0.0039 0,-0.0039 0.0547,-0.1563 0.1133,-0.3086 0.1797,-0.461 C -0.082,-5.1914 -0.043,-5.2773 0,-5.3672 c 0.125,-0.2734 0.2695,-0.543 0.4258,-0.7969 0,0 0,-0.0039 0,-0.0039 0.082,-0.1328 0.164,-0.2617 0.2539,-0.3867 0.125,-0.1719 0.2539,-0.3476 0.3906,-0.5117 C 1.2344,-7.2656 1.4023,-7.4492 1.582,-7.6328 1.8867,-7.9414 2.2187,-8.2187 2.5664,-8.4766 2.9258,-8.7344 3.3086,-8.957 3.6992,-9.1562 3.7227,-9.168 3.7422,-9.1797 3.7656,-9.1914 3.832,-9.2266 3.8984,-9.2578 3.9648,-9.2891 3.9805,-9.2969 3.9961,-9.3086 4.0117,-9.3164 4.2266,-9.4141 4.4492,-9.4961 4.6719,-9.5742 4.707,-9.5859 4.7461,-9.5977 4.7812,-9.6094 4.875,-9.6406 4.9648,-9.668 5.0586,-9.6953 5.1172,-9.7109 5.1758,-9.7266 5.2344,-9.7383 5.3125,-9.7617 5.3867,-9.7812 5.4648,-9.8008 5.543,-9.8164 5.6211,-9.832 5.6992,-9.8477 c 0.0039,0 0.0117,-0.0039 0.0156,-0.0039 0.1016,-0.0195 0.1993,-0.039 0.3008,-0.0546 C 6.1875,-9.9336 6.3633,-9.957 6.5391,-9.9727 6.707,-9.9883 6.8789,-10 7.0469,-10.0039 c 0.0547,-0.0039 0.1054,-0.0039 0.1601,-0.0039 0.0078,0 0.0157,0 0.0274,0 1.1875,-0.0039 2.375,0.2617 3.4492,0.7656 0.1133,0.0469 0.2266,0.1016 0.3359,0.1602 0.211,0.1093 0.418,0.2304 0.6172,0.3633 0.4492,0.2929 0.8711,0.6289 1.2578,1.0039 0.3438,0.332 0.6602,0.7031 0.9375,1.0976 0.2422,0.3477 0.4571,0.711 0.6485,1.0899 0.0234,0.0429 0.0468,0.0859 0.0625,0.1328 0.0664,0.1289 0.125,0.2617 0.1797,0.3945 0.1015,0.2539 0.1875,0.5117 0.2656,0.7695 0.125,0.418 0.2148,0.8516 0.2656,1.2852 0.0039,0.0156 0.0039,0.0351 0.0039,0.0508 0.0234,0.1914 0.0391,0.3828 0.043,0.5742 0,0 0,0.0039 0,0.0039 z"/>
          </g>
        </g>
      </g>
    </g>
  </g>
</svg>