<?xml version="1.0" encoding="utf-8"?>
<svg xmlns="http://www.w3.org/2000/svg" version="1.1" width="2420" height="1668" viewBox="0 0 2420 1668">
  <defs>
    <clipPath id="clip_3">
      <path d="M32.9876 82.7336H220.644V253.241H32.9876Z"/>
    </clipPath>
  </defs>
  <g clip-path="url(#clip_3)" transform="matrix(9.076311, 0, 0, 8.307439, 8.050493, -579.576904)" style="">
    <path transform="matrix(1,0,0,1,57.8917,110.0606)" d="M0 0C.0771-4.2543-.2623-8.4789-.246-12.7421-.1827-15.3601 3.6915-15.3538 3.754-12.7266 3.7964-10.4292 3.7743-8.1317 3.9061-5.8343 3.7946-3.772 4.9828 .628 2.4493 1.418 1.416 1.6922 .2784 1.0651 0 0Z" fill="#ffffff"/>
    <path transform="matrix(1,0,0,1,59.4387,83.1655)" d="M0 0V.0039C-.0023 .0039-.0044 .0039-.0065 .004-.004 .003-.002 .002 0 0Z"/>
    <path transform="matrix(1,0,0,1,58.6457,83.4701)" d="M0 0C0 0-.0001 .0012-.0008 .0023-.0018 .0028-.0029 .0034-.0039 .0039L0 0Z"/>
    <path transform="matrix(1,0,0,1,57.7668,116.0717)" d="M0 0C.0195-5.5117 .0469-11.0234 .0703-16.5352 .0859-20.3711 .1016-24.207 .1172-28.043 .125-29.1719 .1289-30.3008 .1328-31.4297 .1344-31.6487 .1723-31.8607 .2406-32.0597 .2739-32.1002 .3087-32.14 .3437-32.1797 .3359-32.1719 .3281-32.1641 .3203-32.1563 .4102-32.25 .5078-32.3359 .6094-32.418 .6055-32.418 .6055-32.4141 .6016-32.4141 .6875-32.4766 .7734-32.5391 .8672-32.5938 .8633-32.5938 .8633-32.5898 .8594-32.5898 .862-32.5924 .8647-32.5934 .8685-32.5948 .8677-32.5942 .8672-32.5938 .8672-32.5938 .8695-32.5938 .8704-32.595 .8716-32.5961 .8727-32.5966 .8737-32.597 .875-32.5977 .8767-32.5977 .8776-32.5984 .8781-32.5993 .9591-32.6417 1.0402-32.684 1.125-32.7188 1.1133-32.7148 1.1055-32.7109 1.0938-32.707 1.2656-32.7773 1.4453-32.8398 1.6289-32.8906 1.625-32.8906 1.6211-32.8906 1.6172-32.8906 1.6208-32.8906 1.6278-32.8939 1.6319-32.8944 1.6307-32.8941 1.6289-32.8933 1.6289-32.8906 1.6289-32.8945 1.6328-32.8945 1.6367-32.8945H1.6328C1.6367-32.8945 1.6445-32.8984 1.6484-32.8984 1.6445-32.8984 1.6406-32.8945 1.6367-32.8945 1.6445-32.8945 1.6523-32.8984 1.6563-32.8984 1.6523-32.8984 1.6484-32.8984 1.6445-32.8984 1.6508-32.9016 1.6571-32.9022 1.6654-32.9023 1.6652-32.9022 1.665-32.9022 1.6649-32.9021 1.6614-32.9018 1.6587-32.9009 1.6563-32.8984 1.6599-32.9002 1.6626-32.9012 1.6649-32.9021 1.6669-32.9023 1.6691-32.9023 1.6719-32.9023 1.6719-32.9063 1.6758-32.9063 1.6758-32.9063H1.6719C1.8828-32.9531 2.0977-32.9727 2.3086-32.9961 2.3047-32.9961 2.3008-32.9922 2.3008-32.9922 2.5898-33.0195 2.8789-33.0391 3.1641-33.0781 3.1889-33.081 3.2135-33.0844 3.238-33.0881 3.7749-32.7262 4.1353-32.1133 4.1328-31.4297 4.1328-31.2656 4.1328-31.1016 4.1328-30.9375 4.1289-30.9102 4.1289-30.8828 4.1289-30.8516 4.1172-28.6328 4.1094-26.4102 4.1016-24.1914 4.082-18.9219 4.0586-13.6562 4.0352-8.3867 4.0234-5.5937 4.0117-2.7969 4 0 3.9961 1.0859 3.0937 2 2 2 .9141 2-.0039 1.0898 0 0Z"/>
    <path transform="matrix(1,0,0,1,59.4369,83.1676)" d="M0 0C-.0002 .0005-.0004 .0009-.0004 .0016-.0018 .0016-.0031 .0017-.0045 .0017-.0029 .0012-.0014 .0006 0 0Z"/>
    <path transform="matrix(1,0,0,1,193.7411,87.2083)" d="M0 0C-7.9023-.0117-15.8047-.0234-23.707-.0352-31.5156-.0508-39.3242-.0625-47.1328-.0742-55.0742-.0859-63.0117-.0977-70.9531-.1133-78.3828-.125-85.8125-.1367-93.2461-.1484-100.5977-.1602-107.9492-.1719-115.3008-.1836-121.457-.1953-127.6094-.207-133.7656-.2148-134.8555-.2148-135.7578-1.1563-135.7422-2.2383-135.7328-2.8951-135.4004-3.4734-134.9013-3.8322-134.8835-3.8402-134.8657-3.8481-134.8477-3.8555-134.8594-3.8516-134.8672-3.8477-134.8789-3.8437-134.707-3.9141-134.5273-3.9766-134.3477-4.0273-134.3516-4.0273-134.3555-4.0273-134.3555-4.0273-134.3523-4.0273-134.3489-4.0299-134.3436-4.0308-134.3446-4.0304-134.3456-4.0294-134.3477-4.0273-134.3437-4.0312-134.3398-4.0312-134.3359-4.0312H-134.3398C-134.3359-4.0312-134.332-4.0352-134.3242-4.0352-134.3281-4.0352-134.332-4.0312-134.3359-4.0312-134.332-4.0312-134.3242-4.0352-134.3164-4.0352-134.3203-4.0352-134.3242-4.0352-134.3281-4.0352-134.3217-4.0384-134.3152-4.0389-134.3087-4.039-134.309-4.0389-134.3092-4.0388-134.3095-4.0387-134.3118-4.0383-134.3141-4.0375-134.3164-4.0352-134.3147-4.0369-134.3121-4.0378-134.3095-4.0387-134.3079-4.039-134.3063-4.0391-134.3047-4.0391-134.3008-4.043-134.3008-4.043-134.2969-4.043H-134.3008C-134.0898-4.0898-133.8789-4.1094-133.6641-4.1328-133.668-4.1328-133.6719-4.1289-133.6758-4.1289-133.3896-4.156-133.1034-4.1755-132.8172-4.2138-126.7035-4.2057-120.5902-4.1911-114.4766-4.1836-107.1836-4.1719-99.8867-4.1602-92.5898-4.1484-85.1602-4.1367-77.7344-4.125-70.3047-4.1133-62.3359-4.0977-54.3633-4.0859-46.3906-4.0742-38.5742-4.0625-30.7539-4.0469-22.9375-4.0352-15.0273-4.0234-7.1172-4.0117 .793-3.9961 5-3.9883 9.207-3.9766 13.4102-3.9727 13.4492-3.9766 13.4844-3.9766 13.5195-3.9766H13.5234C13.543-3.9687 13.5625-3.9648 13.582-3.9648 13.6172-3.9609 13.6562-3.9609 13.6914-3.9648 13.7109-3.9609 13.7305-3.9609 13.75-3.9609 13.7891-3.9531 13.8242-3.9531 13.8633-3.957 13.8789-3.957 13.8945-3.9609 13.9102-3.9648 14.0078-3.9687 14.1055-3.9687 14.2031-3.9648 14.1914-3.9648 14.1797-3.9648 14.168-3.9648 14.1914-3.9648 14.2148-3.9609 14.2383-3.9609 14.4258-3.9492 14.6172-3.9414 14.8047-3.9414 14.8828-3.9414 14.9609-3.9453 15.0391-3.9492 15.0937-3.9453 15.1484-3.9375 15.207-3.9336 15.3633-3.9141 15.5234-3.8945 15.6836-3.8867 15.6914-3.8867 15.6953-3.8867 15.7031-3.8867 15.9766-3.832 16.25-3.7617 16.5156-3.6797 16.5586-3.6328 16.6016-3.582 16.6406-3.5312 16.6367-3.5352 16.6328-3.5391 16.6289-3.543 16.6484-3.5195 16.6641-3.4961 16.6758-3.4727 16.6719-3.4844 16.6641-3.4922 16.6602-3.5039 16.7188-3.3984 16.7656-3.2891 16.8125-3.1758L16.8086-3.1797C16.8086-3.1836 16.8047-3.1875 16.8047-3.1914 16.8047-3.1875 16.8047-3.1836 16.8086-3.1797 16.8594-3.0547 16.9023-2.9336 16.9375-2.8086V-2.8125C16.9414-2.8047 16.9414-2.7969 16.9453-2.7852 16.9414-2.793 16.9414-2.8008 16.9375-2.8086 16.9375-2.8008 16.9414-2.793 16.9453-2.7812 17-2.5625 17.0391-2.332 17.0859-2.1094 17.1094-1.9883 17.1367-1.8711 17.1641-1.7539 17.1641-1.6836 17.1641-1.6172 17.168-1.5469 17.1758-1.2617 17.1875-.9727 17.2031-.6836 17.2031-.6602 17.2031-.6367 17.2031-.6172 17.2031-.5977 17.2031-.582 17.2031-.5625 17.2031-.5547 17.207-.5469 17.207-.5391 17.207-.5352 17.207-.5312 17.207-.5273 16.8398-.1836 16.3477 .0273 15.8125 .0273 10.543 .0273 5.2734 .0078 0 0Z"/>
    <path transform="matrix(1,0,0,1,207.5241,83.2528)" d="M0 0C.0072-.003 .0144-.0032 .0216-.0032 .0153-.0032 .009-.0008 .0028 .0002 .0018 .0002 .0009 .0001 0 0Z"/>
    <path transform="matrix(1,0,0,1,209.1707,117.6676)" d="M0 0C-1.082 0-1.9922-.8945-2.0039-1.9766-2.0312-4.6406-2.0391-7.3047-2.0547-9.9687-2.0742-13.0586-2.0937-16.1523-2.1133-19.2422-2.1328-22.582-2.1523-25.918-2.1758-29.2539-2.1836-30.4688-2.1914-31.6797-2.1953-32.8867-2.1992-33.0078-2.1992-33.125-2.1992-33.2422-2.2008-33.6772-2.0603-34.0854-1.8215-34.4197-1.7938-34.4182-1.7649-34.4189-1.7383-34.4219-1.7188-34.418-1.6992-34.418-1.6797-34.418-1.6684-34.4168-1.6574-34.4157-1.6466-34.4148-1.6472-34.4145-1.6478-34.4144-1.6484-34.4141-1.6469-34.4141-1.6453-34.4143-1.6438-34.4145-1.6182-34.4124-1.5932-34.4114-1.5664-34.4141-1.5508-34.418-1.5352-34.4219-1.5195-34.4258-1.4219-34.4297-1.3242-34.4297-1.2266-34.4219-1.2383-34.4219-1.25-34.4219-1.2617-34.4219-1.2383-34.4219-1.2148-34.418-1.1914-34.418-1.0039-34.4063-.8125-34.3984-.625-34.3984-.5469-34.4023-.4687-34.4063-.3906-34.4063-.3359-34.4023-.2812-34.3984-.2227-34.3906-.0664-34.3711 .0937-34.3516 .2539-34.3438 .2617-34.3438 .2656-34.3438 .2734-34.3438 .5469-34.2891 .8203-34.2227 1.0859-34.1367 1.1289-34.0898 1.1719-34.043 1.2109-33.9922 1.207-33.9961 1.2031-34 1.1992-34 1.2188-33.9766 1.2344-33.9531 1.2461-33.9297 1.2422-33.9414 1.2344-33.9492 1.2305-33.9609 1.2891-33.8555 1.3359-33.7461 1.3828-33.6328 1.381-33.6365 1.3792-33.6393 1.3777-33.6416 1.3768-33.6439 1.3759-33.6462 1.375-33.6484 1.375-33.6464 1.3761-33.6443 1.3777-33.6416 1.4274-33.5187 1.4733-33.3922 1.5078-33.2656V-33.2695C1.5117-33.2617 1.5117-33.2539 1.5156-33.2461 1.5117-33.2539 1.5117-33.2578 1.5078-33.2656 1.5078-33.2578 1.5117-33.25 1.5156-33.2422V-33.2383C1.5156-33.2402 1.5156-33.2412 1.5156-33.2422 1.5703-33.0195 1.6094-32.793 1.6563-32.5664 1.6797-32.4492 1.707-32.3281 1.7344-32.2109 1.7344-32.1406 1.7344-32.0742 1.7383-32.0039 1.7461-31.7188 1.7578-31.4297 1.7734-31.1445 1.7734-31.1211 1.7734-31.0977 1.7734-31.0742 1.7734-31.0586 1.7734-31.0391 1.7734-31.0195 1.7734-31.0117 1.7773-31.0078 1.7773-31 1.7773-30.9609 1.7813-30.9219 1.7813-30.8789 1.7852-30.7656 1.7891-30.6563 1.7969-30.5469 1.8047-30.4883 1.8086-30.4258 1.8125-30.3672 1.8147-30.3533 1.8167-30.3391 1.819-30.3247 1.8301-28.4297 1.8418-26.5342 1.8555-24.6367 1.875-21.4453 1.8945-18.25 1.9141-15.0547 1.9336-12.1562 1.9492-9.2578 1.9688-6.3594 1.9766-5.1445 1.9805-3.9297 1.9883-2.7148 1.9922-2.6875 1.9922-2.6602 1.9922-2.6289 1.9922-2.4258 1.9961-2.2227 1.9961-2.0234 2-.9336 1.1133-.0117 .0195 0 .0117 0 .0039 0 0 0Z"/>
    <path transform="matrix(1,0,0,1,57.1667,116.4088)" d="M0 0C.0117-1.1055 .9297-1.9727 2.0195-1.9766 2.207-1.9805 2.3906-1.9805 2.5742-1.9805 2.5936-1.9805 2.6131-1.9802 2.6324-1.9797 9.7992-2.0172 16.966-2.0479 24.1328-2.082 31.8867-2.1211 39.6367-2.1562 47.3906-2.1953 55.2461-2.2305 63.1055-2.2695 70.9609-2.3047 78.5859-2.3437 86.2148-2.3789 93.8398-2.4141 101.6641-2.4531 109.4883-2.4883 117.3125-2.5273 124.5352-2.5586 131.7617-2.5937 138.9844-2.6289 143.2114-2.648 147.4386-2.6707 151.6621-2.6899 151.7535-2.6906 151.8449-2.691 151.9361-2.6912 151.9496-2.6913 151.9631-2.6913 151.9766-2.6914 151.9844-2.6914 151.9922-2.6914 152-2.6914 153.0898-2.6914 153.9922-1.75 153.9766-.668 153.9648 .4375 153.0469 1.3047 151.957 1.3086 147.7109 1.3359 143.4648 1.3516 139.2227 1.3711 132.0195 1.4023 124.8203 1.4375 117.6211 1.4727 109.8281 1.5117 102.0352 1.5469 94.2422 1.582 86.5703 1.6211 78.8945 1.6563 71.2188 1.6914 63.4023 1.7305 55.5898 1.7656 47.7734 1.8047 40.0195 1.8398 32.2656 1.8789 24.5117 1.9141 17.2155 1.9483 9.9228 1.9826 2.6268 2.0169 2.5952 2.0185 2.5632 2.0194 2.5312 2.0195 2.3638 2.0195 2.1933 2.0197 2.0253 2.0226 2.0088 2.0234 1.9921 2.0234 1.9766 2.0234 .8867 2.0273-.0156 1.0742 0 0Z"/>
    <path transform="matrix(1,0,0,1,51.1807,133.3011)" d="M0 0C.0312-1.6406 .0625-3.2852 .0937-4.9297 .1523-7.957 .1016-10.9922 .1016-14.0195 .1016-14.5703 .1016-15.1172 .1016-15.6641 .1016-15.9766 .1016-16.2891 .1016-16.5976 .0977-16.7031 .0977-16.8047 .0977-16.9062 .0898-17.4297 .2305-17.8555 .5156-18.2969 .8477-18.8125 1.5859-19.1601 2.1953-19.1445 2.5382-19.1312 2.8782-19.1094 3.2202-19.0912 4.785-19.1143 6.3533-19.141 7.918-19.1641 9.0078-19.1797 9.9492-18.3359 9.9844-17.2305 10.0234-16.1601 9.1445-15.1797 8.0547-15.1641 7.2734-15.1523 6.4961-15.1406 5.7148-15.1289 5.1729-15.1216 4.6316-15.1074 4.0909-15.1029 4.0904-13.6199 4.0977-12.138 4.0977-10.6562 4.0977-7.875 4.0937-5.1016 4.0391-2.3242 4.0273-1.5938 4.0117-.8633 4-.1328 3.9766 .9531 3.1992 1.8945 2.0664 1.9336 2.0462 1.9343 2.0258 1.9346 2.0055 1.9346 .9831 1.9347-.023 1.0725 0 0Z"/>
    <path transform="matrix(1,0,0,1,52.0986,133.6514)" d="M0 0C.0195-1.1016 .9414-1.9648 2.0312-1.9648 7.6211-1.9648 13.2109-2.0234 18.7969-2.0547 26.5586-2.0937 34.3203-2.1328 42.082-2.1758 49.9336-2.2148 57.7852-2.2578 65.6367-2.2969 73.6055-2.3398 81.5742-2.3789 89.543-2.4219 97.4531-2.4648 105.3633-2.5039 113.2773-2.5469 121.0234-2.5859 128.7695-2.625 136.5156-2.668 143.4648-2.7031 150.4141-2.7422 157.3633-2.7773 158.5547-2.7812 159.75-2.7891 160.9453-2.793 160.9805-2.7969 161.0156-2.7969 161.0508-2.7969 161.9609-2.8008 162.8711-2.8047 163.7812-2.8086 164.8711-2.8164 165.7656-1.8516 165.75-.7773 165.7375-.0701 165.3557 .5348 164.7968 .8808 164.7128 .8918 164.6298 .9068 164.5469 .9219 164.3867 .9531 164.2266 .9844 164.0703 1.0391 163.979 1.0695 163.8847 1.1176 163.818 1.1883 163.785 1.1901 163.752 1.1912 163.7187 1.1914 157.5781 1.2227 151.4414 1.2539 145.3047 1.2852 137.7695 1.3242 130.2344 1.3633 122.6992 1.4063 114.8242 1.4453 106.9492 1.4883 99.0703 1.5273 91.1445 1.5703 83.2188 1.6094 75.2891 1.6523 67.3672 1.6914 59.4492 1.7344 51.5273 1.7734 43.6719 1.8164 35.8203 1.8555 27.9688 1.8984 20.8359 1.9336 13.707 1.9727 6.5742 2.0078 5.0391 2.0156 3.5039 2.0352 1.9688 2.0352 .8789 2.0352-.0156 1.0781 0 0Z"/>
    <path transform="matrix(1,0,0,1,208.4922,117.6481)" d="M0 0C-1.082-.1172-1.8477-1.207-1.6992-2.2578-1.5517-3.3051-.6346-3.9972 .3281-3.9766 .7539-3.9492 1.1914-3.9922 1.6133-4.0117 2.1211-4.0352 2.6289-4.0664 3.1367-4.0937 4.1016-4.1445 5.0703-4.1758 6.0391-4.168 7.1289-4.1602 8.0352-3.2539 8.0312-2.1602 8.0273-1.0742 7.1133-.1602 6.0234-.168 4.9375-.1758 3.8555-.1328 2.7734-.0742 2.111-.0373 1.4258 .0369 .7509 .0369 .4986 .0369 .2477 .0266 0 0Z"/>
    <path transform="matrix(1,0,0,1,217.2286,117.4435)" d="M0 0C-.0156 0-.0352 0-.0547 0-.058 0-.0614-.0001-.0647-.0002-.3752-.0006-.6856-.0039-.9961-.0039-1-.0039-1.0039-.0041-1.0078-.0041-2.9975-.012-4.9909-.0273-6.9844-.0273-8.0742-.0273-9.0039-.8828-9.0234-1.9883-9.043-3.0625-8.1562-4.0273-7.0625-4.0273-5.0586-4.0273-3.0508-4.0117-1.043-4.0039-1.0408-4.0039-1.0387-4.0038-1.0366-4.0038-.7149-4.0035-.3964-4-.0781-4 1.0117-3.9961 1.9414-3.1484 1.9609-2.0391 1.9804-.9709 1.0973 0 .0066 0 .0044 0 .0022 0 0 0Z"/>
    <path transform="matrix(1,0,0,1,220.0031,133.8403)" d="M0 0C-.0039 .0039-.0039 .0039-.0078 .0078-.0078 .0039-.0039 .0039 0 0Z"/>
    <path transform="matrix(1,0,0,1,219.7375,134.0864)" d="M0 0C.0002-.0001 .0004-.0002 .0006-.0003-.001 .0011-.0025 .0025-.0039 .0039-.0039 .0039-.0039 0 0 0Z"/>
    <path transform="matrix(1,0,0,1,219.6671,134.1216)" d="M0 0C-.0009 .0005-.002 .0009-.0029 .0014-.0024 .0007-.0016 0 0 0Z"/>
    <path transform="matrix(1,0,0,1,216.2531,133.3872)" d="M0 0C-.0937-2.8945-.1836-5.7852-.2734-8.6797-.3633-11.6562-.457-14.6289-.5508-17.6055-.5508-17.6172-.5547-17.625-.5547-17.6367-.5547-17.6406-.5547-17.6445-.5547-17.6523-.5898-18.7383 .4414-19.6289 1.4883-19.6055 2.6211-19.582 3.4102-18.6523 3.4453-17.5625 3.582-13.293 3.7109-9.0234 3.8477-4.75 3.8978-3.1953 3.9479-1.6406 3.9943-.0859 3.98-.0511 3.9663-.016 3.9531 .0195 3.918 .1055 3.8789 .1914 3.8437 .2773 3.8477 .2656 3.8516 .2578 3.8555 .2461 3.8359 .293 3.8164 .3359 3.793 .3789 3.793 .3789 3.7939 .3789 3.7948 .3784 3.7799 .4043 3.765 .4268 3.75 .4492 3.7187 .4883 3.6875 .5273 3.6523 .5625 3.6602 .5547 3.668 .5469 3.6758 .5391 3.6445 .5742 3.6094 .6055 3.5742 .6367 3.582 .6289 3.5898 .6211 3.5977 .6133 3.5664 .6445 3.5312 .668 3.4961 .6914 3.4966 .6914 3.4968 .6914 3.4972 .6914 3.4933 .6939 3.4898 .6964 3.4849 .6989 3.4855 .6984 3.486 .698 3.4866 .6975 3.4867 .6974 3.4869 .6972 3.4871 .6971 3.4872 .697 3.4873 .6969 3.4874 .6969 3.4903 .6951 3.4932 .6943 3.4961 .6914 3.4925 .6932 3.4897 .695 3.4874 .6969 3.4873 .6969 3.4872 .697 3.4871 .6971 3.4869 .6972 3.4867 .6973 3.4866 .6975 3.4858 .698 3.4851 .6985 3.4844 .6992 3.4805 .6992 3.4805 .7031 3.4766 .7031H3.4805C3.4531 .7148 3.4297 .7266 3.4023 .7383 3.4041 .7383 3.405 .7383 3.4059 .7383 3.4042 .7391 3.4024 .7399 3.4007 .7408 3.3984 .7415 3.3961 .7422 3.3945 .7422 3.3961 .7422 3.3984 .7415 3.4007 .7408 3.3674 .7567 3.3301 .7723 3.2945 .7855 3.2939 .7856 3.2933 .7857 3.2926 .7857 3.2994 .7829 3.3069 .7801 3.3125 .7773 3.3054 .7803 3.2981 .7831 3.2909 .7859 3.1596 .7989 3.0287 .8131 2.8984 .8281 2.5977 .8672 2.2969 .9063 2 .9531 1.7595 .992 1.5127 1.028 1.2797 1.0924 1.1771 1.1037 1.0743 1.1129 .9727 1.1172H.9688C.9698 1.1172 .9711 1.1172 .9727 1.1172 .9688 1.1172 .9609 1.1172 .957 1.1172 .9609 1.1172 .9688 1.1172 .9727 1.1172 .9102 1.1211 .8438 1.125 .7812 1.1289 .6484 1.1367 .5195 1.1602 .3906 1.1836 .3862 1.1845 .3817 1.1853 .3772 1.1862 .148 .8489 .0132 .4377 0 0Z"/>
    <path transform="matrix(1,0,0,1,58.5417,233.9746)" d="M0 0C.0117-3.0273 .0195-6.0547 .0312-9.082 .0508-15.375 .0742-21.6719 .0937-27.9648 .1133-34.418 .1367-40.8711 .1562-47.3242 .1797-54.1836 .2031-61.043 .2266-67.9023 .2461-74.6797 .2695-81.4609 .293-88.2383 .3047-91.7891 .3203-95.3398 .3281-98.8906 .332-99.9805 1.2148-100.8984 2.3125-100.9063 3.3906-100.9141 4.332-100.0156 4.3281-98.9219 4.3281-98.9102 4.3281-98.8984 4.3281-98.8906 4.3281-98.8887 4.328-98.8867 4.328-98.8848 4.3163-93.7723 4.2929-88.6594 4.2773-83.5469 4.2539-76.6016 4.2305-69.6602 4.207-62.7148 4.1875-55.8711 4.1641-49.0234 4.1406-42.1758 4.1211-35.6992 4.0977-29.2266 4.0781-22.75 4.0586-17.0352 4.0391-11.3164 4.0195-5.6016 4.0162-3.9971 4.0098-2.3896 4.0031-.7843 4.0037-.7651 4.004-.7459 4.0039-.7266 4.0039-.4961 4.0039-.2656 4-.0312 3.9961 1.0586 3.1172 1.9766 2.0195 1.9844 2.0149 1.9844 2.0101 1.9844 2.0055 1.9844 .9293 1.9845-.0039 1.0891 0 0Z"/>
    <path transform="matrix(1,0,0,1,210.2374,236.1809)" d="M0 0C-5.332-.0117-10.6641-.0391-16-.0547-23.6328-.082-31.2695-.1094-38.9063-.1367-46.8359-.1602-54.7617-.1914-62.6914-.2187-70.6953-.2461-78.6992-.2734-86.7031-.3008-94.7969-.3281-102.8867-.3555-110.9766-.3828-119.0664-.4102-127.1523-.4375-135.2422-.4687-139.9766-.4844-144.707-.5156-149.4414-.5156-150.5312-.5156-151.4414-1.4336-151.4375-2.5195-151.4336-3.6133-150.5195-4.5156-149.4297-4.5156-142.5977-4.5156-135.7656-4.4687-128.9336-4.4453-120.875-4.418-112.8125-4.3906-104.7539-4.3633-96.668-4.3359-88.5859-4.3047-80.5039-4.2773-72.4609-4.2539-64.418-4.2227-56.3789-4.1953-48.5352-4.168-40.6914-4.1445-32.8477-4.1133-25.5625-4.0898-18.2734-4.0664-10.9883-4.0391-9.1321-4.0331-7.2748-4.0252-5.4171-4.0178-5.3888-4.0189-5.3606-4.0196-5.332-4.0195-3.5508-4.0117-1.7695-4.0039 .0117-4 1.1016-4 2.0117-3.0859 2.0078-1.9961 2.0039-.9063 1.0898 0 0 0Z"/>
    <path transform="matrix(1,0,0,1,209.6129,235.6719)" d="M0 0C-1.1055-.0156-1.9648-.9336-1.9727-2.0273-2.0117-6.0352-2.0273-10.0469-2.0547-14.0586-2.1016-20.9297-2.1484-27.8008-2.1914-34.6758-2.2383-41.6563-2.2852-48.6367-2.332-55.6172-2.3828-62.957-2.4297-70.2969-2.4805-77.6367-2.5273-84.5039-2.5742-91.375-2.6211-98.2422-2.625-99.0273-2.625-99.8164-2.6367-100.6016-2.6484-101.6914-1.6797-102.5898-.6094-102.5781 .5-102.5625 1.3516-101.6406 1.3633-100.5508 1.4453-94.793 1.4414-89.0273 1.4805-83.2656 1.5273-76.0664 1.5781-68.8633 1.625-61.6641 1.6719-54.5313 1.7227-47.3984 1.7695-40.2617 1.8164-33.2969 1.8633-26.3281 1.9102-19.3594 1.9453-14.1484 1.9805-8.9414 2.0156-3.7305 2.0177-3.418 2.0188-3.1067 2.0204-2.7953 2.0227-2.5227 2.025-2.2503 2.0273-1.9766 2.0312-.8938 1.0904 .0001 .0209 .0001 .0139 .0001 .007 .0001 0 0Z"/>
    <path transform="matrix(1,0,0,1,66.7569,252.433)" d="M0 0C-.9258-.5586-1.2539-1.8164-.6875-2.7461 .4297-4.5742 1.5313-6.4141 2.6328-8.2539 4.4275-11.1584 6.0568-14.1704 7.9141-17.0352 8.5234-17.9336 9.4062-18.8906 10.6328-18.4843 12.1882-18.0361 12.5826-15.9001 11.3239-14.9384 10.4053-13.5922 9.6185-12.1542 8.7852-10.7539 6.7815-7.3957 4.7774-4.032 2.7461-.6914 2.1769 .2452 .9278 .5584 0 0Z"/>
    <path transform="matrix(1,0,0,1,200.0176,251.0862)" d="M0 0C-1.6914-1.9922-3.418-3.9609-5.125-5.9414-7.2227-8.375-9.3242-10.8086-11.4219-13.2422-11.7617-13.6367-12.0977-14.0312-12.4375-14.4219-13.1523-15.2461-12.9492-16.5742-12.125-17.2344-11.2461-17.9336-10.0234-17.7422-9.3125-16.918-7.3984-14.7031-5.4883-12.4844-3.5781-10.2695-1.5547-7.9219 .4687-5.5781 2.4922-3.2305 2.7031-2.9844 2.918-2.7422 3.1289-2.4961 3.832-1.6641 3.6445-.3516 2.8125 .3164 2.4469 .6082 2.0172 .7459 1.5895 .7459 .998 .746 .4103 .4828 0 0Z"/>
    <path transform="matrix(1,0,0,1,71.8181,224.5812)" d="M0 0C-.5703-.0352-.9414-.5117-.9453-1.0547-.9688-4.4883-.9922-7.9219-1.0156-11.3594-1.043-15.3242-1.0703-19.2891-1.0977-23.2539-1.125-27.3906-1.1523-31.5273-1.1836-35.6641-1.2109-39.8203-1.2383-43.9766-1.2656-48.1328-1.2969-52.3164-1.3242-56.4961-1.3516-60.6797-1.3828-64.8125-1.4102-68.9414-1.4375-73.0703-1.4648-77.2031-1.4961-81.3359-1.5234-85.4688-1.5271-85.7513-1.5274-86.0338-1.5306-86.3163-1.5309-86.3267-1.5313-86.3371-1.5313-86.3477-1.5313-86.3594-1.5313-86.3711-1.5313-86.3828-1.5352-86.9297-.9922-87.3555-.4766-87.3281 .0937-87.293 .4648-86.8164 .4687-86.2734 .4922-82.332 .5234-78.3906 .5469-74.4531 .5781-70.3242 .6055-66.1992 .6328-62.0703 .6602-57.8789 .6914-53.6875 .7187-49.4922 .7461-45.3164 .7773-41.1367 .8047-36.9609 .832-32.8164 .8633-28.668 .8906-24.5234 .918-20.5469 .9453-16.5703 .9727-12.5937 .9921-9.5565 1.0142-6.5195 1.0346-3.4823 1.0347-3.4752 1.0351-3.4681 1.0352-3.4609 1.043-2.6211 1.0469-1.7852 1.0547-.9453 1.0585-.4151 .5483 .0012 .0473 .0012 .0315 .0012 .0157 .0008 0 0Z"/>
    <path transform="matrix(1,0,0,1,71.6241,224.8686)" d="M0 0C-.5469 0-1-.4687-.9961-1.0078-.9883-1.5586-.5312-2 .0117-2 .1445-2.0039 .2773-2.0039 .4102-2.0039 .4341-2.0039 .4578-2.0027 .4814-2.0009 5.4536-2.0089 10.422-2.0238 15.3906-2.0352 20.6836-2.0469 25.9766-2.0586 31.2695-2.0703 36.6523-2.082 42.0313-2.0937 47.4141-2.1055 52.8398-2.1172 58.2617-2.1289 63.6875-2.1406 69.0742-2.1523 74.4648-2.1641 79.8555-2.1758 85.2617-2.1875 90.668-2.1992 96.0742-2.2109 101.2969-2.2227 106.5195-2.2344 111.7422-2.2461 116.1992-2.2539 120.6602-2.2656 125.1172-2.2734 125.7187-2.2763 126.3201-2.2771 126.92-2.2788 127.1498-2.2799 127.3796-2.2812 127.6094-2.2812 128.1562-2.2812 128.6094-1.8164 128.6055-1.2734 128.5977-.7227 128.1406-.2812 127.5977-.2812 127.4492-.2807 127.3004-.2804 127.1519-.2799 126.9158-.2788 126.6805-.2773 126.4453-.2773 126.4403-.2773 126.4354-.2777 126.4304-.2777 123.4867-.2689 120.5406-.2647 117.5977-.2578 112.4609-.2461 107.3242-.2344 102.1875-.2266 96.8945-.2148 91.6016-.1992 86.3125-.1914 80.8711-.1797 75.4297-.168 69.9883-.1562 64.5508-.1406 59.1094-.1289 53.6719-.1172 48.3203-.1055 42.9688-.0937 37.6172-.082 32.2773-.0742 26.9375-.0586 21.6016-.0469 16.2969-.0391 10.9961-.0273 5.6953-.0156 3.7969-.0078 1.8984-.0039 0 0Z"/>
    <path transform="matrix(1,0,0,1,199.3876,223.2328)" d="M0 0C-.0937-3.1016-.1523-6.207-.2305-9.3125-.3242-13.1875-.4219-17.0586-.5156-20.9336-.6211-25.0586-.7227-29.1836-.8242-33.3086-.9258-37.4141-1.0273-41.5195-1.1289-45.6211-1.2305-49.7734-1.3359-53.9258-1.4336-58.0742-1.5352-62.207-1.6406-66.3398-1.7422-70.4688-1.8398-74.5352-1.9414-78.6016-2.043-82.668-2.0703-83.8086-2.1016-84.9531-2.1289-86.0938-2.1406-86.6406-1.668-87.0977-1.1328-87.0977-.6083-87.1013-.1887-86.6962-.1348-86.1897-.1293-86.1505-.1259-86.1107-.125-86.0703-.125-86.0664-.125-86.0625-.125-86.0586-.1245-86.0355-.1252-86.0126-.1264-85.9899-.0447-82.2303 .0596-78.4705 .1562-74.7109 .2578-70.6172 .3555-66.5273 .457-62.4375 .5625-58.1953 .668-53.9531 .7734-49.7109 .875-45.6016 .9727-41.4922 1.0781-37.3828 1.1797-33.3047 1.2773-29.2305 1.3789-25.1523 1.4805-21.168 1.5781-17.1797 1.6758-13.1953 1.7683-9.4621 1.8609-5.729 1.9497-1.992 1.9514-1.9713 1.9527-1.9506 1.9531-1.9297 1.9688-1.2891 1.9844-.6484 2-.0078 2.0156 .5391 1.5391 .9961 1.0039 .9961 1.0015 .9961 .9992 .9961 .9968 .9961 .4455 .9961 .0156 .5445 0 0Z"/>
    <path transform="matrix(1,0,0,1,70.5412,138.2663)" d="M0 0C.0039-.5469 .457-.9922 1.0039-.9922 2.9727-.9922 4.9414-1.0352 6.9102-1.0586 9.4766-1.0859 12.043-1.1133 14.6133-1.1406 19.8711-1.1992 25.1289-1.2539 30.3867-1.3125 35.5859-1.3711 40.7813-1.4258 45.9805-1.4805 51.1758-1.5391 56.3711-1.5977 61.5664-1.6523 66.8242-1.707 72.0859-1.7656 77.3438-1.8242 82.4258-1.875 87.5078-1.9336 92.5859-1.9883 97.6719-2.043 102.7539-2.0977 107.8359-2.1523 112.7109-2.207 117.5859-2.2578 122.4609-2.3125 123.3341-2.3222 124.2081-2.3309 125.0822-2.34 125.1054-2.342 125.1288-2.3434 125.1523-2.3437 126.0234-2.3516 126.8945-2.3633 127.7617-2.3711 128.3086-2.375 128.7617-1.9063 128.7578-1.3672 128.7539-.8125 128.2969-.3789 127.7539-.3711 123.9023-.3203 120.0508-.2852 116.1992-.2461 111.1641-.1914 106.1328-.1367 101.0977-.082 96.0156-.0273 90.9375 .0312 85.8594 .0859 80.7031 .1406 75.5508 .1953 70.3945 .2539 65.1836 .3086 59.9727 .3672 54.7617 .4219 49.5859 .4805 44.4102 .5352 39.2383 .5898 33.8945 .6484 28.5508 .707 23.207 .7656 18.1094 .8203 13.0117 .875 7.918 .9297 5.6094 .957 3.3008 1.0078 .9961 1.0078 .4492 1.0078-.0039 .543 0 0Z"/>
    <path transform="matrix(1,0,0,1,136.4735,158.0724)" d="M0 0C-11.5077-.25-23.0287-.3101-34.5274-.8056-40.381-1.1669-46.3548-1.0336-52.0976-2.2939-57.5794-3.9188-53.9698-11.138-49.3828-11.1223-47.942-11.3297-46.4358-11.39-44.9961-11.1535-44.4648-11.0324-44.1055-10.5129-44.2148-9.9699-44.5428-8.666-46.0938-9.4064-47.0335-9.309-48.6419-9.221-50.16-9.2148-51.4501-8.3219-52.9322-7.1583-53.7146-4.4018-51.1408-4.0911-34.2079-1.9384-17.0373-2.5764 0-1.9958 12.6889-2.2805 25.3822-2.3374 38.0625-2.9582 40.0859-3.0441 42.1094-3.1457 44.129-3.3017 47.0197-3.6829 49.9704-3.3381 52.5237-4.6888 53.4045-5.9687 52.3117-7.7982 51.1477-8.5279 49.8259-9.2236 48.4368-9.2381 47.0336-9.3089 46.1124-9.4078 44.535-8.6656 44.2148-9.9699 44.1055-10.5129 44.4648-11.0324 44.9961-11.1535 46.4359-11.39 47.9414-11.3296 49.3827-11.122 53.9323-11.1443 57.6098-3.9264 52.0977-2.2939 46.356-1.0336 40.3768-1.1667 34.5273-.8056 23.0287-.3101 11.5077-.25 0 0Z"/>
    <path transform="matrix(1,0,0,1,137.0868,150.7842)" d="M0 0C-.2369-.0102-.4507-.1127-.6133-.2694-.7758-.1127-.9897-.0102-1.2266 0-5.0039 .1641-8.7812 .1133-12.5586 .0194-23.626-.1418-34.6502-1.1501-45.6992-1.6289-46.2422-1.668-46.6641-2.1445-46.629-2.6916-46.3514-4.3289-43.9949-3.336-42.8437-3.5275-31.8433-2.8543-20.8534-2.055-9.8281-1.918-7.0083-1.8598-4.1838-1.874-1.3672-1.9922-1.0813-2.0045-.8107-1.8997-.6133-1.7175-.4159-1.8997-.1453-2.0045 .1406-1.9922 2.9573-1.874 5.7817-1.8598 8.6016-1.9181 19.6269-2.055 30.6167-2.8543 41.6172-3.5276 42.7746-3.3442 45.1398-4.315 45.4023-2.6914 45.4375-2.1445 45.0156-1.668 44.4727-1.629 29.6602-.9579 14.8457 .4979 0 0Z"/>
    <path transform="matrix(1,0,0,1,136.4735,151.1156)" d="M0 0C-.9109-.0487-2.4654 .3894-2.6172-.9111-2.6204-2.2899-.9445-2.0293 0-1.9981 .9438-2.0297 2.6216-2.2895 2.6172-.9111 2.4648 .3898 .9113-.0495 0 0Z"/>
    <path transform="matrix(1,0,0,1,137.2235,150.499)" d="M0 0C-1.1748-.1422-4.2341 .5664-3.3399-1.586-2.735-2.3617-1.5972-1.9064-.75-2.0181 .0975-1.9068 1.2346-2.3614 1.8399-1.5859 2.1055-1.1914 2.0391-.7109 1.7539-.3554 1.3243 .1809 .5859-.1091 0 0Z"/>
    <path transform="matrix(1,0,0,1,168.1806,149.0556)" d="M0 0C-.0391-.5508 .3828-1.0195 .9258-1.0664 3.7734-1.3086 6.6094-1.6367 9.4531-1.918 10.5859-2.0352 11.7266-2.1172 12.8672-2.1953 13.2969-2.2227 13.7305-2.2422 14.1602-2.2617 14.5547-2.2812 14.9492-2.3047 15.3398-2.2969 15.8867-2.2852 16.3086-1.7578 16.2734-1.2305 16.2352-.6805 15.775-.3062 15.3359-.3008 14.3867-.293 13.4375-.2305 12.4922-.1641 11.1484-.0664 9.8125 .0547 8.4727 .1914 6.0078 .4414 3.5391 .7187 1.0664 .9297 1.0396 .932 1.0129 .9331 .9865 .9331 .4763 .9332 .0334 .5125 0 0Z"/>
    <path transform="matrix(1,0,0,1,103.7001,149.9853)" d="M0 0C-3.8161-.3221-7.6081-.818-11.4259-1.0935-12.6354-1.4139-14.9359-.6048-15.207-2.1602-15.2422-2.6875-14.8203-3.2148-14.2734-3.2266-12.3117-3.1966-10.3379-3.0326-8.3867-2.8477-5.543-2.5664-2.707-2.2383 .1405-1.9961 1.4377-1.8893 1.3023 .0834 0 0Z"/>
    <path transform="matrix(1,0,0,1,188.5703,155.7773)" d="M0 0C5.5117-1.6328 1.8359-8.8477-2.7148-8.8281-3.4453-8.9336-4.1875-9-4.9336-9.0078-4.9727-9.0156-5.0117-9.0195-5.0508-9.0195-5.4414-9.0273-5.8359-9.0039-6.2305-8.9844-6.6602-8.9648-7.0937-8.9453-7.5234-8.918-8.6641-8.8398-9.8047-8.7578-10.9375-8.6406-12.4687-8.4883-13.9961-8.3242-15.5234-8.168-24.6367-7.5937-33.7461-7.0234-42.8828-6.9102-45.1094-6.8633-47.3398-6.8633-49.5664-6.9258-50.1758-7.6172-51.2734-7.1875-52.0977-7.2969-52.9219-7.1875-54.0195-7.6172-54.6289-6.9258-56.8555-6.8633-59.0859-6.8633-61.3125-6.9102-70.4453-7.0234-79.5586-7.5937-88.6719-8.168-90.1992-8.3242-91.7266-8.4883-93.2578-8.6406-95.0156-8.8047-96.793-8.957-98.5664-9.0039-98.7578-9.0117-98.9531-9.0156-99.1445-9.0195-99.1836-9.0195-99.2227-9.0156-99.2617-9.0078-100.0078-9-100.7539-8.9336-101.4805-8.8281-106.0664-8.8437-109.6758-1.625-104.1953 0-98.4531 1.2617-92.4766 1.1289-86.625 1.4883-75.125 1.9844-63.6055 2.0469-52.0977 2.2969-40.5898 2.0469-29.0664 1.9844-17.5703 1.4883-11.7187 1.1289-5.7422 1.2617 0 0ZM4.7656 59.8438C4.7656 59.7266 4.7656 59.6133 4.7617 59.5 4.7578 58.9609 4.7539 58.4219 4.75 57.8828 4.7344 56.4648 4.7227 55.043 4.7109 53.6211 4.6758 50.0586 4.6445 46.5 4.6133 42.9375 4.582 39.1602 4.5469 35.3828 4.5117 31.6055 4.4805 27.9141 4.4727 24.2266 4.4531 20.5352 4.4336 16.8008 4.4102 13.0664 4.3945 9.3359 4.3906 8.5703 4.3867 7.8086 4.3828 7.0469 4.3828 6.9766 4.3672 6.9062 4.3437 6.8437 4.3789 6.7695 4.3945 6.6875 4.3906 6.6055 4.375 6.3203 4.1367 6.1328 3.8672 6.1328 3.7578 6.1328 3.6523 6.1328 3.543 6.1328H3.5391C-.1211 6.1328-3.7812 6.1445-7.4414 6.1523-11.5117 6.1562-15.582 6.1641-19.6484 6.1719-23.6328 6.1797-27.6172 6.1836-31.6016 6.1914-35.4648 6.1953-39.3281 6.2031-43.1875 6.2109-46.1602 6.2148-49.1289 6.2227-52.0977 6.2266-55.0664 6.2227-58.0352 6.2148-61.0078 6.2109-64.8672 6.2031-68.7305 6.1953-72.5938 6.1914-76.5781 6.1836-80.5625 6.1797-84.5469 6.1719-88.6133 6.1641-92.6836 6.1562-96.7539 6.1523-100.4141 6.1445-104.0742 6.1328-107.7344 6.1328H-107.7383C-107.8477 6.1328-107.9531 6.1328-108.0625 6.1328-108.332 6.1328-108.5703 6.3203-108.5859 6.6055-108.5898 6.6875-108.5742 6.7695-108.5391 6.8437-108.5625 6.9062-108.5781 6.9766-108.5781 7.0469-108.582 7.8086-108.5859 8.5703-108.5898 9.3359-108.6055 13.0664-108.6289 16.8008-108.6484 20.5352-108.668 24.2266-108.6758 27.9141-108.707 31.6055-108.7422 35.3828-108.7773 39.1602-108.8086 42.9375-108.8398 46.5-108.8711 50.0586-108.9063 53.6211-108.918 55.043-108.9297 56.4648-108.9453 57.8828-108.9492 58.4219-108.9531 58.9609-108.957 59.5-108.957 59.6133-108.9609 59.7266-108.9609 59.8438-108.9609 60.0078-108.9609 60.1641-108.8438 60.3008-108.7227 60.4453-108.5508 60.5234-108.3711 60.5664-108.2656 60.5938-108.1563 60.6211-108.0469 60.6406-107.9023 60.6602-107.75 60.6953-107.6016 60.707-107.5156 60.7148-107.4336 60.707-107.3555 60.6836-107.1367 60.6758-106.9141 60.6914-106.6953 60.6914-106.3281 60.6953-105.9609 60.6992-105.5977 60.7031-104.0664 60.7188-102.5313 60.7305-101 60.7461-97.1953 60.7813-93.3906 60.8164-89.5859 60.8555-85.668 60.8906-81.75 60.9258-77.832 60.9648-73.8594 61.0039-69.8867 61.0391-65.918 61.0781-62.3828 61.1133-58.8477 61.1445-55.3125 61.1758-54.5039 61.1875-53.6953 61.1953-52.8867 61.2031-52.8516 61.2109-52.8125 61.2148-52.7773 61.2148-52.5508 61.2148-52.3242 61.2109-52.0977 61.2109-51.8711 61.2109-51.6445 61.2148-51.418 61.2148-51.4141 61.2148-51.4141 61.2148-51.4102 61.2148-51.375 61.2148-51.3398 61.2109-51.3086 61.2031-50.5 61.1953-49.6914 61.1875-48.8828 61.1758-45.3477 61.1445-41.8125 61.1133-38.2773 61.0781-34.3086 61.0391-30.3359 61.0039-26.3633 60.9648-22.4453 60.9258-18.5273 60.8906-14.6094 60.8555-10.8047 60.8164-7 60.7813-3.1953 60.7461-1.6641 60.7305-.1289 60.7188 1.4023 60.7031 1.7656 60.6992 2.1328 60.6953 2.5 60.6914 2.7187 60.6914 2.9414 60.6758 3.1641 60.6836 3.2383 60.707 3.3242 60.7148 3.4062 60.707 3.5547 60.6953 3.707 60.6602 3.8516 60.6406 3.9609 60.6211 4.0703 60.5938 4.1758 60.5664 4.3555 60.5234 4.5273 60.4453 4.6484 60.3008 4.7656 60.1641 4.7656 60.0078 4.7656 59.8438ZM10.7969 66.8164C10.7539 66.8125 10.707 66.8086 10.6641 66.8086 10.4336 66.8086 10.2031 66.8125 9.9727 66.8125 9.375 66.8125 8.7734 66.8164 8.1719 66.8164 3.7148 66.8242-.7461 66.8359-5.2031 66.8438-10.4258 66.8555-15.6484 66.8672-20.8711 66.8789-26.2773 66.8906-31.6836 66.9023-37.0898 66.9141-42.4805 66.9258-47.8711 66.9375-53.2578 66.9492-58.6836 66.9609-64.1055 66.9727-69.5313 66.9844-74.9141 66.9961-80.293 67.0078-85.6758 67.0195-90.9688 67.0313-96.2617 67.043-101.5547 67.0547-106.2695 67.0664-110.9883 67.082-115.707 67.0898-115.7109 66.5078-115.7148 65.9258-115.7188 65.3438-115.7188 65.3359-115.7188 65.3281-115.7188 65.3203-115.7383 62.2852-115.7617 59.2461-115.7813 56.2109-115.8086 52.2344-115.8359 48.2578-115.8633 44.2813-115.8906 40.1367-115.9219 35.9883-115.9492 31.8438-115.9766 27.668-116.0078 23.4883-116.0352 19.3125-116.0625 15.1172-116.0938 10.9258-116.1211 6.7344-116.1484 2.6055-116.1758-1.5195-116.207-5.6484-116.2305-9.2656-116.2578-12.8867-116.2773-16.5078-114.2227-16.5156-112.168-16.5586-110.1094-16.582-105.0156-16.6367-99.918-16.6914-94.8203-16.7461-89.4766-16.8047-84.1328-16.8633-78.7891-16.9219-73.6172-16.9766-68.4414-17.0313-63.2656-17.0898-58.0547-17.1445-52.8438-17.2031-47.6328-17.2578-42.4766-17.3164-37.3242-17.3711-32.168-17.4258-27.0898-17.4805-22.0117-17.5391-16.9297-17.5938-11.8945-17.6484-6.8633-17.7031-1.8281-17.7578 1.6836-17.793 5.1953-17.8242 8.707-17.8711 8.7305-16.9844 8.7539-16.0977 8.7734-15.2109 8.875-11.1445 8.9766-7.0781 9.0742-3.0117 9.1758 1.1172 9.2812 5.25 9.3828 9.3828 9.4805 13.5312 9.5859 17.6836 9.6875 21.8359 9.7891 25.9375 9.8906 30.043 9.9922 34.1484 10.0937 38.2734 10.1953 42.3984 10.3008 46.5234 10.3945 50.3984 10.4922 54.2695 10.5859 58.1445 10.6602 61.0352 10.7148 63.9297 10.7969 66.8164Z" fill="#949492"/>
    <path transform="matrix(1,0,0,1,200.3906,224.2305)" d="M0 0C.5352 0 1.0117-.457 .9961-1.0039 .9805-1.6445 .9648-2.2852 .9492-2.9258 .9492-2.9492 .9492-2.9687 .9453-2.9883 .8594-6.7266 .7656-10.4609 .6719-14.1914 .5742-18.1758 .4766-22.1641 .375-26.1484 .2734-30.2266 .1758-34.3008 .0742-38.3789-.0312-42.4883-.1289-46.5977-.2305-50.707-.3359-54.9492-.4414-59.1914-.5469-63.4336-.6484-67.5234-.7461-71.6133-.8477-75.707-.9453-79.4688-1.0469-83.2266-1.1289-86.9883-1.1289-87.0117-1.1289-87.0313-1.1289-87.0547-1.1289-87.0586-1.1289-87.0625-1.1289-87.0664-1.1055-87.1523-1.0898-87.2383-1.0898-87.332-1.0859-87.8711-1.5391-88.3398-2.0859-88.3359-2.9531-88.3281-3.8242-88.3164-4.6953-88.3086-4.7187-88.3086-4.7422-88.3047-4.7656-88.3047-5.6406-88.2969-6.5156-88.2852-7.3867-88.2773-12.2617-88.2227-17.1367-88.1719-22.0117-88.1172-27.0938-88.0625-32.1758-88.0078-37.2617-87.9531-42.3398-87.8984-47.4219-87.8398-52.5039-87.7891-57.7617-87.7305-63.0234-87.6719-68.2813-87.6172-73.4766-87.5625-78.6719-87.5039-83.8672-87.4453-89.0664-87.3906-94.2617-87.3359-99.4609-87.2773-104.7188-87.2188-109.9766-87.1641-115.2344-87.1055-117.8047-87.0781-120.3711-87.0508-122.9375-87.0234-124.9063-87-126.875-86.957-128.8437-86.957-128.8594-86.957-128.8789-86.957-128.8945-86.9531-128.9453-86.9648-128.9961-86.9727-129.0508-86.9766-129.5664-87.0039-130.1094-86.5781-130.1055-86.0313-130.1055-86.0195-130.1055-86.0078-130.1055-85.9961-130.1055-85.9883-130.1016-85.9766-130.1016-85.9648-130.1016-85.6836-130.1016-85.4023-130.0977-85.1172-130.0703-80.9844-130.0391-76.8516-130.0117-72.7188-129.9844-68.5898-129.957-64.4609-129.9258-60.3281-129.8984-56.1445-129.8711-51.9648-129.8398-47.7813-129.8125-43.625-129.7852-39.4688-129.7578-35.3125-129.7266-31.1758-129.6992-27.0391-129.6719-22.9023-129.6445-18.9375-129.6172-14.9727-129.5898-11.0078-129.5664-7.6719-129.543-4.3359-129.5234-1.0039-129.668-.832-129.7578-.6133-129.7617-.3711-129.7656 .168-129.3125 .6367-128.7656 .6367-126.8672 .6328-124.9688 .6289-123.0703 .6211-117.7695 .6094-112.4688 .5977-107.1641 .5898-101.8281 .5781-96.4883 .5625-91.1484 .5547-85.7969 .543-80.4453 .5312-75.0938 .5195-69.6563 .5078-64.2148 .4961-58.7773 .4805-53.3359 .4687-47.8945 .457-42.4531 .4453-37.1641 .4375-31.8711 .4219-26.5781 .4102-21.4414 .4023-16.3047 .3906-11.168 .3789-8.2266 .375-5.2812 .3711-2.3359 .3594-2.332 .3594-2.3281 .3594-2.3203 .3594-2.0859 .3594-1.8516 .3594-1.6133 .3594-1.4648 .3594-1.3164 .3555-1.168 .3555-.8359 .3555-.5391 .1914-.3516-.0625-.2461-.0234-.1289 0-.0078 0-.0039 0 0 0 0 0ZM7.2383 7.9414C6.332 7.9375 5.4219 7.9336 4.5156 7.9297 4.4844 7.9297 4.457 7.9297 4.4297 7.9336 2.5703 7.9258 .7148 7.918-1.1406 7.9102-8.4258 7.8828-15.7148 7.8594-23 7.8359-30.8438 7.8047-38.6875 7.7812-46.5313 7.7539-54.5703 7.7266-62.6133 7.6953-70.6563 7.6719-78.7383 7.6445-86.8203 7.6133-94.9063 7.5859-102.9648 7.5586-111.0273 7.5312-119.0859 7.5039-125.3359 7.4844-131.5898 7.4414-137.8398 7.4375-137.8359 6.3398-137.832 5.2383-137.8281 4.1445-137.8086-1.5703-137.7891-7.2891-137.7695-13.0039-137.75-19.4805-137.7266-25.9531-137.707-32.4297-137.6836-39.2773-137.6602-46.125-137.6406-52.9688-137.6172-59.9141-137.5937-66.8555-137.5703-73.8008-137.5547-78.7305-137.5312-83.6602-137.5195-88.5898-131.7891-88.6211-126.0586-88.6523-120.3242-88.6797-112.4727-88.7227-104.6211-88.7617-96.7656-88.8047-88.8438-88.8438-80.9258-88.8867-73.0039-88.9258-65.0742-88.9688-57.1484-89.0078-49.2227-89.0508-41.3438-89.0898-33.4688-89.1328-25.5938-89.1719-18.0586-89.2148-10.5234-89.2539-2.9883-89.293 .2031-89.3086 3.3984-89.3242 6.5937-89.3398 6.5859-89.2813 6.5859-89.2227 6.5859-89.1602 6.5977-88.375 6.5977-87.5859 6.6016-86.8008 6.6484-79.9336 6.6953-73.0625 6.7422-66.1953 6.793-58.8555 6.8398-51.5156 6.8906-44.1758 6.9375-37.1953 6.9844-30.2148 7.0312-23.2344 7.0742-16.3594 7.1211-9.4883 7.168-2.6172 7.1914 .9023 7.207 4.4258 7.2383 7.9414Z" fill="#949492"/>
    <path transform="matrix(1,0,0,1,190.5586,110.5156)" d="M0 0C1.6797-.1523 7.3945 .9609 7.0937-1.7266 6.8594-4.7266 6.957-15.9375 3.9141-16.832-9.6289-16.9727-23.1836-18.0391-36.7461-18.1836-63.9297-18.5742-91.1172-18.9766-118.293-18.0781-118.375-18.2656-118.5742-18.3945-118.7891-18.3828-119.0195-18.3633-119.1992-18.1914-119.2461-17.9766-119.3438-17.8906-119.4063-17.7734-119.418-17.6367-119.4258-17.4648-119.3477-17.3008-119.2188-17.2031-118.7617-13.4023-119.1406-.7969-114.1875-.4297-101.9492-.1055-89.7188-.8789-77.4922-1.2266-51.6563-2.0703-25.8008-1.4063 0 0ZM16.5938 3.2109C12.9297 3.2305 9.2617 3.25 5.5937 3.2656-1.6289 3.3008-8.8555 3.3359-16.0781 3.3672-23.9023 3.4062-31.7266 3.4414-39.5508 3.4805-47.1758 3.5156-54.8047 3.5508-62.4297 3.5898-70.2852 3.625-78.1445 3.6641-86 3.6992-93.7539 3.7383-101.5039 3.7734-109.2578 3.8125-115.7695 3.8398-122.2773 3.8711-128.7852 3.9023-128.7812 2.3633-128.7734 .8281-128.7656-.707-128.3984-2.0703-128.668-3.9453-128.7461-5.3594-128.7266-9.7852-128.707-14.2109-128.6914-18.6367-128.6836-20.2617-128.6758-21.8906-128.6719-23.5195-123.1523-23.5117-117.6367-23.5039-112.1172-23.4922-104.7656-23.4805-97.4141-23.4688-90.0625-23.457-82.6289-23.4453-75.1992-23.4336-67.7695-23.4219-59.8281-23.4063-51.8906-23.3945-43.9492-23.3828-36.1406-23.3711-28.332-23.3594-20.5234-23.3438-12.6211-23.332-4.7187-23.3203 3.1836-23.3086 7.6016-23.3008 12.0156-23.2891 16.4297-23.2852 16.4336-22.8906 16.4336-22.4961 16.4375-22.1016 16.4609-18.7656 16.4805-15.4297 16.5-12.0898 16.5195-9 16.5391-5.9062 16.5586-2.8164 16.5703-.8086 16.5781 1.2031 16.5938 3.2109Z" fill="#949492"/>
    <path transform="matrix(1,0,0,1,187.6211,149.543)" d="M0 0C1.1641 .7305 2.2578 2.5625 1.375 3.8398-1.1758 5.1914-4.1289 4.8477-7.0195 5.2266-9.0391 5.3828-11.0625 5.4844-13.0859 5.5703-25.7656 6.1914-38.457 6.25-51.1484 6.5352-68.1836 5.9531-85.3555 6.5898-102.2891 4.4375-104.8633 4.1289-104.0781 1.3711-102.5977 .207-101.3086-.6836-99.7891-.6914-98.1797-.7812-98.1602-.7852-98.1445-.7852-98.125-.7852-97.8555-.7266-97.5469-.7148-97.2305-.7187-97.1094-.7031-96.9883-.6875-96.8672-.6758-96.7031-.5117-96.4805-.4062-96.2344-.3867-93.4961-.2695-90.7617-.1172-88.0234 .0469-86.6563 .1875-85.293 .3281-83.9219 .4414-83.7031 .457-83.5156 .4102-83.3633 .3281-76.6133 .7461-69.8633 1.1602-63.0938 1.2617-59.8867 1.3398-56.6797 1.3906-53.4727 1.3008-52.9453 1.7891-51.8516 1.5352-51.1484 1.5742-50.4375 1.5352-49.3398 1.793-48.8164 1.293-38.8398 1.5273-28.875 .9297-18.9141 .3242-18.7734 .4023-18.6172 .4453-18.4531 .4453-18.4258 .4453-18.4023 .4453-18.375 .4414-17.0469 .3281-15.7227 .1953-14.3945 .0586-11.6172-.1055-8.8398-.2617-6.0625-.3867-5.8164-.4062-5.5937-.5117-5.4297-.6758H-5.4258C-5.1289-.707-4.8203-.7578-4.543-.7812-4.4414-.7852-4.3359-.7852-4.2344-.7852-4.2227-.7891-4.2148-.7891-4.207-.7852-4.1758-.7852-4.1445-.7852-4.1133-.7812-2.7109-.707-1.3203-.6953 0 0Z" fill="#d9d9d1"/>
    <path transform="matrix(1,0,0,1,215.9805,124.707)" d="M0 0C.0625 2.0547 .1289 4.1094 .1953 6.1641 .1016 6.1445 0 6.1367-.1016 6.1367-1.0117 6.1406-1.9219 6.1445-2.832 6.1484-2.8672 6.1484-2.9023 6.1484-2.9375 6.1523-4.1328 6.1562-5.3281 6.1641-6.5195 6.168-13.4687 6.2031-20.418 6.2422-27.3672 6.2773-35.1133 6.3203-42.8594 6.3594-50.6055 6.3984-58.5195 6.4414-66.4297 6.4805-74.3398 6.5234-82.3086 6.5664-90.2773 6.6055-98.2461 6.6484-106.0977 6.6875-113.9492 6.7305-121.8008 6.7695-129.5625 6.8125-137.3242 6.8516-145.0859 6.8906-150.3125 6.918-155.543 6.9727-160.7734 6.9766-160.7695 6.7422-160.7656 6.5039-160.7617 6.2695-160.707 3.4922-160.7031 .7187-160.7031-2.0625-160.7031-3.543-160.7109-5.0273-160.707-6.5078-160.168-6.5117-159.625-6.5273-159.0859-6.5352-158.6641-6.543-158.2461-6.5469-157.8281-6.5547-157.5352-6.375-157.1953-6.2734-156.8359-6.2734-156.8203-6.2734-156.8047-6.2734-156.7891-6.2773-156.6211-6.2773-156.4492-6.2773-156.2812-6.2773-156.25-6.2773-156.2187-6.2812-156.1875-6.2812-148.8906-6.3164-141.5977-6.3516-134.3008-6.3828-126.5469-6.418-118.793-6.457-111.0391-6.4922-103.2227-6.5312-95.4102-6.5664-87.5938-6.6055-79.918-6.6406-72.2422-6.6758-64.5703-6.7148-56.7773-6.75-48.9844-6.7852-41.1914-6.8242-33.9922-6.8594-26.793-6.8945-19.5898-6.9258-15.3477-6.9453-11.1016-6.9609-6.8555-6.9883-6.7148-6.9883-6.5781-7.0039-6.4453-7.0312-5.8672-7.043-5.2812-7.1016-4.7148-7.1328-3.6328-7.1914-2.5508-7.2344-1.4648-7.2266-1.3164-7.2266-1.1719-7.2422-1.0352-7.2734-.7656-7.2734-.5-7.2734-.2305-7.2695-.1523-4.8477-.0781-2.4258 0 0Z" fill="#d9d9d1"/>
    <path transform="matrix(1,0,0,1,197.6523,108.7891)" d="M0 0C.3008 2.6875-5.4141 1.5742-7.0937 1.7266-32.8945 .3203-58.75-.3437-84.5859 .5-96.8125 .8477-109.043 1.6211-121.2813 1.2969-126.2344 .9297-125.8555-11.6758-126.3125-15.4766-126.4414-15.5742-126.5195-15.7383-126.5117-15.9102-126.5-16.0469-126.4375-16.1641-126.3398-16.25-126.293-16.4648-126.1133-16.6367-125.8828-16.6563-125.668-16.668-125.4688-16.5391-125.3867-16.3516-98.2109-17.25-71.0234-16.8477-43.8398-16.457-30.2773-16.3125-16.7227-15.2461-3.1797-15.1055-.1367-14.2109-.2344-3 0 0Z"/>
    <path transform="matrix(1,0,0,1,70.1056,93.7586)" d="M0 0C-.2195-.7069 .5001-2.2569 1.3162-2.0955 1.8754-2.1915 3.0612-2.7269 3.129-1.8085 3.0069-1.072 1.9603-1.3912 1.4513-1.0886 1.3123-.6893 1.285-.3235 1.1523 .0664 .9582 .6675 .1149 .621 0 0Z" fill="#949492"/>
    <path transform="matrix(1,0,0,1,33.2415,84.9254)" d="M0 0C.0039-.2773 .2344-.4922 .5078-.4922 .7812-.4922 1.0039-.2539 1 .0156 .9961 .293 .7656 .5078 .4922 .5078 .2187 .5078-.0039 .2695 0 0Z" fill="#feffe2"/>
    <path transform="matrix(1,0,0,1,139.8843,152.0572)" d="M0 0C-2.1107-.106-4.3154-.0458-6.3707-.1818-7.2175-.1538-7.1283-1.2799-6.3125-1.2385-2.8053-1.3527 .7244-1.5416 4.2188-1.0939 4.4922-1.0666 4.6758-.7814 4.6367-.5236 4.5938-.2424 4.336-.0783 4.0664-.1057 2.9823-.2184 2.0424-.3367 .9895-.3549 .8547 .0475 .3508 .0123 0 0Z" fill="#d9d9d1"/>
    <path transform="matrix(1,0,0,1,136.6973,148.9769)" d="M0 0C-1.4597-.1597-3.097 .1448-4.4687-.2971-4.8247-.6528-4.4531-1.238-3.9825-1.1462-1.9681-1.4109 .828-1.4739 2.8469-1.3753 2.8472-1.3752 2.8474-1.3752 2.8477-1.3752 3.2305-1.3884 3.7593-1.59 3.9993-1.1796 4.4719-1.2205 5.2245-1.6357 5.4337-.9844 5.6155 .2772 .934-.0247 0 0Z" fill="#949492"/>
    <path transform="matrix(1,0,0,1,104.9352,151.0728)" d="M0 0C-2.7425-.5653-5.5897-.3746-8.3721-.6764-10.6421-1.0041-13.014-1.0136-15.2392-1.3563-15.7347-1.8378-15.1759-2.3712-14.6065-2.2706-10.4633-2.1414-6.3336-1.5498-2.208-1.329-1.2445-1.2624-.2717-1.2607 .6904-1.1923 .9599-1.1728 1.1865-.9658 1.1826-.6845 1.1748-.4057 .9167-.1509 .6285-.1951 .5102 .0164 .22 .1057 0 0Z" fill="#d9d9d1"/>
    <path transform="matrix(1,0,0,1,216.0112,134.8508)" d="M0 0C-.3768-.056-1.1201-.2756-1.004-.763-1.2421-1.0151-.8483-1.3741-.6313-1.1068 .6979-1.6603 2.0279-2.4819 3.4645-2.6456 3.3939-2.907 3.067-3.3043 3.4024-3.4883 3.5274-3.5352 3.6837-3.4766 3.7306-3.3477 3.9694-2.6457 4.3828-1.9239 4.2814-1.16 3.6954 .4265 1.3492-.1217 0 0ZM1.1876-.6367C1.9471-.7645 2.8567-.7663 3.5001-1.1915 3.6557-1.4368 3.6901-1.9413 3.4064-2.1174 2.2142-1.7642 1.0601-1.3241-.0289-.7236 .1191-.6919 .2697-.6716 .4088-.6594 .6715-.6371 .9378-.626 1.2006-.6396 1.2006-.6396 1.1876-.6368 1.1876-.6367Z"/>
    <path transform="matrix(1,0,0,1,193.332,215.2773)" d="M0 0C.0039 .1133 .0039 .2266 .0039 .3437 .0039 .5078 .0039 .6641-.1133 .8008-.2344 .9453-.4062 1.0234-.5859 1.0664-.6914 1.0938-.8008 1.1211-.9102 1.1406-1.0547 1.1602-1.207 1.1953-1.3555 1.207-1.4375 1.2148-1.5234 1.207-1.5977 1.1836-1.8203 1.1758-2.043 1.1914-2.2617 1.1914-2.6289 1.1953-2.9961 1.1992-3.3594 1.2031-4.8906 1.2188-6.4258 1.2305-7.957 1.2461-11.7617 1.2813-15.5664 1.3164-19.3711 1.3555-23.2891 1.3906-27.207 1.4258-31.125 1.4648-35.0977 1.5039-39.0703 1.5391-43.0391 1.5781-46.5742 1.6133-50.1094 1.6445-53.6445 1.6758-54.4531 1.6875-55.2617 1.6953-56.0703 1.7031-56.1016 1.7109-56.1367 1.7148-56.1719 1.7148-56.1758 1.7148-56.1758 1.7148-56.1797 1.7148-56.4063 1.7148-56.6328 1.7109-56.8594 1.7109-57.0859 1.7109-57.3125 1.7148-57.5391 1.7148-57.5742 1.7148-57.6133 1.7109-57.6484 1.7031-58.457 1.6953-59.2656 1.6875-60.0742 1.6758-63.6094 1.6445-67.1445 1.6133-70.6797 1.5781-74.6484 1.5391-78.6211 1.5039-82.5938 1.4648-86.5117 1.4258-90.4297 1.3906-94.3477 1.3555-98.1523 1.3164-101.957 1.2813-105.7617 1.2461-107.293 1.2305-108.8281 1.2188-110.3594 1.2031-110.7227 1.1992-111.0898 1.1953-111.457 1.1914-111.6758 1.1914-111.8984 1.1758-112.1172 1.1836-112.1953 1.207-112.2773 1.2148-112.3633 1.207-112.5117 1.1953-112.6641 1.1602-112.8086 1.1406-112.918 1.1211-113.0273 1.0938-113.1328 1.0664-113.3125 1.0234-113.4844 .9453-113.6055 .8008-113.7227 .6641-113.7227 .5078-113.7227 .3437-113.7227 .2266-113.7188 .1133-113.7188 0-113.7148-.5391-113.7109-1.0781-113.707-1.6172-113.6914-3.0352-113.6797-4.457-113.668-5.8789-113.6328-9.4414-113.6016-13-113.5703-16.5625-113.5391-20.3398-113.5039-24.1172-113.4688-27.8945-113.4375-31.5859-113.4297-35.2734-113.4102-38.9648-113.3906-42.6992-113.3672-46.4336-113.3516-50.1641-113.3477-50.9297-113.3438-51.6914-113.3398-52.4531-113.3398-52.5234-113.3242-52.5938-113.3008-52.6563-113.3359-52.7305-113.3516-52.8125-113.3477-52.8945-113.332-53.1797-113.0938-53.3672-112.8242-53.3672-112.7148-53.3672-112.6094-53.3672-112.5-53.3672H-112.4961C-108.8359-53.3672-105.1758-53.3555-101.5156-53.3477-97.4453-53.3438-93.375-53.3359-89.3086-53.3281-85.3242-53.3203-81.3398-53.3164-77.3555-53.3086-73.4922-53.3047-69.6289-53.2969-65.7695-53.2891-62.7969-53.2852-59.8281-53.2773-56.8594-53.2734-53.8906-53.2773-50.9219-53.2852-47.9492-53.2891-44.0898-53.2969-40.2266-53.3047-36.3633-53.3086-32.3789-53.3164-28.3945-53.3203-24.4102-53.3281-20.3438-53.3359-16.2734-53.3438-12.2031-53.3477-8.543-53.3555-4.8828-53.3672-1.2227-53.3672H-1.2188C-1.1094-53.3672-1.0039-53.3672-.8945-53.3672-.625-53.3672-.3867-53.1797-.3711-52.8945-.3672-52.8125-.3828-52.7305-.418-52.6563-.3945-52.5938-.3789-52.5234-.3789-52.4531-.375-51.6914-.3711-50.9297-.3672-50.1641-.3516-46.4336-.3281-42.6992-.3086-38.9648-.2891-35.2734-.2812-31.5859-.25-27.8945-.2148-24.1172-.1797-20.3398-.1484-16.5625-.1172-13-.0859-9.4414-.0508-5.8789-.0391-4.457-.0273-3.0352-.0117-1.6172-.0078-1.0781-.0039-.5391 0 0Z"/>
  </g>
</svg>