<?xml version="1.0" encoding="utf-8"?>
<svg xmlns="http://www.w3.org/2000/svg" viewBox="0 0 500 500">
  <defs>
    <clipPath id="clipPath28" clipPathUnits="userSpaceOnUse">
      <path id="path26" d="M 473.608,93.5508 H 661.125 V 263.77 H 473.608 Z"/>
    </clipPath>
  </defs>
  <g id="g22" transform="matrix(1.333333, 0, 0, 1.333333, -520.686768, 1.862889)">
    <g clip-path="url(#clipPath28)" id="g24">
      <g transform="translate(498.5085,120.8658)" id="g30">
        <path id="path32" style="fill:#ffffff;fill-opacity:1;fill-rule:nonzero;stroke:none" d="m 0,0 c 0.0352,-1.8867 -0.0117,-3.7656 -0.0742,-5.6406 -0.0781,-2.3633 -0.1797,-4.7266 -0.1719,-7.1016 0.0078,-0.3398 0.082,-0.6367 0.2031,-0.8867 0.8086,-1.6836 3.7422,-1.3789 3.7969,0.9023 0.043,2.2969 0.0234,4.5977 0.1523,6.8946 -0.0156,0.2734 -0.0078,0.5859 0.0157,0.9258 0,0 0,0.0039 0,0.0039 C 3.918,-4.0586 3.9141,-3.2187 3.9102,-2.375 3.9062,-1.668 3.9023,-0.9609 3.9023,-0.25 3.6875,0.5469 3.2578,1.1641 2.4492,1.418 2.2858,1.4613 2.1195,1.4821 1.9545,1.4821 1.0789,1.4822 0.2367,0.8974 0,0 Z"/>
      </g>
      <g transform="translate(642.0087,234.0341)" id="g34">
        <path id="path36" style="fill:#949492;fill-opacity:1;fill-rule:nonzero;stroke:none" d="m 0,0 c -0.0156,-0.6406 -0.0312,-1.2813 -0.0469,-1.9219 0,-0.0117 0,-0.0234 -0.0039,-0.0312 0,-0.0117 -0.0039,-0.0196 -0.0039,-0.0313 -0.0859,-3.7383 -0.1797,-7.4726 -0.2734,-11.2031 -0.0938,-3.9844 -0.1953,-7.9727 -0.2969,-11.957 -0.1016,-4.0782 -0.1953,-8.1524 -0.2969,-12.2305 -0.0547,-2.0547 -0.1054,-4.1094 -0.1562,-6.1641 -0.0469,-2.0547 -0.0977,-4.1093 -0.1485,-6.164 -0.0547,-2.1211 -0.1093,-4.2422 -0.1601,-6.3633 -0.0547,-2.1211 -0.1055,-4.2422 -0.1602,-6.3633 -0.0508,-2.043 -0.1015,-4.0898 -0.1484,-6.1367 -0.0469,-2.043 -0.0977,-4.0899 -0.1485,-6.1367 -0.0234,-0.9414 -0.0507,-1.8789 -0.0742,-2.8203 -0.0625,-2.1954 -0.1172,-4.3868 -0.164,-6.5821 -0.0157,-0.625 -0.0313,-1.2539 -0.043,-1.8789 0,-0.0234 0,-0.0429 0,-0.0664 0,-0.0039 0,-0.0078 0,-0.0117 0,-0.0117 0,-0.0195 0.0078,-0.0313 0.0156,-0.0742 0.0313,-0.1523 0.0313,-0.2343 0,-0.0703 -0.0078,-0.1367 -0.0235,-0.2032 -0.0039,-0.0312 -0.0117,-0.0625 -0.0273,-0.0937 -0.0156,-0.0625 -0.043,-0.1211 -0.0742,-0.1758 -0.0274,-0.0547 -0.0625,-0.1094 -0.1016,-0.1562 -0.1836,-0.2305 -0.4648,-0.3789 -0.7734,-0.375 -0.8672,0.0078 -1.7383,0.0195 -2.6094,0.0273 -0.0234,0 -0.0469,0.0039 -0.0703,0.0039 -0.875,0.0078 -1.75,0.0195 -2.6211,0.0274 -4.875,0.0546 -9.75,0.1054 -14.625,0.1601 -5.0821,0.0547 -10.1641,0.1094 -15.25,0.1641 -5.0781,0.0547 -10.1602,0.1133 -15.2422,0.164 -5.2578,0.0586 -10.5195,0.1172 -15.7774,0.1719 -5.1953,0.0547 -10.3906,0.1133 -15.5859,0.1719 -5.2031,0.0547 -10.3984,0.1094 -15.5937,0.168 -5.2579,0.0586 -10.5157,0.1132 -15.7735,0.1718 -2.5703,0.0274 -5.1367,0.0547 -7.7031,0.0821 -1.9688,0.0234 -3.9375,0.0664 -5.9062,0.0664 -0.0157,0 -0.0352,0 -0.0508,0.0039 -0.004,0 -0.004,0 -0.004,0 0,0 -0.004,0 -0.004,0 -0.008,-0.0039 -0.0196,-0.0039 -0.0274,-0.0039 -0.039,-0.0117 -0.0742,-0.0157 -0.1172,-0.0196 0,0 -0.004,0 -0.004,0 -0.0117,0 -0.0273,0 -0.039,0 -0.0664,0 -0.1289,0.0079 -0.1954,0.0196 -0.082,0.0156 -0.164,0.0429 -0.2421,0.0781 -0.0938,0.043 -0.1797,0.1016 -0.2579,0.1719 -0.0234,0.0195 -0.0468,0.039 -0.0664,0.0664 -0.0234,0.0195 -0.039,0.0429 -0.0546,0.0625 -0.043,0.0547 -0.0821,0.1094 -0.1094,0.1719 -0.008,0.0156 -0.0156,0.0273 -0.0235,0.0429 -0.008,0.0274 -0.0195,0.0547 -0.0273,0.0781 -0.008,0.0274 -0.0156,0.0547 -0.0195,0.0821 -0.0157,0.0547 -0.0196,0.1133 -0.0196,0.1719 0,0.0117 0,0.0234 0,0.0351 0,0.0078 0.004,0.0195 0.004,0.0313 0,0.2812 0,0.5625 0.004,0.8476 0.0118,2.0664 0.0274,4.1328 0.043,6.1992 0.0156,2.0664 0.0313,4.1328 0.043,6.1993 0.0117,2.0625 0.0273,4.1289 0.043,6.1953 0.0117,2.0625 0.0273,4.1289 0.0429,6.1953 0.0117,2.0937 0.0274,4.1836 0.043,6.2734 0.0117,2.0899 0.0273,4.1797 0.043,6.2735 0.0117,2.0781 0.0273,4.1562 0.0429,6.2343 0.0117,2.0782 0.0235,4.1563 0.0391,6.2344 0.0312,4.1367 0.0586,8.2734 0.0859,12.4102 0.0157,1.9843 0.0274,3.9648 0.043,5.9492 0.0117,1.9805 0.0273,3.9648 0.0391,5.9453 0.0234,3.332 0.0468,6.668 0.0664,9.9961 0,0.0039 0,0.0039 0,0.0078 -0.0313,0.0352 -0.0586,0.0742 -0.086,0.1172 -0.0273,0.043 -0.0508,0.082 -0.0703,0.1289 -0.0156,0.0273 -0.0234,0.0586 -0.0312,0.0898 -0.0235,0.0625 -0.0391,0.1289 -0.0469,0.1953 0,0.0313 -0.008,0.0665 -0.008,0.1016 0,0.1367 0.0273,0.2656 0.0781,0.3867 0.1563,0.3594 0.5117,0.6211 0.9219,0.6211 1.8984,-0.0039 3.7968,-0.0078 5.6953,-0.0156 5.3008,-0.0117 10.6015,-0.0234 15.9062,-0.0312 5.336,-0.0118 10.6758,-0.0274 16.0157,-0.0352 5.3515,-0.0117 10.7031,-0.0234 16.0546,-0.0352 5.4375,-0.0117 10.879,-0.0234 16.3165,-0.039 5.4414,-0.0117 10.8828,-0.0235 16.3242,-0.0352 5.289,-0.0078 10.582,-0.0234 15.875,-0.0351 5.1367,-0.0078 10.2734,-0.0196 15.4101,-0.0313 2.9414,-0.0039 5.8868,-0.0078 8.8321,-0.0195 0.0039,0 0.0078,0 0.0156,0 0.2344,0 0.4687,0 0.707,0 0.1485,0 0.2969,-0.0039 0.4453,-0.0039 0.1055,0 0.2071,-0.0156 0.3008,-0.0469 0.0469,-0.0156 0.0938,-0.0352 0.1406,-0.0586 0.0469,-0.0234 0.086,-0.0469 0.1289,-0.0781 0.0274,-0.0117 0.0508,-0.0313 0.0743,-0.0547 0.0156,-0.0039 0.0234,-0.0117 0.0312,-0.0234 0.0234,-0.0235 0.043,-0.043 0.0664,-0.0664 0,0 0.0039,0 0.0039,0 0.0235,-0.0274 0.0469,-0.0586 0.0703,-0.0899 0.1055,0.0391 0.2227,0.0625 0.3438,0.0625 0.0039,0 0.0078,0 0.0078,0 0.0352,0 0.0703,0 0.1055,-0.0078 0.039,-0.0039 0.0781,-0.0078 0.1133,-0.0195 0.1054,-0.0235 0.207,-0.0664 0.2968,-0.1211 0.0313,-0.0196 0.0625,-0.0391 0.0899,-0.0625 0,0 0.0039,0 0.0039,0 0.0234,-0.0196 0.0508,-0.0391 0.0742,-0.0664 0,0 0.0039,0 0.0039,0 C -0.2773,0.6914 -0.2461,0.6602 -0.2187,0.6211 -0.1914,0.5859 -0.1641,0.5469 -0.1406,0.5078 -0.125,0.4844 -0.1094,0.457 -0.1016,0.4336 -0.0742,0.3789 -0.0508,0.3242 -0.0391,0.2695 -0.0312,0.2461 -0.0234,0.2187 -0.0156,0.1953 -0.0078,0.1328 0,0.0664 0,0 Z M 6.2383,8.9453 C 5.332,8.9414 4.4219,8.9375 3.5156,8.9336 c -0.0312,0 -0.0586,0 -0.0859,0.0039 C 1.5703,8.9297 -0.2852,8.9219 -2.1406,8.9141 -9.4258,8.8867 -16.7148,8.8633 -24,8.8398 -31.8438,8.8086 -39.6875,8.7852 -47.5313,8.7578 c -8.039,-0.0273 -16.082,-0.0586 -24.125,-0.082 -8.082,-0.0274 -16.164,-0.0586 -24.25,-0.086 -8.0585,-0.0273 -16.121,-0.0546 -24.1796,-0.082 -6.25,-0.0195 -12.5039,-0.0625 -18.7539,-0.0664 0,-0.2969 0.004,-0.5898 0.004,-0.8867 0.004,-0.8008 0.004,-1.6016 0.008,-2.3985 0,-0.0039 0,-0.0039 0,-0.0078 0.0195,-5.7148 0.039,-11.4336 0.0586,-17.1484 0.0195,-6.4766 0.0429,-12.9492 0.0625,-19.4258 0.0234,-6.8476 0.0468,-13.6953 0.0664,-20.539 0.0234,-6.9454 0.0469,-13.8868 0.0703,-20.8321 0.0156,-4.9297 0.0391,-9.8594 0.0508,-14.789 5.7304,-0.0313 11.4609,-0.0625 17.1953,-0.0899 7.8515,-0.043 15.7031,-0.082 23.5586,-0.125 7.9218,-0.039 15.8398,-0.082 23.7617,-0.1211 7.9297,-0.0429 15.8555,-0.082 23.7812,-0.125 7.8789,-0.039 15.7539,-0.082 23.6289,-0.1211 7.5352,-0.0429 15.0704,-0.082 22.6055,-0.1211 3.1914,-0.0156 6.3867,-0.0312 9.582,-0.0468 -0.0078,0.0586 -0.0078,0.1171 -0.0078,0.1796 0.0118,0.7852 0.0118,1.5743 0.0157,2.3594 0.0468,6.8672 0.0937,13.7383 0.1406,20.6055 0.0508,7.3398 0.0976,14.6797 0.1484,22.0195 0.0469,6.9805 0.0938,13.961 0.1406,20.9414 0.043,6.875 0.0899,13.7461 0.1368,20.6172 0.0234,3.5196 0.039,7.043 0.0703,10.5586 z"/>
      </g>
      <g transform="translate(495.8375,141.7851)" id="g38">
        <path id="path40" style="fill:#d9d9d1;fill-opacity:1;fill-rule:nonzero;stroke:none" d="m 0,0 c 0.0547,-2.7773 0.0586,-5.5508 0.0586,-8.332 0,-1.4805 -0.0078,-2.9649 -0.0039,-4.4453 0.539,-0.0039 1.082,-0.0196 1.6211,-0.0274 0.4219,-0.0078 0.8398,-0.0117 1.2578,-0.0195 0.293,0.1797 0.6328,0.2812 0.9922,0.2812 0.0156,0 0.0312,0 0.0469,-0.0039 0.1679,0 0.3398,0 0.5078,0 0.0312,0 0.0625,-0.0039 0.0937,-0.0039 7.2969,-0.0351 14.5899,-0.0703 21.8867,-0.1015 7.7539,-0.0352 15.5079,-0.0743 23.2618,-0.1094 7.8164,-0.0391 15.6289,-0.0742 23.4453,-0.1133 7.6758,-0.0352 15.3515,-0.0703 23.0234,-0.1094 7.793,-0.0351 15.5859,-0.0703 23.3789,-0.1093 7.1992,-0.0352 14.3984,-0.0704 21.6016,-0.1016 4.2422,-0.0195 8.4883,-0.0352 12.7343,-0.0625 0.1407,0 0.2774,-0.0156 0.4102,-0.043 0.5781,-0.0117 1.1641,-0.0703 1.7305,-0.1015 1.082,-0.0586 2.164,-0.1016 3.25,-0.0938 0.1484,0 0.2929,-0.0156 0.4297,-0.0469 0.2695,0 0.5351,0 0.8046,0.0039 0.0782,2.4219 0.1524,4.8438 0.2305,7.2696 0.0625,2.0547 0.1289,4.1093 0.1953,6.164 -0.0937,-0.0195 -0.1953,-0.0273 -0.2968,-0.0273 -0.9102,0.0039 -1.8204,0.0078 -2.7305,0.0117 -0.0352,0 -0.0703,0 -0.1055,0.0039 -1.1953,0.0039 -2.3906,0.0117 -3.582,0.0156 -6.9492,0.0352 -13.8985,0.0743 -20.8477,0.1094 -7.7461,0.043 -15.4922,0.082 -23.2382,0.1211 -7.9141,0.043 -15.8243,0.082 -23.7344,0.125 -7.9688,0.043 -15.9375,0.082 -23.9063,0.125 C 54.6641,0.418 46.8125,0.4609 38.9609,0.5 31.1992,0.543 23.4375,0.582 15.6758,0.6211 10.4492,0.6484 5.2187,0.7031 -0.0117,0.707 -0.0078,0.4727 -0.0039,0.2344 0,0 Z"/>
      </g>
      <g transform="translate(638.2734,119.5977)" id="g42">
        <path id="path44" style="fill:#000000;fill-opacity:1;fill-rule:nonzero;stroke:none" d="m 0,0 c 0.0273,0.25 0.0039,0.4687 -0.0664,0.6562 -0.0352,0.1055 -0.0898,0.1993 -0.1523,0.2852 -0.5235,0.7227 -1.875,0.8867 -3.2774,0.8867 -0.2969,0 -0.5937,-0.0078 -0.8867,-0.0195 C -4.6758,1.8008 -4.9609,1.7852 -5.2383,1.7695 -5.8984,1.7344 -6.4883,1.6992 -6.9062,1.7148 -6.9727,1.7188 -7.0352,1.7227 -7.0937,1.7266 -32.8945,0.3203 -58.75,-0.3437 -84.5859,0.5 c -12.2266,0.3477 -24.4571,1.1211 -36.6954,0.7969 -0.7617,-0.0586 -1.3984,-0.4063 -1.9335,-0.9649 -1.1719,-1.2343 -1.8399,-3.5039 -2.2461,-5.9882 -0.586,-3.6133 -0.6172,-7.6758 -0.836,-9.6641 0.0625,-0.2617 0.1055,-0.5234 0.2031,-0.8008 0.3165,-0.1875 0.8438,-0.1328 1.2266,-0.2461 27.0039,-0.8789 54.0156,-0.4766 81.0274,-0.0898 13.5625,0.1445 27.1171,1.2109 40.6601,1.3515 C -0.1367,-14.2109 -0.2344,-3 0,0 Z"/>
      </g>
      <g transform="translate(473.8622,95.7303)" id="g46">
        <path id="path48" style="fill:#feffe2;fill-opacity:1;fill-rule:nonzero;stroke:none" d="M 0,0 C 0.0039,-0.2773 0.2344,-0.4922 0.5078,-0.4922 0.7812,-0.4922 1.0039,-0.2539 1,0.0156 0.9961,0.293 0.7656,0.5078 0.4922,0.5078 0.2187,0.5078 -0.0039,0.2695 0,0 Z"/>
      </g>
      <g transform="translate(638.207,120.2539)" id="g50">
        <path id="path52" style="fill:#949492;fill-opacity:1;fill-rule:nonzero;stroke:none" d="m 0,0 c 0.0703,-0.1875 0.0937,-0.4062 0.0664,-0.6562 -0.2344,-3 -0.1367,-14.211 -3.1797,-15.1055 -13.543,-0.1406 -27.0976,-1.2071 -40.6601,-1.3516 -27.0118,-0.3867 -54.0235,-0.789 -81.0274,0.0899 -0.3828,0.1132 -0.9101,0.0586 -1.2265,0.2461 0,0 -0.004,0 -0.004,0 -0.0976,0.2773 -0.1406,0.539 -0.2031,0.8007 0.2149,1.9883 0.25,6.0508 0.8399,9.6641 0.4023,2.4844 1.0742,4.7578 2.2461,5.9883 0.5351,0.5586 1.1718,0.9062 1.9336,0.9648 12.2382,0.3242 24.4687,-0.4492 36.6953,-0.7968 25.8359,-0.8438 51.6914,-0.1797 77.4922,1.2265 0.0586,-0.0039 0.1211,-0.0078 0.1875,-0.0117 0.4179,-0.0156 1.0078,0.0195 1.6679,0.0547 0.2774,0.0156 0.5625,0.0273 0.8555,0.039 0.293,0.0118 0.5898,0.0196 0.8867,0.0196 1.4024,0 2.7539,-0.1641 3.2774,-0.8867 C -0.0859,0.1992 -0.0352,0.1055 0,0 Z m 9.5508,4.0586 c -0.0039,0.0742 0,0.1445 0,0.2187 C 7.8594,4.2852 6.1719,4.293 4.4805,4.3008 2.5039,4.3125 0.5273,4.3242 -1.4492,4.332 c -7.2227,0.0352 -14.4492,0.0703 -21.6719,0.1016 -7.8242,0.0391 -15.6484,0.0742 -23.4727,0.1133 -7.625,0.0351 -15.2539,0.0703 -22.8789,0.1093 -7.8554,0.0352 -15.7148,0.0743 -23.5703,0.1094 -7.7539,0.0391 -15.5039,0.0742 -23.2578,0.1133 -5.3594,0.0234 -10.7109,0.0469 -16.0664,0.0742 -1.1523,0.0039 -2.3008,0.0117 -3.4492,0.0156 0.004,-1.539 0.0117,-3.0703 0.0195,-4.6054 0,-0.711 0.004,-1.418 0.008,-2.125 0.004,-0.8438 0.008,-1.6836 0.0118,-2.5274 0,0 0,-0.0039 0,-0.0039 0.0195,-4.4257 0.039,-8.8476 0.0546,-13.2734 0.008,-1.625 0.0157,-3.2539 0.0196,-4.8828 5.5195,0.0078 11.0351,0.0156 16.5547,0.0273 7.3515,0.0117 14.7031,0.0235 22.0546,0.0352 7.4336,0.0117 14.8633,0.0234 22.293,0.0351 7.9414,0.0157 15.8828,0.0274 23.8242,0.0391 7.8086,0.0117 15.6172,0.0234 23.4258,0.0391 7.9024,0.0117 15.8047,0.0234 23.7071,0.0351 4.414,0.0078 8.8203,0.0195 13.2304,0.0235 0.0039,0.3906 0.0039,0.7812 0.0078,1.1757 0.0235,3.336 0.043,6.6719 0.0625,10.0118 0.0196,3.0898 0.0391,6.1836 0.0586,9.2734 0.0078,1.0078 0.0117,2.0117 0.0156,3.0195 0.004,0.9297 0.0118,1.8633 0.0196,2.793 z"/>
      </g>
      <g transform="translate(626.3511,250.4874)" id="g54">
        <path id="path56" style="fill:#000000;fill-opacity:1;fill-rule:nonzero;stroke:none" d="M 0,0 C -0.0018,0.0027 -0.0036,0.0054 -0.0054,0.0081 -0.008,0.0115 -0.0106,0.0148 -0.0132,0.0182 -0.0098,0.0111 -0.0051,0.0053 0,0 Z"/>
      </g>
      <g transform="translate(521.2555,250.4956)" id="g58">
        <path id="path60" style="fill:#000000;fill-opacity:1;fill-rule:nonzero;stroke:none" d="M 0,0 C -0.0018,-0.0027 -0.0036,-0.0054 -0.0054,-0.0081 -3e-4,-0.0028 0.0044,0.0029 0.0078,0.01 0.0052,0.0067 0.0026,0.0034 0,0 Z"/>
      </g>
      <g transform="translate(521.1582,250.3446)" id="g62">
        <path id="path64" style="fill:#000000;fill-opacity:1;fill-rule:nonzero;stroke:none" d="M 0,0 C -2e-4,-4e-4 -4e-4,-7e-4 -6e-4,-0.0011 0.0018,0.0025 0.0044,0.0063 0.0067,0.0108 0.0045,0.0072 0.0022,0.0036 0,0 Z"/>
      </g>
      <g transform="translate(627.4412,248.4206)" id="g66">
        <path id="path68" style="fill:#000000;fill-opacity:1;fill-rule:nonzero;stroke:none" d="M 0,0 C 0,0.0061 -0.0011,0.0123 -0.0021,0.0184 -0.0014,0.0123 -7e-4,0.0061 0,0 Z"/>
      </g>
      <g transform="translate(520.16,248.4206)" id="g70">
        <path id="path72" style="fill:#000000;fill-opacity:1;fill-rule:nonzero;stroke:none" d="M 0,0 C 7e-4,0.0061 0.0014,0.0123 0.0021,0.0184 0.001,0.0123 0,0.0061 0,0 Z"/>
      </g>
      <g transform="translate(626.9482,248.3455)" id="g74">
        <path id="path76" style="fill:#000000;fill-opacity:1;fill-rule:nonzero;stroke:none" d="M 0,0 C -2e-4,0.0025 -5e-4,0.005 -7e-4,0.0075 -0.0015,0.013 -0.0023,0.0185 -0.0031,0.024 -0.0029,0.016 -0.0022,0.008 0,0 Z"/>
      </g>
      <g transform="translate(520.6536,248.353)" id="g78">
        <path id="path80" style="fill:#000000;fill-opacity:1;fill-rule:nonzero;stroke:none" d="M 0,0 C -2e-4,-0.0025 -5e-4,-0.005 -7e-4,-0.0075 0.0015,5e-4 0.0022,0.0085 0.0024,0.0164 0.0016,0.011 8e-4,0.0055 0,0 Z"/>
      </g>
      <g transform="translate(615.1429,250.3348)" id="g82">
        <path id="path84" style="fill:#000000;fill-opacity:1;fill-rule:nonzero;stroke:none" d="M 0,0 C -0.0074,0.0013 -0.0146,0.0025 -0.022,0.0038 -0.0136,0.001 -0.0073,2e-4 0,0 Z"/>
      </g>
      <g transform="translate(532.4583,250.3348)" id="g86">
        <path id="path88" style="fill:#000000;fill-opacity:1;fill-rule:nonzero;stroke:none" d="M 0,0 C 0.0072,2e-4 0.0136,0.001 0.022,0.0038 0.0146,0.0025 0.0073,0.0013 0,0 Z"/>
      </g>
      <g transform="translate(621.3631,247.4363)" id="g90">
        <path id="path92" style="fill:#000000;fill-opacity:1;fill-rule:nonzero;stroke:none" d="M 0,0 C -0.0034,0.0058 -0.0067,0.0115 -0.01,0.0172 -0.0074,0.0118 -0.0043,0.0065 0,0 Z"/>
      </g>
      <g transform="translate(526.2381,247.4363)" id="g94">
        <path id="path96" style="fill:#000000;fill-opacity:1;fill-rule:nonzero;stroke:none" d="M 0,0 C 0.0043,0.0065 0.0074,0.0118 0.01,0.0172 0.0067,0.0115 0.0033,0.0058 0,0 Z"/>
      </g>
      <g transform="translate(626.9398,247.6961)" id="g98">
        <path id="path100" style="fill:#000000;fill-opacity:1;fill-rule:nonzero;stroke:none" d="M 0,0 C -6e-4,0.0016 -0.0014,0.003 -0.0024,0.0041 -0.0012,0.0015 -4e-4,4e-4 0,0 Z"/>
      </g>
      <g transform="translate(520.6639,247.7002)" id="g102">
        <path id="path104" style="fill:#000000;fill-opacity:1;fill-rule:nonzero;stroke:none" d="M 0,0 C -0.0039,-0.0078 0,-0.0039 0,0 Z"/>
      </g>
      <g transform="translate(626.9345,247.705)" id="g106">
        <path id="path108" style="fill:#000000;fill-opacity:1;fill-rule:nonzero;stroke:none" d="M 0,0 C 0,0 0,0 0,1e-4 -0.0015,0.0016 -0.0031,0.0033 -0.005,0.0051 -0.0033,0.0034 -0.0016,0.0017 0,0 Z"/>
      </g>
      <g transform="translate(520.6667,247.705)" id="g110">
        <path id="path112" style="fill:#000000;fill-opacity:1;fill-rule:nonzero;stroke:none" d="M 0,0 C -1e-4,0 -1e-4,-1e-4 -1e-4,-1e-4 0.0016,0.0017 0.0033,0.0034 0.005,0.0051 0.0031,0.0032 0.0015,0.0015 0,0 Z"/>
      </g>
      <g transform="translate(626.9354,247.7041)" id="g114">
        <path id="path116" style="fill:#000000;fill-opacity:1;fill-rule:nonzero;stroke:none" d="m 0,0 c 0,0 1e-4,-1e-4 1e-4,-1e-4 1e-4,-4e-4 3e-4,-9e-4 4e-4,-5e-4 7e-4,-7e-4 0.0012,-0.0014 0.0015,-0.0016 C 0.0015,-0.0017 0.001,-0.0011 5e-4,-6e-4 4e-4,-2e-4 2e-4,2e-4 -4e-4,0.0012 -2e-4,8e-4 -1e-4,3e-4 1e-4,-1e-4 Z"/>
      </g>
      <g transform="translate(520.6653,247.7036)" id="g118">
        <path id="path120" style="fill:#000000;fill-opacity:1;fill-rule:nonzero;stroke:none" d="M 0,0 C -5e-4,-6e-4 -0.001,-0.0011 -0.0018,-0.0022 -0.0012,-0.0015 -6e-4,-7e-4 0,-1e-4 -2e-4,-7e-4 -4e-4,-0.0013 0,-8e-4 1e-4,-4e-4 3e-4,0 4e-4,5e-4 c 2e-4,4e-4 3e-4,8e-4 5e-4,0.0013 -2e-4,-2e-4 -3e-4,-4e-4 -4e-4,-6e-4 z"/>
      </g>
      <g transform="translate(626.9377,247.6974)" id="g122">
        <path id="path124" style="fill:#000000;fill-opacity:1;fill-rule:nonzero;stroke:none" d="m 0,0 c -6e-4,0.0018 -0.0013,0.0035 -0.0019,0.0053 -3e-4,6e-4 -5e-4,0.0012 -8e-4,0.0017 -2e-4,2e-4 -4e-4,4e-4 -5e-4,6e-4 C -0.0021,0.0051 -0.0011,0.0026 0,0 Z"/>
      </g>
      <g transform="translate(520.6661,247.7044)" id="g126">
        <path id="path128" style="fill:#000000;fill-opacity:1;fill-rule:nonzero;stroke:none" d="M 0,0 C -3e-4,-5e-4 -5e-4,-0.0012 -9e-4,-0.0017 -0.0015,-0.0035 -0.0021,-0.0053 -0.0027,-0.007 -0.0016,-0.0045 -5e-4,-0.002 5e-4,5e-4 3e-4,4e-4 1e-4,2e-4 0,0 Z"/>
      </g>
      <g transform="translate(626.9351,247.7044)" id="g130">
        <path id="path132" style="fill:#000000;fill-opacity:1;fill-rule:nonzero;stroke:none" d="M 0,0 C 1e-4,-1e-4 1e-4,-1e-4 2e-4,-2e-4 1e-4,-1e-4 1e-4,0 0,0 0,0 0,0 0,0 Z"/>
      </g>
      <g transform="translate(520.6659,247.7042)" id="g134">
        <path id="path136" style="fill:#000000;fill-opacity:1;fill-rule:nonzero;stroke:none" d="m 0,0 c 1e-4,1e-4 2e-4,1e-4 2e-4,2e-4 0,0 0,0 0,0 C 2e-4,2e-4 1e-4,1e-4 0,0 Z"/>
      </g>
      <g transform="translate(626.9354,247.7041)" id="g138">
        <path id="path140" style="fill:#000000;fill-opacity:1;fill-rule:nonzero;stroke:none" d="M 0,0 C -1e-4,0 -1e-4,1e-4 -1e-4,1e-4 -1e-4,1e-4 -1e-4,0 0,0 Z"/>
      </g>
      <g transform="translate(520.6658,247.7041)" id="g142">
        <path id="path144" style="fill:#000000;fill-opacity:1;fill-rule:nonzero;stroke:none" d="M 0,0 C 0,0 1e-4,1e-4 1e-4,1e-4 1e-4,1e-4 0,0 0,0 Z"/>
      </g>
      <g transform="translate(626.9449,247.6794)" id="g146">
        <path id="path148" style="fill:#000000;fill-opacity:1;fill-rule:nonzero;stroke:none" d="M 0,0 C -1e-4,3e-4 -2e-4,6e-4 -3e-4,9e-4 -0.0021,0.0061 -0.0046,0.012 -0.0071,0.0179 -0.0048,0.0111 -0.0024,0.0049 0,0 Z"/>
      </g>
      <g transform="translate(520.6566,247.6803)" id="g150">
        <path id="path152" style="fill:#000000;fill-opacity:1;fill-rule:nonzero;stroke:none" d="M 0,0 C -1e-4,-3e-4 -2e-4,-6e-4 -3e-4,-9e-4 0.0021,0.004 0.0045,0.0103 0.0068,0.0171 0.0043,0.0111 0.0018,0.0052 0,0 Z"/>
      </g>
      <g transform="translate(626.9651,247.6088)" id="g154">
        <path id="path156" style="fill:#000000;fill-opacity:1;fill-rule:nonzero;stroke:none" d="M 0,0 C -0.0011,0.006 -0.0021,0.0126 -0.0043,0.0193 -0.0028,0.0129 -0.0015,0.0064 0,0 Z"/>
      </g>
      <g transform="translate(520.636,247.6088)" id="g158">
        <path id="path160" style="fill:#000000;fill-opacity:1;fill-rule:nonzero;stroke:none" d="M 0,0 C 0.0015,0.0064 0.0029,0.0129 0.0044,0.0193 0.0021,0.0126 0.0012,0.006 0,0 Z"/>
      </g>
      <g transform="translate(626.9665,247.6026)" id="g162">
        <path id="path164" style="fill:#000000;fill-opacity:1;fill-rule:nonzero;stroke:none" d="M 0,0 C -5e-4,0.0021 -9e-4,0.0041 -0.0014,0.0062 -0.001,0.004 -5e-4,0.0019 0,0 Z"/>
      </g>
      <g transform="translate(520.6346,247.6026)" id="g166">
        <path id="path168" style="fill:#000000;fill-opacity:1;fill-rule:nonzero;stroke:none" d="M 0,0 C 5e-4,0.0019 0.001,0.004 0.0014,0.0062 9e-4,0.0041 5e-4,0.0021 0,0 Z"/>
      </g>
      <g transform="translate(525.8318,246.584)" id="g170">
        <path id="path172" style="fill:#000000;fill-opacity:1;fill-rule:nonzero;stroke:none" d="M 0,0 C 0,0.0117 0,0.0234 0,0.0352 0,0.0237 0,0.0122 0,0 Z"/>
      </g>
      <g transform="translate(627.0352,247.1797)" id="g174">
        <path id="path176" style="fill:#d9d9d1;fill-opacity:1;fill-rule:nonzero;stroke:none" d="m 0,0 c 0,0.0039 0,0.0039 0,0.0078 -0.0039,0.0039 -0.0039,0.0117 -0.0039,0.0156 -0.0156,0.1368 -0.0352,0.2696 -0.0664,0.3985 0,0.0039 0,0.0039 0,0.0078 0,0.0039 -0.0039,0.0117 -0.0039,0.0195 -0.0039,0.0039 -0.0039,0.0078 -0.0039,0.0117 0,0.0118 -0.0078,0.0235 -0.0117,0.0391 -0.0039,0.0078 -0.0039,0.0117 -0.0039,0.0156 0,0 0,0.0039 0,0.0039 0,0 -0.004,0 -0.004,0 0,0.0039 0,0.0039 0,0.0039 0,0 -0.0039,0.0039 -0.0039,0.0039 0,0 -0.0039,0.0039 -0.0039,0.0039 -0.0664,0.1055 -0.0586,0.2461 0.0469,0.3321 -0.0039,0.0312 -0.0078,0.0664 -0.0078,0.0976 0,0 0,0.0039 0,0.0039 0,0.0196 -0.0039,0.0391 -0.0078,0.0625 0,0.0235 0,0.0469 -0.0039,0.0704 -0.0039,0.0234 -0.0039,0.0468 -0.0078,0.0703 0,0 0,0.0039 0,0.0039 0,0 -0.0039,0 -0.0039,0.0039 0,0.0039 0,0.0117 0,0.0156 0,0.0039 0,0.0039 0,0.0078 0,0 -0.0039,0.0117 -0.0039,0.0196 -0.043,0.371 -0.0938,0.746 -0.1836,1.1171 -0.0196,0.0782 -0.043,0.1563 -0.0664,0.2305 -0.0274,0.0781 -0.0508,0.1523 -0.0821,0.2305 -0.0469,0.125 -0.1015,0.25 -0.1679,0.3672 0,0 0,0.0039 0,0.0039 0,0.0039 -0.004,0.0117 -0.0079,0.0156 -0.0234,0.0391 -0.0546,0.082 -0.082,0.125 0,0 -0.0039,0.0039 -0.0039,0.0078 0,0 -0.0039,0 -0.0039,0 C -0.6953,3.3203 -0.6953,3.3281 -0.6992,3.332 -0.75,3.3945 -0.8047,3.457 -0.8633,3.5195 -0.9023,3.5586 -0.9414,3.5937 -0.9844,3.6289 -1.0977,3.7148 -1.2188,3.7969 -1.3438,3.875 -1.7344,4.1055 -2.1367,4.3164 -2.5508,4.5039 -2.918,4.668 -3.3125,4.8086 -3.7148,4.9336 -4.625,5.1992 -5.5977,5.3828 -6.5664,5.5391 -7.1289,5.6289 -7.7266,5.7109 -8.3281,5.7656 -8.875,5.8164 -9.4219,5.832 -9.9687,5.8477 c -0.8165,0.0195 -1.668,0.0273 -2.5196,0.0546 -0.8633,0.0313 -1.7304,0.0664 -2.5976,0.0938 -0.8985,0.0312 -1.8008,0.0703 -2.7032,0.1094 -0.8632,0.0351 -1.7304,0.0625 -2.5976,0.0859 -1.9336,0.043 -3.8985,0.0273 -5.8672,0.0898 -2,0.0625 -4.0039,0.1524 -6.0039,0.2266 -0.7383,0.0234 -1.4688,0.0469 -2.207,0.0664 -1.8321,0.043 -3.6836,0.0899 -5.5391,0.1133 -1.7891,0.0234 -3.5781,0.0352 -5.3672,0.0391 -1.5234,0.0039 -3.0508,0.0039 -4.5742,0.0117 -1.0938,0.0078 -2.1914,0.0195 -3.2891,0.0195 -1.0976,0 -2.1953,-0.0117 -3.289,-0.0195 -1.5235,-0.0078 -3.0508,-0.0078 -4.5743,-0.0117 -1.789,-0.0039 -3.5781,-0.0157 -5.3671,-0.0391 -1.8555,-0.0234 -3.7071,-0.0703 -5.5586,-0.1172 -0.7188,-0.0156 -1.4493,-0.0391 -2.1875,-0.0625 -2,-0.0742 -4.0039,-0.1641 -6.0039,-0.2266 C -82.1836,6.2187 -84.1484,6.2344 -86.1172,6.1914 -86.9492,6.168 -87.8164,6.1406 -88.6797,6.1055 -89.582,6.0664 -90.4844,6.0273 -91.3828,5.9961 -92.25,5.9687 -93.1172,5.9336 -93.9805,5.9023 -94.832,5.875 -95.6836,5.8672 -96.5313,5.8477 -97.0469,5.832 -97.5938,5.8164 -98.1406,5.7656 c -0.6016,-0.0547 -1.1992,-0.1367 -1.7969,-0.2304 -0.9336,-0.1524 -1.9063,-0.336 -2.8477,-0.6094 -0.3711,-0.1172 -0.7656,-0.2578 -1.1484,-0.4297 -0.3984,-0.1797 -0.8008,-0.3906 -1.1914,-0.6211 -0.125,-0.0781 -0.2461,-0.1602 -0.3594,-0.2461 -0.004,0 -0.004,0 -0.004,0 -0.0195,-0.0195 -0.039,-0.0352 -0.0586,-0.0547 -0.0195,-0.0195 -0.039,-0.0351 -0.0586,-0.0547 -0.0625,-0.0625 -0.1172,-0.125 -0.1679,-0.1914 0,0 0,0 -0.004,-0.0039 0,-0.0078 0,-0.0078 -0.004,-0.0078 0,-0.0039 -0.004,-0.0078 -0.008,-0.0117 -0.0234,-0.0391 -0.0547,-0.082 -0.082,-0.1289 0,0 -0.004,-0.0039 -0.004,-0.0078 -0.004,-0.0039 -0.004,-0.0039 -0.004,-0.0039 -0.0625,-0.1172 -0.1172,-0.2422 -0.168,-0.3672 -0.0547,-0.1524 -0.1054,-0.3047 -0.1445,-0.461 -0.0899,-0.3711 -0.1406,-0.7461 -0.1836,-1.125 0,0 -0.004,-0.0117 -0.004,-0.0195 0,0 0,-0.0078 -0.004,-0.0156 0,-0.0039 0,-0.0039 0,-0.0078 0,0 0,-0.0039 0,-0.0039 0,-0.0078 0,-0.0118 0,-0.0196 -0.008,-0.0625 -0.0156,-0.1211 -0.0195,-0.1836 0,-0.0039 -0.004,-0.0078 -0.004,-0.0117 0,-0.0273 -0.004,-0.0586 -0.008,-0.0859 0,0 0.004,0 0.004,0 0.043,-0.0352 0.0704,-0.0821 0.0821,-0.1328 0.008,-0.043 0.004,-0.086 -0.004,-0.125 -0.008,-0.0274 -0.0196,-0.0508 -0.0352,-0.0743 0,0 -0.004,-0.0039 -0.004,-0.0039 0,0 0,-0.0039 0,-0.0039 0,0 0,0 0,-0.0039 0,0 0,0 -0.004,0 0,-0.0078 -0.004,-0.0117 -0.004,-0.0195 -0.0117,-0.0313 -0.0195,-0.0586 -0.0234,-0.082 -0.0274,-0.125 -0.0508,-0.2578 -0.0625,-0.3907 0,0 0,-0.0039 0,-0.0039 0,-0.0039 0,-0.0117 -0.004,-0.0156 0,-0.0039 0,-0.0039 0,-0.0078 0.0118,-0.0195 0.0196,-0.0391 0.0235,-0.0547 0.0117,-0.043 0.0117,-0.0898 0,-0.1328 -0.004,-0.0078 -0.008,-0.0156 -0.008,-0.0234 -0.004,-0.0118 -0.0117,-0.0274 -0.0235,-0.0391 -0.004,-0.0078 -0.008,-0.0117 -0.0117,-0.0195 -0.004,-0.0313 -0.004,-0.0625 -0.004,-0.0938 0,0 0,0 0,-0.0039 -0.004,-0.0547 -0.004,-0.1094 -0.004,-0.164 0,0 0,-0.0196 0,-0.0196 0.008,-0.0156 0.0156,-0.0351 0.0156,-0.0508 0.004,-0.0156 0.004,-0.0312 0.004,-0.0429 0,0 0.004,0 0.004,0 1.5196,0.0078 3.0352,0.0117 4.5547,0.0156 0,0 0.004,0 0.004,0 0.0703,0.0039 0.1407,0.0039 0.211,0 -0.004,0.0508 -0.004,0.1016 0,0.1484 0.004,0.086 0.0156,0.1719 0.0234,0.2578 0.004,0.0274 0.0117,0.0547 0.0234,0.0782 0,0.0039 0,0.0078 0.004,0.0117 0.008,0.0195 0.0195,0.0391 0.0351,0.0547 0.0117,0.0195 0.0313,0.039 0.0547,0.0508 0.0117,0.0078 0.0195,0.0156 0.0312,0.0195 0.004,0 0.004,0.0039 0.008,0.0039 0.0156,0.0078 0.0312,0.0117 0.0468,0.0117 0,0 0,0.0039 0,0.0039 0.004,0 0.004,0 0.008,0 0.0274,0.0586 0.0508,0.1172 0.0782,0.1758 0.0703,0.1523 0.1484,0.3086 0.2383,0.4492 0.1601,0.2539 0.3671,0.4766 0.5937,0.6719 0.1914,0.168 0.3906,0.3281 0.6016,0.4727 0.7187,0.496 1.5117,0.9023 2.3476,1.164 0.875,0.2734 1.7656,0.5039 2.6719,0.6563 0.918,0.1562 1.8437,0.2851 2.7695,0.414 0.9727,0.1328 1.9453,0.2539 2.9258,0.3321 1.0234,0.0859 2.0508,0.1484 3.082,0.1953 1.0118,0.0429 2.0274,0.0547 3.043,0.0586 0.9492,0.0039 1.8945,0.0039 2.8438,-0.0118 1.0586,-0.0195 2.1171,-0.0429 3.1757,-0.0664 1.9375,-0.0468 3.8711,-0.0976 5.8086,-0.1523 1.8282,-0.0508 3.6563,-0.1016 5.4844,-0.1289 1.7774,-0.0274 3.5586,-0.0625 5.3399,-0.0586 0.8281,0.0039 1.6601,0.0078 2.4921,0.0156 0.961,0.0078 1.9219,0.0117 2.8829,0.0352 0.1484,0.0039 0.3281,0.0117 0.5117,0.0195 0.0039,0 0.0039,0 0.0078,0 0.0117,0.0234 0.0273,0.0469 0.043,0.0586 0.0507,0.0586 0.1289,0.0937 0.2109,0.0859 0.3594,-0.0273 0.7187,-0.0507 1.082,-0.0742 0.3594,0.0235 0.7188,0.0469 1.0821,0.0742 0.1093,0.0078 0.207,-0.0507 0.25,-0.1445 0.1835,-0.0078 0.371,-0.0156 0.5546,-0.0195 0.9297,-0.0235 1.8907,-0.0274 2.8516,-0.0352 0.832,-0.0078 1.6641,-0.0117 2.4922,-0.0156 1.7812,-0.0039 3.5625,0.0312 5.3398,0.0586 1.8282,0.0273 3.6563,0.0781 5.4844,0.1289 1.9375,0.0547 3.8711,0.1055 5.8086,0.1523 1.0586,0.0235 2.1172,0.0469 3.1758,0.0664 0.6328,0.0118 1.2617,0.0157 1.8945,0.0157 0.3164,0 0.6328,-0.0039 0.9492,-0.0039 1.0157,-0.0039 2.0313,-0.0157 3.043,-0.0586 1.0313,-0.0469 2.0586,-0.1094 3.082,-0.1953 0.9805,-0.0782 1.9532,-0.1993 2.9258,-0.3321 0.9258,-0.1289 1.8516,-0.2578 2.7696,-0.414 0.9062,-0.1524 1.7968,-0.3829 2.6718,-0.6563 0.836,-0.2617 1.6289,-0.668 2.3477,-1.164 0.2109,-0.1446 0.4101,-0.3047 0.6015,-0.4727 0.2266,-0.1953 0.4336,-0.418 0.5938,-0.6719 0.0898,-0.1406 0.168,-0.2969 0.2383,-0.4492 C -5.0508,0.1289 -5.0273,0.0703 -5,0.0117 c 0.0039,0 0.0039,0 0.0078,0 0,0 0,-0.0039 0,-0.0039 0.0156,0 0.0313,-0.0039 0.0469,-0.0117 0.0039,0 0.0078,-0.0039 0.0117,-0.0039 0.0078,-0.0078 0.0195,-0.0117 0.0274,-0.0195 0.0234,-0.0118 0.0429,-0.0313 0.0546,-0.0508 0.0157,-0.0156 0.0274,-0.0352 0.0352,-0.0547 0.0039,-0.0039 0.0039,-0.0078 0.0039,-0.0117 0.0117,-0.0235 0.0195,-0.0508 0.0234,-0.0782 0,0 0,-0.0039 0,-0.0039 0.1172,0.0039 0.2305,0.0079 0.3477,0.0118 0.6836,0.0195 1.3711,0.0312 2.0742,0.0507 0.6484,-0.0039 1.2852,-0.0234 1.9258,-0.0312 0.1406,-0.0039 0.2812,-0.0039 0.4219,-0.0039 0,0.0039 -0.0039,0.0078 -0.0039,0.0117 -0.0118,0.043 -0.0118,0.0898 0,0.1328 C -0.0195,-0.0391 -0.0117,-0.0195 0,0 Z"/>
      </g>
      <g transform="translate(574.5935,252.0476)" id="g178">
        <path id="path180" style="fill:#d9d9d1;fill-opacity:1;fill-rule:nonzero;stroke:none" d="m 0,0 c -0.526,-0.1091 -1.3909,0.1288 -1.7742,-0.097 -0.2829,0.0117 -0.8997,-0.0229 -0.6242,-0.4463 0.2869,-0.1833 1.1947,0.0183 1.6055,-0.007 0.4671,0.0267 1.2427,-0.1788 1.6055,0.0071 C 1.0872,-0.1198 0.4717,-0.0855 0.1883,-0.097 0.144,-0.0385 0.0759,0.0021 0,0 Z"/>
      </g>
      <g transform="translate(525.0701,247.3805)" id="g182">
        <path id="path184" style="fill:#d9d9d1;fill-opacity:1;fill-rule:nonzero;stroke:none" d="m 0,0 c -6e-4,-0.0191 0.0016,-0.0382 0.0057,-0.057 -0.003,-0.0147 -0.0062,-0.0295 -0.0099,-0.0441 0,-7e-4 -1e-4,-0.0013 -1e-4,-0.002 1e-4,5e-4 2e-4,0.001 4e-4,0.0015 -2e-4,-5e-4 -3e-4,-0.001 -4e-4,-0.0016 -6e-4,-0.0054 -0.0017,-0.0111 -0.0044,-0.0209 5e-4,0.0027 10e-4,0.0055 0.0014,0.0082 0.0014,0.0041 0.0024,0.0082 0.001,0.0051 5e-4,0.0025 0.0012,0.005 0.0021,0.0096 -0.0012,-0.0047 -0.0025,-0.0092 -0.0037,-0.0138 0,6e-4 1e-4,0.0011 1e-4,0.0017 -5e-4,-0.0019 -7e-4,-0.0036 -0.0012,-0.0053 -9e-4,-0.0034 -0.0017,-0.0069 -0.0027,-0.0103 5e-4,0.0016 0.001,0.003 0.0016,0.0045 -6e-4,-0.003 -0.001,-0.006 -0.0014,-0.0089 -3e-4,-9e-4 -5e-4,-0.0017 -8e-4,-0.0026 0,-2e-4 0,-4e-4 0,-5e-4 2e-4,6e-4 4e-4,0.0012 6e-4,0.0018 -10e-5,-0.001 -3e-4,-0.0019 -4e-4,-0.0028 3e-4,0.001 6e-4,0.002 9e-4,0.0031 -10e-5,-3e-4 -10e-5,-5e-4 -10e-5,-8e-4 -2e-4,-6e-4 -3e-4,-0.0011 -4e-4,-0.0016 -2e-4,-6e-4 -4e-4,-0.0011 -6e-4,-0.0017 -8e-4,-0.0056 -0.0017,-0.0114 -0.0028,-0.0115 -8e-4,-0.0027 -0.0016,-0.0054 -0.0025,-0.0081 6e-4,0.0023 0.0011,0.0047 0.0014,0.0071 10e-5,4e-4 2e-4,8e-4 3e-4,0.0012 5e-4,0.0013 9e-4,0.0026 0.0013,0.0039 10e-5,4e-4 2e-4,8e-4 3e-4,0.0013 -5e-4,-0.0013 -9e-4,-0.0026 -0.0013,-0.0039 4e-4,0.0014 9e-4,0.0027 0.0023,0.0089 -7e-4,-0.0029 -0.0015,-0.0058 -0.0023,-0.0089 2e-4,0.0014 6e-4,0.0028 9e-4,0.0043 -4e-4,-0.0015 -9e-4,-0.003 -0.0013,-0.0044 10e-5,0.0013 4e-4,0.0025 4e-4,0.004 -9e-4,-0.0037 -0.0017,-0.0076 -0.0025,-0.0113 -5e-4,-0.0014 -9e-4,-0.0029 -0.0014,-0.0044 4e-4,0.0014 8e-4,0.0026 0.0013,0.0038 0,-2e-4 -10e-5,-4e-4 -2e-4,-6e-4 -0.0016,-0.0059 -0.0033,-0.012 -0.0024,-0.0112 -0.0108,-0.0495 -0.0195,-0.1007 -0.0261,-0.1524 0,0.0014 0,0.0028 0,0.0042 0,-0.0026 -2e-4,-0.0054 -5e-4,-0.0082 -5e-4,-0.0037 -9e-4,-0.0074 -0.0014,-0.011 -3e-4,-0.0021 -6e-4,-0.0042 -8e-4,-0.0063 -0.0064,-0.0414 -0.0142,-0.0846 -0.0207,-0.119 -7e-4,-0.0063 -0.0011,-0.0124 -0.0015,-0.0186 -8e-4,-0.0055 -0.0017,-0.011 -8e-4,-0.0102 -0.0011,-0.0184 -0.0014,-0.0367 -0.0016,-0.056 3e-4,-0.0235 0.003,-0.0444 0.0036,-0.0675 2e-4,-0.108 0.0596,-0.2069 0.1722,-0.2423 0.1211,-0.0429 0.2812,0.0274 0.3125,0.1602 0.0053,0.024 0.0088,0.0318 0.0117,0.0391 3e-4,0.0034 3e-4,0.0066 5e-4,0.0099 0.0012,0.0065 0.0023,0.0142 6e-4,0.013 0.0013,0.0342 -0.0011,0.0669 -0.0011,0.1021 0,0.0022 0,0.0046 0,0.007 0.0074,0.0497 0.0168,0.0995 0.0195,0.118 0,0 0.0039,0.0234 0.0039,0.0234 0.0033,0.0325 0.0092,0.0624 0.0156,0.0939 9e-4,0.0036 0.0018,0.0072 0.0026,0.0109 1e-4,5e-4 1e-4,9e-4 3e-4,0.0014 -4e-4,-8e-4 -7e-4,-0.0017 -9e-4,-0.0025 4e-4,0.0018 7e-4,0.0037 0.0011,0.0055 2e-4,5e-4 3e-4,9e-4 -0.0031,-0.0037 0.0017,0.005 0.0034,0.0101 0.0051,0.0151 8e-4,0.0024 0.0015,0.0048 0.0023,0.0071 6e-4,0.0017 0.0012,0.0034 0.0017,0.0048 -6e-4,-0.0018 -0.0011,-0.0035 -0.0016,-0.0052 10e-5,6e-4 2e-4,0.001 4e-4,0.0016 -2e-4,-5e-4 -3e-4,-0.0011 -5e-4,-0.0016 0,-10e-5 0,-3e-4 0,-4e-4 -2e-4,-7e-4 -5e-4,-0.0014 -6e-4,-0.002 -3e-4,-0.001 -5e-4,-0.0019 -8e-4,-0.0029 -3e-4,-0.001 -5e-4,-0.0021 -7e-4,-0.0031 -1e-4,-5e-4 -2e-4,-0.001 -3e-4,-0.0015 0,-2e-4 -10e-5,-4e-4 -2e-4,-5e-4 -2e-4,-0.0011 -2e-4,-0.002 -6e-4,-0.0052 3e-4,0.0015 7e-4,0.003 0.001,0.0046 4e-4,0.0014 8e-4,0.0028 -0.0013,-0.0069 0.0015,0.0044 0.0029,0.0093 0.0041,0.0144 0,-9e-4 -10e-5,-0.0018 -10e-5,-0.0027 9e-4,0.0036 0.0015,0.007 0.0021,0.0103 6e-4,0.0018 0.0012,0.0036 10e-5,2e-4 4e-4,0.0025 7e-4,0.0049 0.0011,0.0073 -10e-5,-3e-4 -2e-4,-6e-4 -3e-4,-9e-4 0,10e-5 0,10e-5 0,10e-5 10e-5,3e-4 2e-4,6e-4 3e-4,8e-4 0.0015,0.0045 0.0029,0.009 0.0012,0.0077 8e-4,0.0055 0.0017,0.0111 0.0028,0.0112 0.0254,0.1021 0.0431,0.2039 0.0046,0.3031 0,0 -2e-4,0 -2e-4,0 C 0.4492,0.168 0.3633,0.2422 0.2617,0.2422 0.125,0.2422 0.0078,0.1406 0,0 Z"/>
      </g>
      <g transform="translate(622.054,247.4763)" id="g186">
        <path id="path188" style="fill:#d9d9d1;fill-opacity:1;fill-rule:nonzero;stroke:none" d="M 0,0 C 0.0016,0.003 0.0032,0.0061 0.0044,0.0097 0.0027,0.0065 0.0015,0.0032 0,0 Z"/>
      </g>
      <g transform="translate(622.046,247.4626)" id="g190">
        <path id="path192" style="fill:#d9d9d1;fill-opacity:1;fill-rule:nonzero;stroke:none" d="M 0,0 C 2e-4,3e-4 4e-4,5e-4 6e-4,8e-4 0.0029,0.0049 0.0053,0.0088 0.0076,0.0129 0.0093,0.0166 0.0109,0.0203 0.0125,0.0233 0.0094,0.0173 0.0041,0.0089 0,0 Z"/>
      </g>
      <g transform="translate(525.5472,247.4763)" id="g194">
        <path id="path196" style="fill:#d9d9d1;fill-opacity:1;fill-rule:nonzero;stroke:none" d="M 0,0 C -0.0015,0.0032 -0.0028,0.0065 -0.0044,0.0097 -0.0032,0.0061 -0.0017,0.003 0,0 Z"/>
      </g>
      <g transform="translate(525.5476,247.4755)" id="g198">
        <path id="path200" style="fill:#d9d9d1;fill-opacity:1;fill-rule:nonzero;stroke:none" d="m 0,0 c 0.0023,-0.0041 0.0048,-0.008 0.007,-0.0121 1e-4,-3e-4 4e-4,-5e-4 6e-4,-8e-4 C 0.0035,-0.004 -0.0018,0.0044 -0.0048,0.0105 -0.0033,0.0074 -0.0017,0.0038 0,0 Z"/>
      </g>
      <g transform="translate(622.0535,247.4755)" id="g202">
        <path id="path204" style="fill:#d9d9d1;fill-opacity:1;fill-rule:nonzero;stroke:none" d="m 0,0 c -0.0019,-0.0041 -0.0042,-0.0083 -0.007,-0.0121 -8e-4,-0.0015 -0.0014,-0.0032 -0.0021,-0.0048 0.0015,0 0.0018,0 0.002,0 C -0.0048,-0.011 -0.0023,-0.0051 5e-4,8e-4 3e-4,5e-4 2e-4,3e-4 0,0 Z"/>
      </g>
      <g transform="translate(525.5547,247.4586)" id="g206">
        <path id="path208" style="fill:#d9d9d1;fill-opacity:1;fill-rule:nonzero;stroke:none" d="M 0,0 C 1e-4,0 4e-4,0 0.002,0 0.0013,0.0016 6e-4,0.0033 -2e-4,0.0048 c -0.0027,0.0038 -0.005,0.0079 -0.0069,0.0121 -2e-4,2e-4 -3e-4,5e-4 -5e-4,8e-4 C -0.0049,0.0118 -0.0023,0.0059 0,0 Z"/>
      </g>
      <g transform="translate(622.0428,247.4586)" id="g210">
        <path id="path212" style="fill:#d9d9d1;fill-opacity:1;fill-rule:nonzero;stroke:none" d="m 0,0 c 6e-4,0 0.0011,0 0.0016,0 5e-4,0.0013 0.001,0.0027 0.0016,0.004 C 0.0021,0.0026 0.0012,0.0012 0,0 Z"/>
      </g>
      <g transform="translate(525.5568,247.4586)" id="g214">
        <path id="path216" style="fill:#d9d9d1;fill-opacity:1;fill-rule:nonzero;stroke:none" d="M 0,0 C 4e-4,0 9e-4,0 0.0016,0 4e-4,0.0012 -6e-4,0.0026 -0.0016,0.004 -0.001,0.0027 -5e-4,0.0013 0,0 Z"/>
      </g>
      <g transform="translate(622.0444,247.4586)" id="g218">
        <path id="path220" style="fill:#d9d9d1;fill-opacity:1;fill-rule:nonzero;stroke:none" d="M 0,0 C -5e-4,-0.0013 -0.0012,-0.0026 -0.0016,-0.0039 -0.0012,-0.0025 -5e-4,-0.0013 1e-4,0 1e-4,0 0,0 0,0 Z"/>
      </g>
      <g transform="translate(525.5567,247.4586)" id="g222">
        <path id="path224" style="fill:#d9d9d1;fill-opacity:1;fill-rule:nonzero;stroke:none" d="M 0,0 C 5e-4,-0.0013 0.0012,-0.0025 0.0017,-0.0039 0.0013,-0.0026 6e-4,-0.0013 1e-4,0 c 0,0 0,0 -1e-4,0 z"/>
      </g>
      <g transform="translate(622.5352,247.2794)" id="g226">
        <path id="path228" style="fill:#d9d9d1;fill-opacity:1;fill-rule:nonzero;stroke:none" d="M 0,0 C 0,0 0,-1e-4 0,-1e-4 -1e-4,0.0011 -2e-4,0.0022 -2e-4,0.0034 -2e-4,0.0023 -1e-4,0.0011 0,0 Z"/>
      </g>
      <g transform="translate(525.0659,247.2793)" id="g230">
        <path id="path232" style="fill:#d9d9d1;fill-opacity:1;fill-rule:nonzero;stroke:none" d="M 0,0 C 0,0 0,1e-4 0,1e-4 1e-4,0.0013 3e-4,0.0024 3e-4,0.0035 3e-4,0.0023 1e-4,0.0012 0,0 Z"/>
      </g>
      <g transform="translate(622.5354,247.2773)" id="g234">
        <path id="path236" style="fill:#d9d9d1;fill-opacity:1;fill-rule:nonzero;stroke:none" d="m 0,0 c 0,-1e-4 0,-1e-4 0,-2e-4 0,0 0,0 0,0 C 0,-1e-4 0,0 0,0 0,0 0,0 0,0 Z"/>
      </g>
      <g transform="translate(525.0657,247.2772)" id="g238">
        <path id="path240" style="fill:#d9d9d1;fill-opacity:1;fill-rule:nonzero;stroke:none" d="m 0,0 c 0,0 0,0 0,0 0,0 1e-4,1e-4 1e-4,2e-4 0,0 0,0 0,0 C 1e-4,1e-4 0,1e-4 0,0 Z"/>
      </g>
      <g transform="translate(622.5077,247.27)" id="g242">
        <path id="path244" style="fill:#d9d9d1;fill-opacity:1;fill-rule:nonzero;stroke:none" d="M 0,0 C -1e-4,-5e-4 -1e-4,-0.0011 -1e-4,-0.0017 5e-4,0 0.0012,0.0017 0.0018,0.0034 0.0012,0.0022 5e-4,0.0011 0,0 Z"/>
      </g>
      <g transform="translate(525.0935,247.2683)" id="g246">
        <path id="path248" style="fill:#d9d9d1;fill-opacity:1;fill-rule:nonzero;stroke:none" d="M 0,0 C 0,5e-4 0,0.0011 0,0.0017 -6e-4,0.0028 -0.0012,0.0039 -0.0019,0.005 -0.0012,0.0033 -6e-4,0.0016 0,0 Z"/>
      </g>
      <g transform="translate(622.5432,247.2463)" id="g250">
        <path id="path252" style="fill:#d9d9d1;fill-opacity:1;fill-rule:nonzero;stroke:none" d="M 0,0 C -1e-4,5e-4 -2e-4,9e-4 -4e-4,0.0014 -2e-4,9e-4 -1e-4,4e-4 1e-4,-2e-4 c 0,-5e-4 0,-9e-4 0,-0.0014 1e-4,-10e-5 1e-4,-2e-4 1e-4,-2e-4 C 1e-4,-0.0013 1e-4,-8e-4 1e-4,-3e-4 9e-4,-0.0036 0.0018,-0.0068 0.0026,-0.0099 0.002,-0.0068 0.0012,-0.0036 1e-4,-2e-4 -1e-4,0.0016 -4e-4,0.0034 -4e-4,0.0053 -4e-4,0.0036 -1e-4,0.0018 0,0 Z"/>
      </g>
      <g transform="translate(525.0579,247.2461)" id="g254">
        <path id="path256" style="fill:#d9d9d1;fill-opacity:1;fill-rule:nonzero;stroke:none" d="m 0,0 c -0.001,-0.0035 -0.0019,-0.0067 -0.0025,-0.0097 9e-4,0.003 0.0016,0.0062 0.0025,0.0095 -1e-4,-5e-4 -1e-4,-0.001 -1e-4,-0.0015 0,10e-5 0,10e-5 0,2e-4 C 0,-0.001 0,-5e-4 1e-4,0 2e-4,5e-4 3e-4,0.001 5e-4,0.0016 3e-4,0.0011 2e-4,6e-4 1e-4,2e-4 2e-4,0.0019 5e-4,0.0037 5e-4,0.0055 5e-4,0.0035 2e-4,0.0018 0,0 Z"/>
      </g>
      <g transform="translate(622.5434,247.2439)" id="g258">
        <path id="path260" style="fill:#d9d9d1;fill-opacity:1;fill-rule:nonzero;stroke:none" d="M 0,0 C 2e-4,-8e-4 5e-4,-0.0014 7e-4,-0.0022 5e-4,-0.0013 2e-4,-4e-4 -1e-4,5e-4 0,4e-4 0,2e-4 0,0 Z"/>
      </g>
      <g transform="translate(525.057,247.2417)" id="g262">
        <path id="path264" style="fill:#d9d9d1;fill-opacity:1;fill-rule:nonzero;stroke:none" d="m 0,0 c 2e-4,8e-4 5e-4,0.0015 7e-4,0.0022 1e-4,2e-4 1e-4,4e-4 1e-4,6e-4 C 5e-4,0.0019 3e-4,9e-4 0,0 Z"/>
      </g>
      <g transform="translate(622.5439,247.2406)" id="g266">
        <path id="path268" style="fill:#d9d9d1;fill-opacity:1;fill-rule:nonzero;stroke:none" d="m 0,0 c -2e-4,8e-4 -5e-4,0.0016 1e-4,-5e-4 6e-4,-0.0032 0.0013,-0.0064 0.0022,-0.0096 -2e-4,0.0014 -3e-4,0.0028 -0.0014,0.0071 2e-4,-5e-4 4e-4,-0.0011 6e-4,-0.0017 0,1e-4 0,2e-4 -1e-4,3e-4 -2e-4,6e-4 -4e-4,0.0012 -6e-4,0.0019 C 3e-4,-6e-4 -2e-4,0.0013 -5e-4,0.0034 -4e-4,0.0023 -2e-4,0.0011 0,0 Z"/>
      </g>
      <g transform="translate(525.0577,247.2439)" id="g270">
        <path id="path272" style="fill:#d9d9d1;fill-opacity:1;fill-rule:nonzero;stroke:none" d="m 0,0 c -3e-4,-0.002 -8e-4,-0.0039 -0.0013,-0.0058 -2e-4,-6e-4 -4e-4,-0.0012 -6e-4,-0.0018 0,-1e-4 -1e-4,-2e-4 -1e-4,-3e-4 2e-4,6e-4 4e-4,0.0011 6e-4,0.0017 -2e-4,-0.001 -5e-4,-0.002 -0.0013,-0.0071 8e-4,0.0032 0.0016,0.0064 0.0022,0.0096 2e-4,7e-4 4e-4,0.0013 1e-4,5e-4 2e-4,0.0011 3e-4,0.0022 5e-4,0.0034 C 1e-4,1e-4 1e-4,1e-4 0,0 Z"/>
      </g>
      <g transform="translate(622.5443,247.241)" id="g274">
        <path id="path276" style="fill:#d9d9d1;fill-opacity:1;fill-rule:nonzero;stroke:none" d="M 0,0 C -1e-4,2e-4 -1e-4,4e-4 -2e-4,7e-4 -1e-4,4e-4 -1e-4,2e-4 0,0 Z"/>
      </g>
      <g transform="translate(525.0568,247.241)" id="g278">
        <path id="path280" style="fill:#d9d9d1;fill-opacity:1;fill-rule:nonzero;stroke:none" d="M 0,0 C 1e-4,2e-4 1e-4,4e-4 2e-4,7e-4 1e-4,4e-4 1e-4,2e-4 0,0 Z"/>
      </g>
      <g transform="translate(622.0529,247.1447)" id="g282">
        <path id="path284" style="fill:#d9d9d1;fill-opacity:1;fill-rule:nonzero;stroke:none" d="M 0,0 C 5e-4,-0.0014 0.001,-0.0028 0.0015,-0.0043 0.0013,-0.003 0.0012,-0.0017 0.001,-4e-4 0,0.0033 -9e-4,0.0071 -0.0019,0.0108 -0.0015,0.0072 -9e-4,0.0036 0,0 Z"/>
      </g>
      <g transform="translate(525.5473,247.1443)" id="g286">
        <path id="path288" style="fill:#d9d9d1;fill-opacity:1;fill-rule:nonzero;stroke:none" d="M 0,0 C -2e-4,-0.0013 -4e-4,-0.0026 -6e-4,-0.0039 -1e-4,-0.0024 4e-4,-9e-4 0.001,4e-4 0.0018,0.0041 0.0024,0.0077 0.0028,0.0113 0.0019,0.0075 9e-4,0.0038 0,0 Z"/>
      </g>
      <g transform="translate(622.0551,247.1366)" id="g290">
        <path id="path292" style="fill:#d9d9d1;fill-opacity:1;fill-rule:nonzero;stroke:none" d="M 0,0 C 0,0 0,0 0,0 -2e-4,6e-4 -4e-4,0.0011 -5e-4,0.0017 -4e-4,0.0011 -2e-4,6e-4 0,0 Z"/>
      </g>
      <g transform="translate(525.5461,247.1367)" id="g294">
        <path id="path296" style="fill:#d9d9d1;fill-opacity:1;fill-rule:nonzero;stroke:none" d="M 0,0 C 0,0 0,0 0,0 2e-4,5e-4 4e-4,0.0011 5e-4,0.0017 4e-4,0.0011 2e-4,6e-4 0,0 Z"/>
      </g>
      <g transform="translate(622.0588,247.125)" id="g298">
        <path id="path300" style="fill:#d9d9d1;fill-opacity:1;fill-rule:nonzero;stroke:none" d="m 0,0 c 2e-4,-8e-4 4e-4,-0.0016 6e-4,-0.0024 3e-4,-0.001 5e-4,-0.0019 7e-4,-0.0029 3e-4,-0.001 6e-4,-0.0021 8e-4,-0.0031 2e-4,-7e-4 3e-4,-0.0014 5e-4,-0.002 1e-4,-5e-4 3e-4,-0.001 5e-4,-0.0015 -2e-4,0.0018 -5e-4,0.0035 -8e-4,0.0052 C 0.0015,-0.0043 7e-4,-0.0019 -1e-4,4e-4 -1e-4,3e-4 -1e-4,1e-4 0,0 Z"/>
      </g>
      <g transform="translate(525.54,247.1183)" id="g302">
        <path id="path304" style="fill:#d9d9d1;fill-opacity:1;fill-rule:nonzero;stroke:none" d="m 0,0 c -3e-4,-0.0017 -6e-4,-0.0035 -9e-4,-0.0052 2e-4,5e-4 4e-4,9e-4 6e-4,0.0014 1e-4,7e-4 4e-4,0.0014 5e-4,0.0021 2e-4,0.001 5e-4,0.0021 7e-4,0.0031 3e-4,9e-4 5e-4,0.0019 7e-4,0.0028 3e-4,8e-4 5e-4,0.0016 7e-4,0.0025 0,10e-5 0,3e-4 0,4e-4 C 0.0015,0.0047 8e-4,0.0024 0,0 Z"/>
      </g>
      <g transform="translate(622.0629,247.1057)" id="g306">
        <path id="path308" style="fill:#d9d9d1;fill-opacity:1;fill-rule:nonzero;stroke:none" d="M 0,0 C -3e-4,0.0012 -6e-4,0.0025 -7e-4,0.0025 -5e-4,0.0017 -3e-4,8e-4 0,0 8e-4,-0.0048 0.0017,-0.0095 0.0033,-0.0142 0.0021,-0.0108 0.0013,-0.007 7e-4,-0.0032 5e-4,-0.0022 2e-4,-0.0011 0,-1e-4 2e-4,-6e-4 3e-4,-0.0012 5e-4,-0.0017 2e-4,-3e-4 0,0.0012 -0.001,0.0051 -7e-4,0.0034 -3e-4,0.0017 0,0 Z"/>
      </g>
      <g transform="translate(525.5385,247.1083)" id="g310">
        <path id="path312" style="fill:#d9d9d1;fill-opacity:1;fill-rule:nonzero;stroke:none" d="m 0,0 c -2e-4,-0.0014 -4e-4,-0.0029 -7e-4,-0.0043 2e-4,5e-4 3e-4,0.0011 5e-4,0.0016 -2e-4,-0.001 -5e-4,-0.0021 -7e-4,-0.0031 -7e-4,-0.0039 -0.0015,-0.0076 -0.0026,-0.011 0.0016,0.0047 0.0025,0.0094 0.0033,0.0142 3e-4,8e-4 5e-4,0.0017 9e-4,0.0037 C 4e-4,-2e-4 1e-4,-0.0014 -2e-4,-0.0026 1e-4,-9e-4 4e-4,8e-4 7e-4,0.0025 5e-4,0.0017 2e-4,9e-4 0,0 Z"/>
      </g>
      <g transform="translate(622.6052,246.8348)" id="g314">
        <path id="path316" style="fill:#d9d9d1;fill-opacity:1;fill-rule:nonzero;stroke:none" d="m 0,0 c 1e-4,-0.0104 1e-4,-0.0211 1e-4,-0.0324 0,0.0117 0,0.0234 0,0.0351 C 1e-4,0.0018 1e-4,9e-4 0,0 Z"/>
      </g>
      <g transform="translate(524.9959,246.8024)" id="g318">
        <path id="path320" style="fill:#d9d9d1;fill-opacity:1;fill-rule:nonzero;stroke:none" d="M 0,0 C 0,0.0113 0,0.022 1e-4,0.0324 1e-4,0.0334 0,0.0342 0,0.0352 0,0.0234 0,0.0117 0,0 Z"/>
      </g>
      <g transform="translate(627.1055,246.9805)" id="g322">
        <path id="path324" style="fill:#d9d9d1;fill-opacity:1;fill-rule:nonzero;stroke:none" d="m 0,0 c 0,0.0195 0,0.0391 -0.0039,0.0586 -0.0078,0.043 -0.0234,0.0781 -0.043,0.1211 -0.0039,0.0117 -0.0078,0.0273 -0.0117,0.039 0,0.0118 -0.0039,0.0235 -0.0078,0.0352 0,0.0117 0,0.0234 -0.0039,0.0352 -0.0117,0.0468 -0.0195,0.0898 -0.0234,0.1367 -0.004,0.0781 -0.0079,0.1562 -0.0079,0.2344 0,0.0234 0,0.0468 0,0.0703 0,0.0078 0,0.0117 0,0.0195 -0.0039,0.1055 0,0.2109 -0.0156,0.3164 0,0.0078 -0.0039,0.0195 -0.0039,0.0274 -0.0039,0.0234 -0.0078,0.0468 -0.0156,0.0664 0,0 0,0.0039 0,0.0039 0,0 -0.0039,0.0039 -0.0039,0.0039 -0.0156,0.0664 -0.0469,0.1289 -0.0938,0.1758 -0.0468,0.0429 -0.1133,0.0664 -0.1758,0.0664 -0.0585,0 -0.1171,-0.0196 -0.1601,-0.0586 -0.0508,-0.0469 -0.0781,-0.1055 -0.0899,-0.1758 -0.0039,-0.0313 -0.0039,-0.0664 0,-0.1016 0.0079,-0.1328 0.0235,-0.2695 0.0391,-0.4062 0,-0.0118 0.0039,-0.0196 0.0039,-0.0313 0,0 0,-0.0039 0,-0.0039 0,-0.0039 0,-0.0078 0,-0.0078 0,0 0,-0.0039 0,-0.0039 0,0 0,-0.0039 0,-0.0078 0.0039,-0.0039 0.0039,-0.0078 0,-0.0078 0.0039,-0.0078 0.0039,-0.0157 0.0039,-0.0196 0.0039,-0.0586 0.0117,-0.1132 0.0196,-0.1679 0.0039,-0.0703 0.0039,-0.1407 0.0039,-0.211 0,-0.0586 0.0234,-0.1133 0.0586,-0.1523 0.0078,-0.0156 0.0117,-0.0313 0.0195,-0.0469 0,0 0,-0.0039 0,-0.0039 C -0.3711,0 -0.2305,0 -0.0898,0 -0.0781,0 -0.0625,0 -0.0508,0 -0.0352,0 -0.0195,0 0,0 Z"/>
      </g>
      <g transform="translate(520.7303,248.3226)" id="g326">
        <path id="path328" style="fill:#d9d9d1;fill-opacity:1;fill-rule:nonzero;stroke:none" d="m 0,0 c -0.0664,-0.0625 -0.0977,-0.1602 -0.1133,-0.25 -0.0234,-0.1445 -0.0156,-0.2891 -0.0195,-0.4336 0,-0.0778 -0.0045,-0.1556 -0.0081,-0.2334 C -0.1497,-0.9855 -0.16,-1.0541 -0.175,-1.1215 -0.1788,-1.1358 -0.1827,-1.15 -0.1873,-1.1643 c -0.0183,-0.0398 -0.0358,-0.0769 -0.0432,-0.1209 -0.0117,-0.0703 0,-0.1406 0.0235,-0.1847 0.0363,-0.0818 0.1049,-0.1478 0.1992,-0.1629 0.1328,-0.0235 0.2656,0.0664 0.289,0.1992 0.0058,0.0329 0.0046,0.0661 -0.0024,0.0977 0.0057,0.0158 0.011,0.0317 0.0161,0.0476 0.0369,0.0412 0.0606,0.0939 0.0606,0.1516 -0.0021,0.0709 0.0012,0.1409 0.0047,0.2108 0.0068,0.0557 0.0132,0.1115 0.0187,0.1681 0,0.0074 9e-4,0.0148 0,0.0156 0.001,0.0039 0.0017,0.0077 0.0023,0.0116 8e-4,0.0074 0.0016,0.0151 0.0016,0.0236 0,-0.0047 0,-0.0094 -3e-4,-0.0141 2e-4,0.0016 4e-4,0.0031 6e-4,0.0047 -2e-4,-0.0047 -3e-4,-0.0094 -3e-4,-0.0141 0,0.0081 7e-4,0.0154 0.0015,0.0227 6e-4,0.0041 0.0014,0.0083 0.0024,0.0125 -7e-4,-0.002 -0.0011,-0.004 -0.0015,-0.006 -2e-4,-7e-4 -3e-4,-0.0014 -5e-4,-0.0022 10e-5,3e-4 10e-5,5e-4 10e-5,7e-4 -2e-4,-7e-4 -3e-4,-0.0014 -5e-4,-0.0022 -4e-4,-0.002 -8e-4,-0.004 -0.0015,-0.0059 0.0156,0.1484 0.0352,0.2968 0.043,0.4414 0.0039,0.0351 0.0039,0.0703 0,0.1015 C 0.4141,-0.0977 0.3867,-0.0391 0.3359,0.0078 0.2917,0.0483 0.2346,0.0671 0.1771,0.0671 0.1125,0.0671 0.0475,0.0434 0,0 Z"/>
      </g>
      <g transform="translate(626.4857,247.6213)" id="g330">
        <path id="path332" style="fill:#d9d9d1;fill-opacity:1;fill-rule:nonzero;stroke:none" d="M 0,0 C 1e-4,-5e-4 2e-4,-0.001 4e-4,-0.0015 -6e-4,0.0072 -0.0015,0.0159 -0.0015,0.0255 -0.0015,0.017 -0.0015,0.0085 0,0 Z"/>
      </g>
      <g transform="translate(521.1151,247.6198)" id="g334">
        <path id="path336" style="fill:#d9d9d1;fill-opacity:1;fill-rule:nonzero;stroke:none" d="M 0,0 C 1e-4,5e-4 3e-4,0.001 4e-4,0.0015 0.0019,0.01 0.002,0.0185 0.002,0.027 0.002,0.0173 0.001,0.0087 0,0 Z"/>
      </g>
      <g transform="translate(626.4902,247.5875)" id="g338">
        <path id="path340" style="fill:#d9d9d1;fill-opacity:1;fill-rule:nonzero;stroke:none" d="M 0,0 C -2e-4,0.0015 -3e-4,0.003 -5e-4,0.0045 -0.001,0.0077 -0.0014,0.0108 -0.0018,0.014 -0.0015,0.0093 -0.001,0.0047 0,0 Z"/>
      </g>
      <g transform="translate(521.1115,247.592)" id="g342">
        <path id="path344" style="fill:#d9d9d1;fill-opacity:1;fill-rule:nonzero;stroke:none" d="M 0,0 C -1e-4,-0.0015 -3e-4,-0.0031 -5e-4,-0.0045 5e-4,1e-4 0.001,0.0048 0.0013,0.0095 9e-4,0.0063 5e-4,0.0032 0,0 Z"/>
      </g>
      <g transform="translate(626.6124,246.9325)" id="g346">
        <path id="path348" style="fill:#d9d9d1;fill-opacity:1;fill-rule:nonzero;stroke:none" d="M 0,0 C 1e-4,-3e-4 2e-4,-5e-4 4e-4,-8e-4 3e-4,-4e-4 3e-4,0 2e-4,4e-4 1e-4,7e-4 -1e-4,0.0011 -2e-4,0.0015 -1e-4,0.001 -1e-4,5e-4 0,0 Z"/>
      </g>
      <g transform="translate(520.9885,246.9329)" id="g350">
        <path id="path352" style="fill:#d9d9d1;fill-opacity:1;fill-rule:nonzero;stroke:none" d="m 0,0 c -1e-4,-4e-4 -1e-4,-8e-4 -1e-4,-0.0012 0,3e-4 2e-4,6e-4 3e-4,8e-4 0,5e-4 2e-4,0.001 2e-4,0.0015 C 3e-4,7e-4 1e-4,4e-4 0,0 Z"/>
      </g>
      <g transform="translate(522.8735,238.4278)" id="g354">
        <path id="path356" style="fill:#949492;fill-opacity:1;fill-rule:nonzero;stroke:none" d="M 0,0 C -0.3244,-0.0433 -0.2473,-0.5606 0.0742,-0.5078 0.3987,-0.4637 0.3224,0.0521 0,0 Z"/>
      </g>
      <g transform="translate(511.2309,237.425)" id="g358">
        <path id="path360" style="fill:#949492;fill-opacity:1;fill-rule:nonzero;stroke:none" d="m 0,0 c -0.3356,-0.0673 -0.1674,-0.4687 -0.1748,-0.703 -0.4131,-0.1318 -0.1055,-0.9245 -0.2169,-1.2737 -0.0456,-0.8328 -0.1444,-1.6585 -0.1786,-2.4569 0,-0.118 0.0873,-0.2184 0.199,-0.2413 -0.0143,-0.4546 0.5519,-0.4271 0.5784,-9e-4 0.2254,1.4726 0.2193,2.9829 0.0781,4.4648 C 0.2694,-0.0744 0.1296,0.0194 0,0 Z"/>
      </g>
      <g transform="translate(526.3906,160.1445)" id="g362">
        <path id="path364" style="fill:#000000;fill-opacity:1;fill-rule:nonzero;stroke:none" d="M 0,0 C -0.1719,0.0742 -0.3437,0.1562 -0.5078,0.2578 -0.3437,0.1602 -0.1719,0.0742 0,0 Z M 34.6016,1.3672 C 33.9141,1.3477 33.2188,1.3203 32.5313,1.293 c 0.6875,0.0312 1.3828,0.0547 2.0703,0.0742 z M 39.75,1.4883 c -0.3281,-0.0078 -0.6641,-0.0156 -1,-0.0235 -0.6875,-0.0117 -1.3828,-0.0234 -2.0703,-0.039 0.6875,0.0195 1.3828,0.0312 2.0703,0.043 0.3359,0.0078 0.6719,0.0156 1,0.0195 z m 9.5078,58.8086 c 0.2266,0 0.4531,0.0039 0.6797,0.0039 -0.2266,0 -0.4531,-0.0039 -0.6797,-0.0078 -0.2265,0.0039 -0.4531,0.0078 -0.6836,0.0078 0.2305,0 0.4571,-0.0039 0.6836,-0.0039 z m 3.0977,-11.2188 c 0.0859,0 0.1758,0 0.2617,0 -0.0859,0 -0.1719,0 -0.2617,-0.0039 -0.543,-0.0234 -1.1524,-0.0781 -1.7539,-0.164 -0.3203,-0.0547 -0.6485,-0.1133 -0.9727,-0.1914 -0.293,-0.0665 -0.5859,-0.1485 -0.8789,-0.2305 -0.2891,-0.0899 -0.5859,-0.1836 -0.8711,-0.2969 -0.3125,-0.1211 -0.6211,-0.25 -0.9297,-0.3867 -0.2929,-0.1406 -0.5859,-0.2813 -0.875,-0.4375 -0.2539,-0.1328 -0.4961,-0.2852 -0.7383,-0.4336 -0.25,-0.1563 -0.4961,-0.3203 -0.7382,-0.5 -0.2735,-0.2031 -0.543,-0.4141 -0.8125,-0.6289 -0.3438,-0.3047 -0.7227,-0.6563 -1.0938,-1.0274 0,0 0,0.004 0,0.004 0.3711,0.371 0.75,0.7226 1.0938,1.0273 0.2695,0.2148 0.539,0.4258 0.8125,0.6289 0.2421,0.1797 0.4882,0.3438 0.7382,0.5 0.2422,0.1484 0.4844,0.3008 0.7383,0.4336 0.2891,0.1562 0.5821,0.2969 0.875,0.4375 0.3086,0.1367 0.6172,0.2656 0.9297,0.3867 0.2852,0.1133 0.582,0.207 0.8711,0.2969 0.293,0.082 0.5859,0.1641 0.8789,0.2305 0.3242,0.0781 0.6524,0.1367 0.9727,0.1914 0.6015,0.0859 1.2109,0.1406 1.7539,0.164 z m 9.8476,-3.6797 c 0.125,-0.1211 0.2461,-0.2421 0.3672,-0.3632 -0.1211,0.1211 -0.2422,0.2421 -0.3672,0.3593 -0.3711,0.3282 -0.75,0.6407 -1.1445,0.9414 -0.1836,0.1289 -0.418,0.2969 -0.6563,0.4532 -0.2539,0.1679 -0.5156,0.3242 -0.7734,0.4804 -0.3203,0.1719 -0.6406,0.3516 -0.9766,0.5 -0.3125,0.1407 -0.625,0.2735 -0.9453,0.4024 -0.4804,0.1758 -0.9609,0.3281 -1.457,0.4648 -0.2812,0.0664 -0.5898,0.1446 -0.9062,0.1992 -0.3008,0.0547 -0.6055,0.0977 -0.9063,0.1407 -0.0781,0.0078 -0.1523,0.0156 -0.2266,0.0234 0.0782,-0.0039 0.1524,-0.0117 0.2266,-0.0195 0.3008,-0.043 0.6055,-0.086 0.9063,-0.1407 0.3164,-0.0546 0.625,-0.1328 0.9062,-0.1992 0.4961,-0.1367 0.9766,-0.289 1.457,-0.4648 0.3203,-0.1289 0.6328,-0.2617 0.9453,-0.4024 0.336,-0.1484 0.6563,-0.3281 0.9766,-0.5 0.2578,-0.1562 0.5195,-0.3125 0.7734,-0.4804 0.2383,-0.1563 0.4727,-0.3242 0.6563,-0.4532 0.3945,-0.3007 0.7734,-0.6132 1.1445,-0.9414 z m 11.5977,-1.3789 c 0.0273,-0.0547 0.0547,-0.1132 0.082,-0.1718 -0.0312,0.0586 -0.0586,0.1132 -0.0859,0.1718 -0.1133,0.2266 -0.2344,0.4532 -0.3594,0.6719 -0.125,0.2227 -0.2461,0.4492 -0.375,0.6641 -0.2812,0.457 -0.5625,0.9101 -0.8633,1.3554 -0.582,0.8594 -1.2265,1.6719 -1.914,2.4493 -0.3633,0.4101 -0.7422,0.8046 -1.1289,1.1836 0.3906,-0.379 0.7695,-0.7735 1.1328,-1.1836 0.6875,-0.7774 1.332,-1.5899 1.914,-2.4493 0.3008,-0.4453 0.5821,-0.8984 0.8633,-1.3554 0.1289,-0.2149 0.25,-0.4414 0.375,-0.6641 0.125,-0.2187 0.2461,-0.4453 0.3594,-0.6719 z m 2.1601,-16.1328 c -0.0546,-0.2734 -0.1171,-0.5469 -0.1796,-0.8203 -0.1133,-0.4922 -0.2579,-0.9766 -0.4024,-1.4609 -0.3047,-1 -0.6914,-1.9727 -1.1172,-2.9297 -0.8359,-1.8711 -1.9492,-3.6133 -3.2265,-5.211 -0.2383,-0.3007 -0.4883,-0.5976 -0.7461,-0.8828 0.2539,0.2891 0.5,0.5821 0.7422,0.8828 1.2773,1.5977 2.3906,3.3399 3.2265,5.211 0.4258,0.957 0.8125,1.9297 1.1172,2.9297 0.1445,0.4843 0.2891,0.9687 0.4023,1.4609 0.0665,0.2734 0.125,0.5469 0.1836,0.8203 z m 0.2227,1.1992 c -0.0195,-0.125 -0.0391,-0.25 -0.0625,-0.375 -0.0273,-0.1367 -0.0508,-0.2773 -0.0781,-0.414 0.0273,0.1367 0.0508,0.2773 0.0742,0.414 0.0234,0.125 0.0469,0.25 0.0664,0.375 z m 0.2187,5.7227 c 0.0938,-1.0195 0.0938,-2.0469 0.0469,-3.0703 -0.0195,-0.5078 -0.0586,-1.0156 -0.1133,-1.5195 0.0508,0.5039 0.086,1.0117 0.1094,1.5195 0.0469,1.0234 0.0469,2.0508 -0.0469,3.0703 -0.0937,1.0391 -0.2187,2.0781 -0.4453,3.0937 -0.1172,0.5274 -0.2343,1.0547 -0.3867,1.5704 -0.0664,0.2343 -0.1289,0.4648 -0.207,0.6953 -0.0899,0.2734 -0.168,0.5508 -0.2696,0.8203 -0.1015,0.2812 -0.207,0.5586 -0.3085,0.8359 -0.1055,0.2774 -0.2266,0.5469 -0.3399,0.8203 -0.0976,0.2344 -0.1992,0.461 -0.3086,0.6914 0.1094,-0.2304 0.2188,-0.457 0.3125,-0.6914 0.1133,-0.2734 0.2344,-0.5429 0.3399,-0.8203 0.1015,-0.2773 0.207,-0.5547 0.3086,-0.8359 0.1015,-0.2695 0.1796,-0.5469 0.2695,-0.8203 0.0781,-0.2305 0.1406,-0.461 0.207,-0.6953 0.1524,-0.5157 0.2695,-1.043 0.3867,-1.5704 0.2266,-1.0156 0.3516,-2.0546 0.4453,-3.0937 z M 91.6172,0.0273 c -1.3516,0.0704 -2.7109,0.1485 -4.0703,0.2266 -0.0313,0.0039 -0.0625,0.0078 -0.0938,0.0117 1.3907,-0.082 2.7813,-0.1601 4.1641,-0.2383 z m 3.5625,86.8399 c 0.0117,-0.0234 0.0195,-0.0508 0.0312,-0.0742 -0.3203,-0.0117 -0.6445,-0.0235 -0.9687,-0.0391 -0.0234,0 -0.0469,-0.0039 -0.0664,-0.0156 -2.875,-0.0078 -5.75,-0.0195 -8.6289,-0.0313 C 77.6172,86.6836 69.6914,86.6523 61.7617,86.625 53.7578,86.5977 45.7539,86.5703 37.75,86.543 29.6563,86.5156 21.5664,86.4883 13.4766,86.4609 8.7969,86.4453 4.1211,86.4297 -0.5586,86.4102 c 0,0.0039 0,0.0078 0,0.0117 0,0.0078 0,0.0117 0,0.0195 0,0.0274 0,0.0508 0,0.0781 0.0469,0.0352 0.082,0.0938 0.1094,0.1485 0.0351,0.0625 0.0625,0.1328 0.0898,0.1992 0.0703,0.1523 0.1446,0.3047 0.2188,0.4414 0.0351,0.0664 0.0742,0.1328 0.1211,0.1953 0.0586,0.0781 0.125,0.1563 0.1718,0.2109 0.1407,0.1446 0.293,0.2813 0.4532,0.4141 0.2265,0.1797 0.4648,0.3477 0.6797,0.4844 0.3515,0.2187 0.7187,0.4101 1.0898,0.5859 0.3359,0.1446 0.6836,0.2617 1.0312,0.375 0.4141,0.1211 0.8282,0.2383 1.25,0.3399 0.4688,0.1093 0.9375,0.1953 1.4024,0.2773 0.7383,0.1172 1.4844,0.2227 2.2266,0.3281 0.8046,0.1133 1.6093,0.2149 2.414,0.2969 0.836,0.0859 1.6758,0.1406 2.5156,0.1914 0.7969,0.0508 1.5977,0.086 2.3633,0.1094 1.9844,0.043 3.9727,0.0234 5.9571,-0.0156 1.9921,-0.0391 3.9843,-0.0899 5.9765,-0.1446 1.8828,-0.0507 3.7617,-0.1132 5.6406,-0.1523 0.9493,-0.0195 1.9024,-0.0313 2.8516,-0.0469 0.8555,-0.0117 1.7149,-0.0273 2.5703,-0.0351 1.6914,-0.0118 3.3828,0.0039 5.0742,0.0195 0.875,0.0078 1.7539,0.0156 2.6289,0.0547 0.379,0.0117 0.754,0.0312 1.1329,0.0586 0.3789,-0.0274 0.7539,-0.0469 1.1328,-0.0586 0.875,-0.0391 1.7539,-0.0469 2.6289,-0.0547 1.6914,-0.0156 3.3828,-0.0313 5.0742,-0.0195 0.8555,0.0078 1.7148,0.0234 2.5703,0.0351 0.9492,0.0156 1.9024,0.0274 2.8516,0.0469 1.8789,0.0391 3.7578,0.1016 5.6406,0.1523 1.9922,0.0547 3.9844,0.1055 5.9766,0.1446 1.9843,0.039 3.9726,0.0586 5.9218,0.0156 0.8008,-0.0234 1.6016,-0.0586 2.3985,-0.1094 0.8398,-0.0508 1.6797,-0.1055 2.5156,-0.1914 0.8047,-0.082 1.6094,-0.1836 2.4141,-0.2969 0.7421,-0.1054 1.4882,-0.2109 2.2187,-0.3281 0.4727,-0.082 0.9414,-0.168 1.4102,-0.2773 0.4218,-0.1016 0.8359,-0.2188 1.2422,-0.3399 0.3554,-0.1133 0.6992,-0.2304 1.039,-0.375 0.3711,-0.1758 0.7383,-0.3672 1.0625,-0.5664 0.2422,-0.1562 0.4805,-0.3242 0.707,-0.5039 0.1602,-0.1328 0.3125,-0.2695 0.4336,-0.3945 0.0664,-0.0742 0.1289,-0.1524 0.1914,-0.2305 0.043,-0.0625 0.0821,-0.1289 0.1172,-0.1797 0.0039,-0.0117 0.0118,-0.0195 0.0157,-0.0312 0.0742,-0.1407 0.1406,-0.2852 0.207,-0.4258 z m 5.5312,0.0273 c 0.004,-0.0195 0.004,-0.039 0.004,-0.0586 -0.0195,0 -0.0351,0 -0.0507,0 -0.0118,0 -0.0274,0 -0.0391,0 -0.1406,0 -0.2812,0 -0.4219,0.0039 -0.6406,0.0079 -1.2773,0.0274 -1.9258,0.0313 -0.7031,-0.0195 -1.3906,-0.0313 -2.0742,-0.0508 -0.1172,-0.0039 -0.2304,-0.0078 -0.3476,-0.0117 -0.0235,0 -0.0469,0 -0.0742,0 -0.0274,0 -0.0547,0 -0.0821,-0.0039 -0.0039,0.0195 -0.0039,0.0391 -0.0078,0.0547 0,0 -0.0039,0.0273 -0.0039,0.0273 0,0 -0.0039,0.0274 -0.0117,0.0586 0,0.0039 0,0.0078 -0.0039,0.0117 0,0 0,0.0039 0,0.0039 0,0 0,0.0039 0,0.0039 0,0.004 0,0.004 0,0.0079 0,0 -0.0039,0 -0.0039,0 0,0 0,0.0039 0,0.0039 0,0 0,0.0039 0,0.0039 0,0 -0.0039,0.0039 -0.0039,0.0039 0,0.0039 0,0.0039 0,0.0039 0,0 0,0 0,0.0039 0,0.0039 0,0.0039 0,0.0078 0,0.0039 -0.0039,0.0078 -0.0039,0.0156 -0.0039,0.0078 -0.0039,0.0196 -0.0079,0.0274 0,0 0,0.0039 0,0.0039 -0.0039,0 -0.0039,0 -0.0078,0 -0.0273,0.0586 -0.0507,0.1172 -0.0781,0.1758 -0.0703,0.1523 -0.1484,0.3086 -0.2383,0.4492 -0.1601,0.2539 -0.3672,0.4765 -0.5937,0.6719 -0.1914,0.1679 -0.3906,0.3281 -0.6016,0.4726 -0.7187,0.4961 -1.5117,0.9024 -2.3476,1.1641 -0.875,0.2734 -1.7657,0.5039 -2.6719,0.6562 -0.918,0.1563 -1.8438,0.2852 -2.7695,0.4141 -0.9727,0.1328 -1.9454,0.2539 -2.9258,0.332 -1.0235,0.086 -2.0508,0.1485 -3.0821,0.1953 -1.0117,0.043 -2.0273,0.0547 -3.0429,0.0586 -0.3164,0 -0.6328,0 -0.9492,0 -0.629,0 -1.2618,-0.0039 -1.8946,-0.0117 -1.0586,-0.0195 -2.1172,-0.043 -3.1758,-0.0664 -1.9375,-0.0469 -3.8711,-0.0977 -5.8086,-0.1523 -1.8281,-0.0508 -3.6562,-0.1016 -5.4843,-0.129 -1.7774,-0.0273 -3.5586,-0.0625 -5.3399,-0.0585 -0.8281,0.0039 -1.6601,0.0078 -2.4922,0.0156 -0.9609,0.0078 -1.9218,0.0117 -2.8515,0.0351 -0.1836,0.0039 -0.3711,0.0118 -0.5547,0.0196 -0.3984,-0.0391 -0.9609,0.0859 -1.332,0.0625 -0.3204,0.0195 -0.9414,-0.0977 -1.3321,-0.0625 0,0 -0.0039,0 -0.0039,0 -0.0039,0 -0.0039,0 -0.0078,0 -0.1836,-0.0078 -0.3633,-0.0157 -0.5117,-0.0196 -0.9609,-0.0234 -1.9219,-0.0273 -2.8828,-0.0351 -0.8321,-0.0078 -1.6641,-0.0117 -2.4922,-0.0156 -1.7813,-0.004 -3.5625,0.0312 -5.3399,0.0585 -1.8281,0.0274 -3.6562,0.0782 -5.4843,0.129 -1.9375,0.0546 -3.8711,0.1054 -5.8086,0.1523 -1.0586,0.0234 -2.1172,0.0469 -3.1758,0.0664 -0.9492,0.0156 -1.8945,0.0156 -2.8438,0.0117 -1.0157,-0.0039 -2.0313,-0.0156 -3.043,-0.0586 C 13.4531,91.5313 12.4258,91.4688 11.4023,91.3828 10.4219,91.3047 9.4492,91.1836 8.4766,91.0508 7.5508,90.9219 6.625,90.793 5.707,90.6367 4.8008,90.4844 3.9102,90.2539 3.0352,89.9805 2.1992,89.7188 1.4063,89.3125 0.6875,88.8164 0.4766,88.6719 0.2773,88.5117 0.0859,88.3438 c -0.2265,-0.1954 -0.4336,-0.418 -0.5937,-0.6719 -0.0899,-0.1406 -0.168,-0.2969 -0.2383,-0.4492 -0.0273,-0.0586 -0.0508,-0.1172 -0.0781,-0.1758 -0.0039,0 -0.0039,0 -0.0078,0 0,0 0,-0.0039 0,-0.0039 -0.0039,-0.0117 -0.0039,-0.0196 -0.0078,-0.0313 0,-0.0039 -0.004,-0.0078 -0.004,-0.0117 0,-0.0039 0,-0.0039 0,-0.0078 0,-0.0039 0,-0.0039 0,-0.0039 0,0 0,0 0,-0.0039 0,0 -0.0039,-0.0039 -0.0039,-0.0039 0,0 0,-0.0039 0,-0.0039 0,0 0,-0.0039 0,-0.0039 0,0 0,0 -0.0039,-0.0039 0,0 0,0 0,-0.004 0,0 0,0 0,-0.0039 0,-0.0039 0,-0.0039 0,-0.0039 -0.0039,-0.0039 -0.0039,-0.0078 -0.0039,-0.0117 -0.0078,-0.0312 -0.0117,-0.0586 -0.0156,-0.0937 0,0 -0.0039,-0.0235 -0.0039,-0.0235 -0.0039,-0.0156 -0.0117,-0.0664 -0.0195,-0.1172 0,0 0,-0.0039 0,-0.0078 0,-0.0351 0.0039,-0.0664 0,-0.1015 0,0 0,-0.0078 0,-0.0118 0,-0.0039 0,-0.0078 0,-0.0117 -0.0039,-0.0039 -0.0078,-0.0117 -0.0118,-0.039 0,0 0,-0.0039 0,-0.0039 -0.0156,-0.0547 -0.0507,-0.0977 -0.0976,-0.125 -0.0156,-0.0118 -0.0352,-0.0235 -0.0547,-0.0274 -0.0508,-0.0195 -0.1094,-0.0234 -0.1602,-0.0039 -0.0195,0.0039 -0.0351,0.0117 -0.0507,0.0274 0,0 -0.0039,0 -0.0039,0 -1.5196,-0.004 -3.0352,-0.0079 -4.5547,-0.0157 0,0 -0.0039,0 -0.0039,0 0,0.0117 0,0.0274 -0.0039,0.043 0,0.0156 -0.0078,0.0352 -0.0157,0.0508 0,0 0,0.0195 0,0.0195 0,0.0547 0,0.1094 0.0039,0.1641 0,0.0039 0,0.0039 0,0.0039 -0.0078,0.0117 -0.0156,0.0234 -0.0195,0.0351 -0.0039,0.0078 -0.0078,0.0196 -0.0078,0.0274 -0.0195,0.0429 -0.0234,0.1015 -0.0156,0.1601 0.0078,0.043 0.0234,0.0782 0.0429,0.1211 0.004,0.0117 0.0079,0.0274 0.0118,0.0391 0.0039,0.0234 0.0117,0.0469 0.0117,0.0703 0.0117,0.0469 0.0195,0.0898 0.0234,0.1367 0.0039,0.0781 0.0078,0.1563 0.0078,0.2344 0,0.0234 0,0.0469 0,0.0703 0,0.0078 0,0.0117 0,0.0195 0.0039,0.1055 0,0.211 0.0157,0.3164 0,0.0079 0.0039,0.0196 0.0039,0.0274 0.0039,0.0195 0.0078,0.0391 0.0117,0.0547 0,0.0039 0.0039,0.0078 0.0039,0.0117 0.0039,0.0625 0.0117,0.1211 0.0195,0.1836 0,0.0078 0,0.0117 0,0.0195 0,0 0,0.0039 0,0.0039 0,0.0039 0,0.0039 0,0.0078 0.0039,0.0079 0.0039,0.0157 0.0039,0.0157 0,0.0078 0.0039,0.0195 0.0039,0.0195 0.043,0.3789 0.0938,0.7539 0.1836,1.125 0.0391,0.1562 0.0899,0.3086 0.1446,0.4609 0.0507,0.125 0.1054,0.25 0.1679,0.3672 0,0 0,0 0.0039,0.0039 0,0.0039 0.0039,0.0078 0.0039,0.0078 0.0274,0.0469 0.0586,0.0899 0.0821,0.1289 0.0039,0.004 0.0078,0.0079 0.0078,0.0118 0.0039,0.0039 0.0039,0.0039 0.0039,0.0078 0.0039,0.0039 0.0039,0.0039 0.0039,0.0039 0.0508,0.0664 0.1055,0.1289 0.168,0.1914 0.039,0.0391 0.0781,0.0742 0.1172,0.1094 0,0 0.0039,0 0.0039,0 0.1132,0.0859 0.2343,0.1679 0.3593,0.2461 0.3907,0.2304 0.793,0.4414 1.1914,0.6211 0.3829,0.1718 0.7774,0.3125 1.1485,0.4296 0.9414,0.2735 1.914,0.4571 2.8476,0.6094 0.5977,0.0938 1.1953,0.1758 1.7969,0.2305 0.5469,0.0508 1.0938,0.0664 1.6094,0.082 0.8476,0.0195 1.6992,0.0274 2.5508,0.0547 0.8632,0.0313 1.7304,0.0664 2.5976,0.0938 0.8985,0.0312 1.8008,0.0703 2.7031,0.1093 0.8633,0.0352 1.7305,0.0625 2.5625,0.086 1.9688,0.0429 3.9336,0.0273 5.9024,0.0898 2,0.0625 4.0039,0.1524 6.0039,0.2266 0.7383,0.0234 1.4687,0.0468 2.1875,0.0625 1.8516,0.0468 3.7031,0.0937 5.5586,0.1172 1.7891,0.0234 3.5781,0.0351 5.3672,0.039 1.5234,0.0039 3.0508,0.0039 4.5742,0.0117 1.0937,0.0079 2.1914,0.0196 3.2891,0.0196 1.0976,0 2.1953,-0.0117 3.289,-0.0196 1.5235,-0.0078 3.0508,-0.0078 4.5742,-0.0117 1.7891,-0.0039 3.5782,-0.0156 5.3672,-0.039 1.8555,-0.0235 3.7071,-0.0704 5.5391,-0.1133 0.7383,-0.0196 1.4687,-0.043 2.207,-0.0664 2,-0.0742 4.0039,-0.1641 6.0039,-0.2266 1.9688,-0.0625 3.9336,-0.0469 5.8672,-0.0898 0.8672,-0.0235 1.7344,-0.0508 2.5977,-0.086 0.9023,-0.039 1.8047,-0.0781 2.7031,-0.1093 0.8672,-0.0274 1.7344,-0.0625 2.5977,-0.0938 0.8515,-0.0273 1.7031,-0.0352 2.5195,-0.0547 0.5469,-0.0156 1.0937,-0.0312 1.6406,-0.082 0.6016,-0.0547 1.1992,-0.1367 1.7617,-0.2266 0.9688,-0.1562 1.9414,-0.3398 2.8516,-0.6054 0.4023,-0.125 0.7969,-0.2657 1.1641,-0.4297 0.414,-0.1875 0.8164,-0.3985 1.207,-0.6289 0.125,-0.0782 0.2461,-0.1602 0.3594,-0.2461 0.0429,-0.0352 0.082,-0.0703 0.1211,-0.1094 0.0585,-0.0625 0.1132,-0.125 0.164,-0.1875 0.0039,-0.0039 0.0078,-0.0117 0.0117,-0.0156 0,-0.0039 0.0039,-0.0078 0.0039,-0.0078 0.0274,-0.043 0.0586,-0.086 0.0821,-0.125 0.004,-0.004 0.008,-0.0118 0.008,-0.0157 0,0 0,-0.0039 0,-0.0039 0,0 0.004,0 0.004,0 0.0625,-0.1172 0.1172,-0.2422 0.168,-0.3672 0.0273,-0.0781 0.0546,-0.1523 0.0781,-0.2304 0.0234,-0.0743 0.0469,-0.1524 0.0664,-0.2305 0.0898,-0.3711 0.1406,-0.7461 0.1836,-1.1172 0,-0.0078 0.004,-0.0195 0.004,-0.0195 0,-0.0039 0,-0.0039 0,-0.0078 0,-0.0039 0,-0.0118 0.004,-0.0157 0,0 0,-0.0039 0,-0.0039 0,0 0,-0.0039 0,-0.0039 0.004,-0.0234 0.004,-0.0468 0.008,-0.0703 0,-0.0469 0.008,-0.0898 0.0117,-0.1328 0,0 0,-0.0039 0,-0.0039 0.008,-0.0195 0.0117,-0.043 0.0157,-0.0664 0,-0.0078 0.004,-0.0195 0.004,-0.0274 0.0156,-0.1054 0.0117,-0.2109 0.0156,-0.3164 0,-0.0078 0,-0.0117 0,-0.0195 0,-0.0234 0,-0.0469 0,-0.0703 0,-0.0781 0.004,-0.1563 0.008,-0.2344 0.004,-0.0469 0.0117,-0.0898 0.0234,-0.1367 0,-0.0234 0.008,-0.0469 0.0118,-0.0703 0.004,-0.0117 0.008,-0.0274 0.0117,-0.0391 0.0195,-0.0429 0.0351,-0.0781 0.0429,-0.1211 z m 14.8555,-4.082 c -0.0156,-0.3789 -0.0312,-0.7578 -0.0469,-1.1367 -0.0507,-1.2578 -0.0976,-2.5117 -0.1484,-3.7695 -0.0273,-0.7032 -0.0586,-1.4063 -0.0859,-2.1094 -0.0118,-0.375 -0.0313,-0.75 -0.0469,-1.125 -0.004,0.0039 -0.008,0.0078 -0.0117,0.0117 0,0 -0.004,0 -0.004,0 -0.0274,0.0234 -0.0586,0.043 -0.0899,0.0625 -0.0156,0.0078 -0.0273,0.0156 -0.043,0.0234 0,0 -0.004,0.0039 -0.008,0.0039 -0.4336,0.3399 -1.0039,0.4454 -1.5742,0.4727 -0.004,0.0039 -0.008,0.0039 -0.0117,0 -0.0391,0 -0.0781,0.0039 -0.1172,0.0039 -0.1953,0.0078 -0.3867,0.0039 -0.5742,0 -0.0313,0 -0.0664,0 -0.0977,0 -0.0351,0 -0.0664,0 -0.1015,0 -0.1016,0.0039 -0.2071,0.0039 -0.3086,0.0039 -0.008,0 -0.0117,0 -0.0156,0 -2.9454,0.0117 -5.8907,0.0156 -8.8321,0.0195 -5.1367,0.0118 -10.2734,0.0235 -15.4101,0.0313 -5.293,0.0117 -10.586,0.0273 -15.875,0.0351 -5.4414,0.0118 -10.8828,0.0235 -16.3243,0.0352 -5.4375,0.0156 -10.8789,0.0273 -16.3164,0.0391 -5.3515,0.0117 -10.7031,0.0234 -16.0546,0.0351 -5.3399,0.0078 -10.6797,0.0235 -16.0157,0.0352 -5.3047,0.0078 -10.6054,0.0195 -15.9062,0.0312 -1.8985,0.0078 -3.7969,0.0117 -5.6953,0.0157 -0.0391,0 -0.0821,-0.004 -0.1211,-0.0079 -0.1407,2.2735 -0.125,4.5664 -0.375,6.8321 3.3906,0.0156 6.7773,0.0312 10.164,0.0429 8.0586,0.0274 16.1211,0.0547 24.1797,0.0821 8.086,0.0273 16.168,0.0586 24.25,0.0859 8.043,0.0234 16.086,0.0547 24.125,0.082 7.8438,0.0274 15.6875,0.0508 23.5313,0.0821 7.2851,0.0234 14.5742,0.0468 21.8593,0.0742 0.6993,0.0039 1.4024,0.0078 2.1016,0.0078 z m 5.8008,-118.4258 c 0,-0.0742 -0.004,-0.1445 0,-0.2187 -0.008,-0.9297 -0.0156,-1.8633 -0.0195,-2.793 -0.004,-1.0078 -0.008,-2.0117 -0.0157,-3.0195 -0.0195,-3.0899 -0.039,-6.1836 -0.0586,-9.2735 -0.0195,-3.3398 -0.039,-6.6758 -0.0625,-10.0117 -0.004,-0.3945 -0.004,-0.7851 -0.008,-1.1758 0,0 0,-0.0039 0,-0.0039 -4.414,-0.0039 -8.8281,-0.0156 -13.2461,-0.0234 -7.9023,-0.0117 -15.8047,-0.0235 -23.707,-0.0352 -7.8086,-0.0156 -15.6172,-0.0273 -23.4258,-0.039 -7.9414,-0.0118 -15.8789,-0.0235 -23.8203,-0.0391 -7.4297,-0.0117 -14.8594,-0.0234 -22.293,-0.0352 -7.3515,-0.0117 -14.7031,-0.0234 -22.0546,-0.0351 -5.5196,-0.0117 -11.0352,-0.0195 -16.5547,-0.0274 -0.0039,1.629 -0.0118,3.2579 -0.0196,4.8829 -0.0195,5.2695 -0.0429,10.5351 -0.0664,15.8046 -0.0078,2.2422 -0.0195,4.4883 -0.0273,6.7344 0.0039,0 0.0078,0 0.0117,0 1.1484,-0.0039 2.2969,-0.0117 3.4492,-0.0156 5.3555,-0.0273 10.7071,-0.0508 16.0664,-0.0742 7.7539,-0.0391 15.5039,-0.0742 23.2578,-0.1133 7.8555,-0.0352 15.7149,-0.0742 23.5704,-0.1094 7.625,-0.039 15.2539,-0.0742 22.8789,-0.1094 7.8242,-0.039 15.6484,-0.0742 23.4726,-0.1132 7.2227,-0.0313 14.4492,-0.0664 21.6719,-0.1016 1.9766,-0.0078 3.9531,-0.0195 5.9297,-0.0312 1.6914,-0.0079 3.3789,-0.0157 5.0703,-0.0235 z m 0.4766,118.4492 c -0.0118,-1.5117 -0.0235,-3.0273 -0.0352,-4.5429 -0.0117,-2.0039 -0.0234,-4.0078 -0.0352,-6.0157 -0.0468,-6.871 -0.0937,-13.7421 -0.1367,-20.6171 -0.0469,-6.9805 -0.0937,-13.961 -0.1406,-20.9414 -0.0508,-7.3399 -0.0977,-14.6836 -0.1484,-22.0235 -0.0469,-6.8672 -0.0938,-13.7383 -0.1407,-20.6055 -0.004,-0.7851 -0.004,-1.5742 -0.0156,-2.3593 0,-0.0625 0,-0.1211 0.008,-0.1797 -3.1953,0.0156 -6.3906,0.0312 -9.582,0.0469 -7.5352,0.039 -15.0703,0.0781 -22.6055,0.1211 -7.875,0.039 -15.75,0.082 -23.6289,0.121 -7.9258,0.043 -15.8515,0.0821 -23.7812,0.125 -7.9219,0.0391 -15.8399,0.0821 -23.7618,0.1211 -7.8554,0.043 -15.707,0.0821 -23.5585,0.125 -5.7344,0.0274 -11.4649,0.0586 -17.1954,0.0899 -0.0117,4.9297 -0.0351,9.8555 -0.0507,14.7851 -0.0235,6.9453 -0.0469,13.8868 -0.0704,20.836 -0.0195,6.8437 -0.0429,13.6914 -0.0664,20.539 -0.0195,6.4766 -0.0429,12.9493 -0.0625,19.4258 -0.0195,5.7149 -0.039,11.4336 -0.0586,17.1485 0,0.0039 0,0.0078 0,0.0117 -0.0039,0.7969 -0.0039,1.5976 -0.0078,2.3984 0,0.2969 -0.0039,0.5899 -0.0039,0.8867 2.6953,0 5.3906,0.0118 8.086,0.0235 0.2656,-2.3399 0.2382,-4.6992 0.3945,-7.043 -0.0078,0 -0.0156,-0.0039 -0.0234,-0.0156 0.0117,-0.7969 -0.0274,-1.5938 -0.1329,-2.3828 -0.0156,-3.0078 -0.039,-6.0157 -0.0585,-9.0274 -0.0157,-1.9844 -0.0313,-3.9648 -0.043,-5.9453 -0.0156,-1.9844 -0.0274,-3.9648 -0.043,-5.9492 -0.0234,-4.1367 -0.0547,-8.2734 -0.0859,-12.4102 -0.0156,-2.0781 -0.0274,-4.1562 -0.0391,-6.2343 -0.0156,-2.0782 -0.0273,-4.1563 -0.039,-6.2344 -0.0157,-2.0938 -0.0313,-4.1836 -0.0469,-6.2735 -0.0156,-2.0898 -0.0274,-4.1796 -0.0391,-6.2734 -0.0156,-2.0664 -0.0312,-4.1328 -0.0469,-6.1953 -0.0156,-2.0664 -0.0273,-4.1328 -0.039,-6.1953 -0.0156,-2.0664 -0.0313,-4.1328 -0.0469,-6.1992 -0.0156,-2.0664 -0.0273,-4.1328 -0.0391,-6.1993 -0.0078,-0.2851 -0.0078,-0.5664 -0.0078,-0.8476 0,-0.0117 0,-0.0234 0,-0.0313 0,-0.0117 0,-0.0234 0,-0.0351 0,-0.0586 0.0078,-0.1172 0.0157,-0.1719 0.0039,-0.0273 0.0117,-0.0547 0.0195,-0.082 0.0078,-0.0235 0.0195,-0.0508 0.0273,-0.0781 0.0078,-0.0157 0.0157,-0.0274 0.0235,-0.043 0.0312,-0.0586 0.0664,-0.1172 0.1093,-0.1719 0.0157,-0.0195 0.0313,-0.043 0.0547,-0.0625 0.0196,-0.0273 0.043,-0.0469 0.0664,-0.0664 0.0782,-0.0703 0.1641,-0.1289 0.2578,-0.1719 0.0782,-0.0351 0.1602,-0.0625 0.2422,-0.0781 0.0664,-0.0117 0.1289,-0.0195 0.1953,-0.0195 0.0118,0 0.0274,0 0.0391,0 0,0 0.0039,0 0.0039,0 0.043,0.0039 0.0781,0.0078 0.1172,0.0195 0.0078,0 0.0195,0 0.0273,0.0039 0.004,0 0.004,0 0.004,0 0,0 0,0 0.0039,0 0.0156,-0.0039 0.0351,-0.0039 0.0507,-0.0039 1.9688,0 3.9375,-0.043 5.9063,-0.0664 2.5664,-0.0273 5.1328,-0.0547 7.7031,-0.082 5.2578,-0.0586 10.5156,-0.1133 15.7734,-0.1719 5.1954,-0.0586 10.3907,-0.1133 15.5938,-0.168 5.1953,-0.0586 10.3906,-0.1172 15.5859,-0.1719 5.2579,-0.0546 10.5196,-0.1132 15.7774,-0.1718 5.082,-0.0508 10.164,-0.1094 15.2422,-0.1641 5.0859,-0.0547 10.1679,-0.1094 15.25,-0.1641 4.875,-0.0546 9.75,-0.1054 14.625,-0.1601 0.8711,-0.0078 1.7461,-0.0195 2.6211,-0.0274 0.0234,0 0.0468,-0.0039 0.0703,-0.0039 0.875,-0.0078 1.7422,-0.0195 2.6094,-0.0273 0.3085,-0.0039 0.5898,0.1445 0.7734,0.375 0.0391,0.0469 0.0703,0.1016 0.1016,0.1562 0.0312,0.0547 0.0585,0.1133 0.0742,0.1758 0.0156,0.0313 0.0234,0.0625 0.0273,0.0938 0.008,0.0351 0.0117,0.0664 0.0156,0.1015 0.008,0.0313 0.008,0.0664 0.008,0.1016 0,0.082 -0.0157,0.1602 -0.0313,0.2344 -0.008,0.0117 -0.008,0.0195 -0.008,0.0312 0,0.0039 0,0.0078 0,0.0117 0,0.0235 0,0.043 0,0.0665 0.0117,0.625 0.0273,1.2539 0.043,1.8789 0.0468,2.1953 0.1015,4.3867 0.164,6.582 0.0117,0.4726 0.0196,0.9414 0.0352,1.4101 0.0156,0.4688 0.0273,0.9375 0.039,1.4102 0.0508,2.0469 0.1016,4.0937 0.1485,6.1367 0.0469,2.0469 0.0976,4.0938 0.1484,6.1367 0.0547,2.1211 0.1055,4.2422 0.1602,6.3633 0.0508,2.1211 0.1054,4.2422 0.1601,6.3633 0.0508,2.0547 0.1016,4.1094 0.1485,6.1641 0.0507,2.0547 0.1015,4.1093 0.1562,6.164 0.1016,4.0782 0.1953,8.1524 0.2969,12.2305 0.1016,3.9844 0.2031,7.9727 0.2969,11.957 0.0937,3.7305 0.1875,7.4649 0.2734,11.2032 0,0.0117 0.004,0.0195 0.004,0.0312 0.004,0.0078 0.004,0.0195 0.004,0.0313 0.0156,0.6406 0.0313,1.2812 0.0469,1.9218 0,0.0664 -0.008,0.1328 -0.0156,0.1953 -0.008,0.0235 -0.0157,0.0508 -0.0235,0.0743 -0.004,0.0117 -0.004,0.0195 -0.008,0.0312 0.0899,0.0352 0.1563,0.1172 0.1602,0.2188 0.004,0.0507 0.004,0.0976 0.008,0.1484 0,0.0117 0,0.0195 0,0.0312 0.0195,0.5352 0.043,1.0625 0.0625,1.5977 0.0351,0.8438 0.0703,1.6836 0.1015,2.5273 0.0547,1.3672 0.1094,2.7344 0.1641,4.1016 0.9883,0.0039 1.9805,0.0078 2.9688,0.0117 0.0273,-0.0039 0.0586,-0.0039 0.0859,-0.0039 0.9062,0.0039 1.8164,0.0078 2.7227,0.0117 z m 8.5468,-101.3047 c -0.0664,-2.0546 -0.1328,-4.1093 -0.1953,-6.164 -0.0781,-2.4258 -0.1523,-4.8477 -0.2305,-7.2695 0,0 0,-0.004 0,-0.004 -0.2656,0 -0.5312,0 -0.7968,-0.0039 0,0 -0.004,0.0039 -0.008,0.0039 -0.1368,0.0313 -0.2813,0.0469 -0.4297,0.0469 -1.086,-0.0078 -2.168,0.0352 -3.25,0.0938 -0.1641,0.0078 -0.3321,0.0195 -0.5,0.0312 -0.168,0.0117 -0.336,0.0235 -0.5078,0.0352 -0.1172,0.0078 -0.2344,0.0156 -0.3555,0.0234 -0.1211,0.0039 -0.2461,0.0078 -0.3672,0.0117 -0.004,0.0039 -0.004,0.0039 -0.008,0 0,0 -0.004,0 -0.004,0 -0.004,0 -0.008,0 -0.0117,0 -0.004,0 -0.008,0 -0.0118,0 -0.0546,0.0157 -0.1093,0.0235 -0.1679,0.0313 -0.004,-0.0039 -0.008,0 -0.0117,0 -0.0625,0.0039 -0.1289,0.0078 -0.1954,0.0078 -4.246,0.0273 -8.4921,0.043 -12.7343,0.0625 -7.2032,0.0312 -14.4024,0.0664 -21.6016,0.1016 -7.793,0.039 -15.5859,0.0742 -23.3789,0.1093 -7.6719,0.0391 -15.3477,0.0743 -23.0234,0.1094 -7.8164,0.0391 -15.6289,0.0742 -23.4453,0.1133 -7.754,0.0351 -15.5079,0.0742 -23.2618,0.1094 -7.2968,0.0351 -14.5898,0.0703 -21.8867,0.1054 -0.0312,0 -0.0625,0 -0.0937,0 -0.168,0 -0.3399,0 -0.5079,0.0039 -0.0156,0 -0.0312,0 -0.0468,0 -0.3125,0 -0.6094,-0.0781 -0.875,-0.2148 0,0 0,0 -0.0039,0 -0.0352,-0.0195 -0.0703,-0.043 -0.1055,-0.0625 -0.0039,0 -0.0039,0 -0.0078,0 -0.418,0.0078 -0.836,0.0117 -1.2578,0.0195 -0.5391,0.0078 -1.0821,0.0196 -1.6211,0.0274 0,1.4804 0.0039,2.9648 0.0039,4.4453 0,2.7812 -0.0039,5.5547 -0.0586,8.332 -0.0039,0.2344 -0.0078,0.4727 -0.0117,0.707 2.4375,0 4.8711,-0.0117 7.3047,-0.0312 0.1796,0 0.3593,0 0.539,-0.0039 2.6172,-0.0156 5.2305,-0.0352 7.8438,-0.0508 7.7617,-0.0391 15.5234,-0.0781 23.2851,-0.1211 7.8516,-0.039 15.7032,-0.082 23.5547,-0.1211 7.9688,-0.0429 15.9375,-0.082 23.9063,-0.125 7.9101,-0.0429 15.8203,-0.082 23.7343,-0.125 7.7461,-0.039 15.4922,-0.0781 23.2383,-0.1211 6.9492,-0.0351 13.8985,-0.0742 20.8477,-0.1093 1.1914,-0.004 2.3867,-0.0118 3.582,-0.0157 0.0352,-0.0039 0.0703,-0.0039 0.1055,-0.0039 0.9101,-0.0039 1.8203,-0.0078 2.7304,-0.0117 0.0547,0 0.1094,0 0.1602,0.0078 0.0469,0.0039 0.0938,0.0117 0.1367,0.0195 z m 4.0781,2.6055 c 0.0157,0.4414 -0.1445,0.8477 -0.4101,1.1758 -0.25,0 -0.4961,0.0117 -0.7461,0.0195 -0.1484,0.0078 -0.2969,0.0118 -0.4453,0.0235 -0.4297,-0.0078 -0.8555,0.0078 -1.2852,0.0195 -0.004,0 -0.004,0 -0.008,0 -0.4453,0.1016 -0.9922,0.1211 -1.5469,0.1172 -0.004,0.0039 -0.0117,0.0078 -0.0156,0.0117 -1.6172,0.0078 -3.2304,0.0156 -4.8398,0.0234 0.0117,0.0821 0.0195,0.168 0.0195,0.254 0.082,5.7578 0.0781,11.5234 0.1172,17.2851 0.0469,7.1992 0.0977,14.4024 0.1445,21.6055 0.0469,7.1328 0.0977,14.2656 0.1446,21.4023 0.0468,6.9649 0.0937,13.9336 0.1406,20.9024 0.0351,5.2109 0.0703,10.4179 0.1055,15.6289 0.004,0.1718 0.004,0.3437 0.004,0.5156 0,0 -0.004,0.0039 -0.004,0.0039 -0.0235,0.0508 -0.0313,0.1055 -0.0391,0.1602 -0.008,0.0781 -0.0117,0.1562 -0.0156,0.2343 -0.008,0.2344 -0.0118,0.4688 -0.0118,0.7071 0,0.3789 0.008,0.7578 0.0157,1.1367 0.004,0.1836 0.008,0.3633 0.004,0.543 -0.0235,0.1171 -0.043,0.2382 -0.0664,0.3554 -0.008,0.0469 -0.0157,0.0899 -0.0235,0.1328 -0.3437,0.2813 -0.7851,0.4493 -1.2539,0.4493 -5.332,-0.0118 -10.664,-0.0391 -16,-0.0547 -0.6172,-0.0039 -1.2304,-0.0039 -1.8476,-0.0078 1.3515,1.5664 2.6992,3.1328 4.0508,4.6992 2.0234,2.3476 4.0468,4.6914 6.0703,7.039 0.2109,0.2461 0.4257,0.4883 0.6367,0.7344 0.7031,0.832 0.5156,2.1445 -0.3164,2.8125 -0.3672,0.293 -0.7969,0.4297 -1.2227,0.4297 -0.5937,0 -1.1797,-0.2656 -1.5898,-0.7461 -1.6914,-1.9922 -3.418,-3.9609 -5.125,-5.9414 -2.0977,-2.4336 -4.1992,-4.8672 -6.2969,-7.3008 -0.3398,-0.3945 -0.6758,-0.789 -1.0156,-1.1797 -0.0664,-0.0781 -0.1289,-0.164 -0.1797,-0.25 0.0156,-0.0468 0.0234,-0.0937 0.0195,-0.1484 0,-0.0078 0,-0.0195 0,-0.0274 -0.004,-0.0117 -0.004,-0.0273 -0.004,-0.0429 -0.168,-0.0117 -0.3359,-0.0156 -0.5039,-0.0156 0,0.0507 0,0.1015 0,0.1484 -0.004,0.0391 0,0.0781 0.0117,0.1133 0,0.0039 0.004,0.0078 0.004,0.0117 -0.008,0.1875 -0.0273,0.375 -0.039,0.5625 -0.0157,0.207 -0.0352,0.4101 -0.0586,0.6172 0,0 0,0.0039 0,0.0039 0,0.0039 0,0.0078 0,0.0117 -0.0625,0.5508 -0.1406,1.1094 -0.3321,1.6328 -0.1054,0.2813 -0.2343,0.5469 -0.4179,0.7813 -0.2813,0.3554 -0.6797,0.5859 -1.0703,0.8007 -0.6836,0.379 -1.3985,0.6993 -2.1524,0.918 -0.4961,0.1485 -1.0039,0.2656 -1.5117,0.3672 -0.4844,0.0977 -0.9727,0.1875 -1.4609,0.2656 -0.8868,0.1407 -1.7813,0.2461 -2.6797,0.2813 -0.8867,0.0312 -1.7735,0.039 -2.625,0.0586 -0.6875,0.0195 -1.375,0.0508 -2.0625,0.0742 -0.9844,0.0312 -1.9727,0.0625 -2.9571,0.1055 -0.9765,0.0429 -1.9492,0.0859 -2.9257,0.1132 -1.9688,0.0547 -3.9414,0.043 -5.875,0.0899 -1.1446,0.0273 -2.2852,0.0781 -3.4258,0.1211 -1.125,0.039 -2.2461,0.0859 -3.3672,0.125 -1.0156,0.0351 -2.0313,0.0625 -3.0469,0.0859 -0.9179,0.0195 -1.8398,0.043 -2.7617,0.0625 -1.7422,0.0352 -3.4844,0.0469 -5.2266,0.0586 -1.875,0.0117 -3.75,0.0078 -5.625,0.0156 -0.914,0.0039 -1.8281,0.0118 -2.7382,0.0157 -0.0118,0.0039 -0.0196,0.0039 -0.0313,0.0039 -0.3516,0.0039 -0.707,0.0039 -1.0586,0.0039 -0.0937,0 -0.1914,0 -0.2851,0 -0.4493,0 -0.8946,0 -1.3438,-0.0039 -0.0117,0 -0.0195,0 -0.0312,-0.0039 -0.9102,-0.0039 -1.8243,-0.0118 -2.7383,-0.0157 -1.875,-0.0078 -3.75,-0.0039 -5.625,-0.0156 -1.7422,-0.0117 -3.4844,-0.0234 -5.2266,-0.0586 -0.9219,-0.0195 -1.8437,-0.043 -2.7617,-0.0625 -1.0156,-0.0234 -2.0313,-0.0508 -3.0469,-0.0859 -1.1211,-0.0391 -2.2422,-0.086 -3.3672,-0.125 -1.1406,-0.043 -2.2812,-0.0938 -3.3906,-0.1211 C 17.9102,93.7539 15.9375,93.7656 13.9687,93.7109 12.9922,93.6836 12.0195,93.6406 11.043,93.5977 10.0586,93.5547 9.0703,93.5234 8.0859,93.4922 7.3984,93.4688 6.7109,93.4375 6.0547,93.418 5.1719,93.3984 4.2852,93.3906 3.3984,93.3594 2.5,93.3242 1.6055,93.2188 0.7187,93.0781 0.2305,93 -0.2578,92.9102 -0.7422,92.8125 -1.25,92.7109 -1.7578,92.5938 -2.2539,92.4453 c -0.7539,-0.2187 -1.4688,-0.539 -2.1523,-0.918 -0.3907,-0.2148 -0.7891,-0.4453 -1.0704,-0.8007 -0.1836,-0.2344 -0.3125,-0.5 -0.4179,-0.7813 -0.1914,-0.5234 -0.2696,-1.082 -0.3321,-1.6328 0,-0.0039 0,-0.0078 0,-0.0117 0,0 0,-0.0039 0,-0.0039 0,-0.0078 0,-0.0117 -0.0039,-0.0196 -0.0195,-0.1992 -0.039,-0.3984 -0.0547,-0.5976 -0.0156,-0.1875 -0.0312,-0.375 -0.039,-0.5625 0,-0.0039 0.0039,-0.0078 0.0039,-0.0117 0,-0.0039 0,-0.0039 0,-0.0078 0.0078,-0.0235 0.0117,-0.0508 0.0117,-0.0743 0,-0.0117 0,-0.0195 0,-0.0312 0,0 0,-0.0039 0,-0.0039 0,-0.0547 0,-0.1094 0,-0.1641 0,-0.0039 0,-0.0078 0,-0.0117 0,-0.0703 0.0078,-0.1445 -0.0039,-0.2109 -0.0039,-0.0157 -0.0078,-0.0313 -0.0156,-0.0469 -0.0039,-0.0117 -0.0117,-0.0234 -0.0196,-0.0352 0,-0.0039 -0.0039,-0.0039 -0.0039,-0.0078 0,-0.0429 0.0039,-0.082 0.0079,-0.1211 -0.2071,-0.0039 -0.418,-0.0039 -0.625,-0.0039 0.0664,0.6524 -0.1641,1.3321 -0.7344,1.7696 -0.918,1.3476 -1.7071,2.7851 -2.5391,4.1875 -2.0039,3.3554 -4.0078,6.7187 -6.0391,10.0625 -0.3789,0.621 -1.0546,0.9687 -1.7382,0.9687 -0.3477,0 -0.6953,-0.0898 -1.0078,-0.2773 -0.9258,-0.5586 -1.254,-1.8164 -0.6875,-2.7461 1.1171,-1.8282 2.2187,-3.668 3.3203,-5.5078 1.7304,-2.8008 3.3047,-5.7032 5.0859,-8.4727 -4.1211,-0.0117 -8.2461,-0.0391 -12.3711,-0.043 -0.0781,-0.0039 -0.1601,-0.0078 -0.2422,-0.0078 -0.707,-0.0273 -1.414,-0.0156 -2.1172,0.0156 -0.0664,0 -0.1328,0.0039 -0.1992,0.0079 -0.5937,-0.3438 -1.0039,-0.9844 -1.0039,-1.7071 0.0117,-3.0273 0.0195,-6.0547 0.0313,-9.082 0.0195,-6.293 0.0429,-12.5899 0.0625,-18.8828 0.0195,-6.4531 0.0429,-12.9063 0.0625,-19.3594 0.0234,-6.8594 0.0468,-13.7187 0.0703,-20.582 0.0195,-6.7774 0.0429,-13.5586 0.0664,-20.336 0.0117,-3.3593 0.0273,-6.7148 0.0351,-10.0742 -0.0664,0 -0.1328,0 -0.1992,0 -1.5351,0.0078 -3.0703,0.0274 -4.6055,0.0274 -0.4882,0 -0.9335,-0.1914 -1.2773,-0.4961 -0.8711,-0.1875 -1.625,-0.961 -1.6094,-1.8907 0.0313,-1.6406 0.0625,-3.2851 0.0938,-4.9297 0.0586,-3.0273 0.0078,-6.0625 0.0078,-9.0898 0,-0.5508 0,-1.0977 0,-1.6445 0,-0.3125 0,-0.625 0,-0.9336 -0.0039,-0.1055 -0.0039,-0.2071 -0.0039,-0.3086 -0.0078,-0.5235 0.1328,-0.9492 0.418,-1.3906 0.332,-0.5157 1.0703,-0.8633 1.6796,-0.8477 0.3438,0.0117 0.6836,0.0352 1.0274,0.0547 1.1211,-0.0156 2.2461,-0.0352 3.3711,-0.0508 0.0195,-4.875 0.0429,-9.75 0.0625,-14.625 0.0156,-3.8359 0.0312,-7.6719 0.0469,-11.5078 0.0078,-1.1289 0.0117,-2.2578 0.0156,-3.3867 0.0039,-0.4571 0.164,-0.8828 0.4297,-1.2227 0.6367,-0.0273 1.2695,-0.0586 1.9023,-0.0859 0.8359,-0.043 1.6758,-0.0781 2.5117,-0.1172 0.4063,-0.0156 0.8125,-0.0352 1.2227,-0.0508 0.1875,-0.0039 0.375,-0.0117 0.5625,-0.0195 0.1601,-0.0078 0.3281,-0.0078 0.4883,-0.043 0.0586,-0.0117 0.1093,-0.0508 0.1445,-0.1055 4.7031,0.0118 9.4063,0.0196 14.1055,0.0274 7.2929,0.0117 14.5898,0.0234 21.8867,0.0351 7.4297,0.0118 14.8555,0.0235 22.2851,0.0352 7.9688,0.0156 15.9415,0.0273 23.9141,0.0391 7.8164,0.0117 15.6367,0.0273 23.4531,0.039 7.9102,0.0117 15.8203,0.0235 23.7305,0.0391 3.8633,0.0078 7.7227,0.0156 11.5859,0.0195 0.0157,0.0039 0.0313,0.0078 0.0469,0.0078 0.1055,0.0039 0.211,-0.0039 0.3164,-0.0039 0.0196,0 0.0352,0 0.0508,0 0.207,0 0.4141,0 0.6172,0 0.008,0 0.0156,-0.0039 0.0234,-0.0039 0.3008,0.0039 0.6055,0.0117 0.9063,0.0235 0.7461,0.0234 1.4922,0.0546 2.2383,0.1054 0.125,0.0078 0.25,0.0157 0.3711,0.0274 0.0351,0.0547 0.0664,0.1093 0.0937,0.1679 0.0117,0.1055 0.0234,0.2071 0.0352,0.3125 0.008,0.0469 0.0117,0.0977 0.0195,0.1446 0.0195,0.4062 0.0351,0.8125 0.0547,1.2187 0.0234,0.4727 0.0508,0.9414 0.0976,1.4063 0,0.0039 0,0.0039 -0.004,0.0039 0.008,2.1289 0.0235,4.2578 0.0391,6.3867 0.0195,3.1914 0.0391,6.3867 0.0586,9.582 0.0195,2.8985 0.0351,5.7969 0.0547,8.6953 0.004,0.7032 0.008,1.4102 0.008,2.1133 1.6797,0 3.3594,0.0117 5.039,0.0196 0,0 0.004,0 0.004,0 0.3243,0 0.6407,0.0039 0.961,0.0039 0.5156,0 0.9961,0.1914 1.3594,0.5117 0.004,0 0.004,0.0039 0.008,0.0039 0.7031,0.3242 1.1523,1.0508 1.1797,1.8672 0.1367,4.2695 0.2656,8.539 0.4023,12.8125 0.0508,1.5742 0.0977,3.1484 0.1484,4.7226 0,0.0235 0.004,0.0508 0.004,0.0743 0,0.0117 0,0.0273 0,0.0429 z"/>
      </g>
    </g>
  </g>
</svg>