<?xml version="1.0" encoding="utf-8"?>
<svg xmlns="http://www.w3.org/2000/svg" viewBox="0 0 500 500">
  <defs>
    <clipPath id="clipPath28" clipPathUnits="userSpaceOnUse">
      <path id="path26" d="m 100.476,94.2641 h 67.328 v 12.0379 h -67.328 z"/>
    </clipPath>
  </defs>
  <g clip-path="url(#clipPath28)" id="g24" transform="matrix(1.333333, 0, 0, 1.333333, 70.958786, 111.224876)">
    <g transform="translate(106.8319,100.4936)" id="g30">
      <path id="path32" style="fill:#feffe2;fill-opacity:1;fill-rule:nonzero;stroke:none" d="m 0,0 c -0.1217,-0.2338 -0.3838,-0.4163 -0.786,-0.5474 -0.4306,-0.1215 -0.8611,-0.2386 -1.2914,-0.3509 1.0573,-0.9732 1.5861,-1.8996 1.5861,-2.7793 0,-0.2899 -0.0702,-0.552 -0.2105,-0.786 -0.2154,-0.3742 -0.6457,-0.5615 -1.2914,-0.5615 -0.5709,0 -1.3102,0.1544 -2.2178,0.4632 -0.3182,-0.3461 -0.7299,-0.5193 -1.2352,-0.5193 -0.1965,0 -0.3463,0.0469 -0.4492,0.1403 -0.1403,0.1312 -0.2105,0.3042 -0.2105,0.5194 0,0.2996 0.0983,0.5895 0.2948,0.8703 0,0.6084 0.0326,1.7545 0.0982,3.4389 0.0842,2.0493 0.1731,3.308 0.2667,3.7758 -0.2059,0.1498 -0.3088,0.3088 -0.3088,0.4773 0,0.1498 0.0748,0.3136 0.2246,0.4913 0.4303,0.5334 0.9637,0.8327 1.6002,0.8983 0.3274,0.0281 0.6081,-0.0982 0.8422,-0.379 C -2.9104,4.852 -2.7325,4.5527 -2.5546,4.2531 -1.4598,3.2238 -0.8516,2.6483 -0.7299,2.5266 -0.1217,1.8528 0.1825,1.2493 0.1825,0.7159 0.1825,0.4726 0.1215,0.234 0,0 Z m -2.5406,-3.2565 c 0,0.1965 -0.1568,0.4937 -0.4702,0.8913 -0.3137,0.3979 -0.6576,0.7418 -1.0317,1.0317 0,-0.1309 -0.0095,-0.4046 -0.0281,-0.8211 -0.0189,-0.4163 -0.0281,-0.6667 -0.0281,-0.751 0.6268,-0.3649 1.0574,-0.5474 1.2914,-0.5474 0.1776,0 0.2667,0.0656 0.2667,0.1965 0,0 0,0 0,0 z m 0.7299,4.1548 c 0,0.4773 -0.6692,1.1885 -2.0072,2.1336 -0.0562,-1.909 -0.0562,-1.909 -0.0562,-1.909 0.4865,-0.3741 1.0012,-0.5614 1.544,-0.5614 0.3461,0 0.5194,0.1123 0.5194,0.3368 0,0 0,0 0,0 z M 6.9902,4.0706 C 6.9902,3.9397 6.92,3.7899 6.7797,3.6214 6.6393,3.453 6.5597,3.3126 6.541,3.2003 6.4193,2.6483 6.3165,1.7686 6.2322,0.5615 6.1572,-0.4303 6.0449,-1.1089 5.8954,-1.4738 5.6613,-2.0072 5.2308,-2.2739 4.604,-2.2739 c -0.9826,0 -1.8015,0.1779 -2.4564,0.5334 -0.4305,0.234 -0.7534,0.5101 -0.9685,0.8281 -0.075,0.1123 -0.1123,0.234 -0.1123,0.365 0,0.234 0.0982,0.4399 0.2947,0.6176 0.1966,0.1779 0.4163,0.2526 0.6598,0.2246 0.1684,-0.0092 0.3228,-0.1123 0.4632,-0.3088 0.1776,-0.2433 0.3228,-0.3977 0.4351,-0.4632 0.1123,-0.1029 0.2316,-0.2106 0.3579,-0.3229 0.1264,-0.1123 0.2878,-0.1684 0.4843,-0.1684 0.1123,0 0.2478,0.021 0.4071,0.0631 0.159,0.0422 0.2386,0.1944 0.2386,0.4562 0,0.1404 -0.0189,0.2808 -0.0562,0.4211 C 3.612,0.3557 2.8775,0.7393 2.1476,1.1229 1.2585,1.6752 0.8141,2.3441 0.8141,3.1302 c 0,0.2715 0.0467,0.5568 0.1404,0.8562 0.2619,0.8235 0.7345,1.2352 1.4177,1.2352 0.5426,0 1.0808,-0.2386 1.6142,-0.7159 0.5334,-0.4772 0.8141,-0.9496 0.8422,-1.4177 0.1123,0.2716 0.2246,0.6457 0.3369,1.123 0.0561,0.2807 0.159,0.468 0.3088,0.5614 0.1123,0.0562 0.2618,0.0843 0.4491,0.0843 0.5521,0 0.8984,-0.2058 1.0387,-0.6177 0.0187,-0.0561 0.0281,-0.1123 0.0281,-0.1684 0,0 0,0 0,0 z M 3.7688,3.081 C 3.4833,3.5723 3.219,3.8179 2.9758,3.8179 2.8635,3.8179 2.7604,3.7572 2.6669,3.6355 2.4985,3.4203 2.4143,3.2098 2.4143,3.0038 2.4143,2.7606 2.5827,2.4658 2.9196,2.1195 3.1534,1.8857 3.4085,1.6962 3.6846,1.551 3.9605,1.4061 4.239,1.2681 4.5198,1.137 4.3044,1.9419 4.0542,2.5897 3.7688,3.081 Z M 13.04,3.453 C 12.7498,3.3407 12.6048,3.28 12.6048,3.2705 10.6257,1.6703 10.6257,1.6703 10.6257,1.6703 c 1.8247,-2.1335 1.8247,-2.1335 1.8247,-2.1335 0.1496,-0.1496 0.2994,-0.3088 0.4492,-0.4772 0.1496,-0.1685 0.2246,-0.3089 0.2246,-0.4211 0,-0.2152 -0.1123,-0.4117 -0.3369,-0.5896 -0.2246,-0.1776 -0.4446,-0.2667 -0.6597,-0.2667 -0.0562,0 -0.1077,0.0095 -0.1544,0.0281 -0.1592,0.0469 -0.2807,0.1404 -0.365,0.2807 -0.1403,0.2621 -0.2526,0.4446 -0.3368,0.5475 -0.6552,0.7206 -1.1885,1.3054 -1.6002,1.7545 -0.0094,-2.2364 -0.0094,-3.5933 0,-4.0706 0,-0.1028 0.0281,-0.2526 0.0842,-0.4491 0.0562,-0.1966 0.0842,-0.3369 0.0842,-0.4211 0,-0.1123 -0.0329,-0.2198 -0.0982,-0.3229 -0.1312,-0.1871 -0.4119,-0.2807 -0.8422,-0.2807 -0.3463,0 -0.5523,0.0936 -0.6176,0.2807 -0.0375,0.2902 -0.0516,0.5148 -0.0421,0.6738 0,8.1833 0,8.1833 0,8.1833 0,0.075 -0.0141,0.22 -0.0422,0.4351 -0.0188,0.1217 -0.0048,0.2386 0.0422,0.3509 0.0934,0.2527 0.3088,0.379 0.6456,0.379 0.3369,0 0.5988,-0.1077 0.7861,-0.3228 C 9.7554,4.7257 9.7975,4.6275 9.7975,4.5338 9.7975,4.4871 9.7765,4.4075 9.7344,4.2952 9.6922,4.1829 9.6712,4.0895 9.6712,4.0145 c 0,-1.0387 0,-1.0387 0,-1.0387 1.9932,1.544 1.9932,1.544 1.9932,1.544 0.0373,0.028 0.1403,0.1498 0.3088,0.3649 0.1028,0.1404 0.2246,0.2106 0.3649,0.2106 0.0748,0 0.1636,-0.0189 0.2667,-0.0562 0.4865,-0.1776 0.7299,-0.5145 0.7299,-1.0106 0,-0.0562 -0.0048,-0.1123 -0.014,-0.1684 C 13.2926,3.6635 13.199,3.528 13.04,3.453 c 0,0 0,0 0,0 z M 19.4476,2.9336 C 19.2371,2.7371 19.0195,2.6389 18.7949,2.6389 c -0.075,0 -0.1403,0.0094 -0.1965,0.028 -0.1592,0.0843 -0.2574,0.2106 -0.2947,0.379 -0.0375,0.1685 -0.075,0.2621 -0.1123,0.2808 -0.075,0.1217 -0.2154,0.2434 -0.4211,0.3649 -0.2435,0.1592 -0.4727,0.2386 -0.6878,0.2386 -0.2246,0 -0.4025,-0.1074 -0.5334,-0.3228 -0.0562,-0.1029 -0.1358,-0.3228 -0.2386,-0.6597 0.9356,-0.29 1.703,-0.8047 2.302,-1.544 0.552,-0.6644 0.8001,-1.2774 0.7439,-1.8388 -0.1123,-1.2258 -0.7253,-1.8388 -1.8388,-1.8388 -0.1403,0 -0.2855,0.0048 -0.4351,0.014 -0.7674,0.1031 -1.3804,0.5663 -1.8388,1.3896 -0.4119,0.758 -0.6176,1.6331 -0.6176,2.6249 0,0.9172 0.1825,1.6892 0.5474,2.316 0.4022,0.6832 0.9545,1.0479 1.6563,1.0949 0.3742,0.0186 0.8188,-0.0562 1.3335,-0.2246 0.4492,-0.159 0.7064,-0.2854 0.772,-0.379 0.4303,-0.3555 0.683,-0.6924 0.758,-1.0107 C 19.74,3.3361 19.6582,3.1302 19.4476,2.9336 Z m -1.4668,-3.3407 c 0,0.365 -0.1873,0.7791 -0.5614,1.2423 -0.3744,0.4632 -0.7815,0.7558 -1.2212,0.8773 -0.0562,-0.6269 0.0702,-1.2585 0.379,-1.895 0.2338,-0.4772 0.538,-0.7158 0.9123,-0.7158 0.3275,0 0.4913,0.1638 0.4913,0.4912 0,0 0,0 0,0 z m 10.1204,-4.8426 c -0.0842,-0.0372 -0.1919,-0.0561 -0.3229,-0.0561 -0.1403,0 -0.3579,0.0235 -0.6527,0.0702 -0.2947,0.0469 -0.4983,0.0701 -0.6105,0.0701 -0.0937,0 -0.2295,-0.0232 -0.4071,-0.0701 -0.1779,-0.0467 -0.3088,-0.0702 -0.393,-0.0702 -0.1123,0 -0.2154,0.0329 -0.3088,0.0982 -0.3931,0.2341 -0.7721,0.8517 -1.137,1.8529 -0.393,1.0762 -0.5615,2.0868 -0.5053,3.0319 0.1965,3.481 1.2584,5.3198 3.1863,5.5163 0.2151,0.0281 0.4351,0.0562 0.6597,0.0842 0.2152,0.0187 0.4351,-0.0094 0.6597,-0.0842 0.5615,-0.1498 1.09,-0.8233 1.5862,-2.0212 0.4958,-1.1978 0.711,-2.3628 0.6456,-3.4951 -0.1498,-2.7512 -0.9498,-4.3935 -2.4002,-4.9269 0,0 0,0 0,0 z m 0.5193,5.2637 c 0,0.8049 -0.1873,1.6517 -0.5614,2.5407 -0.3558,0.861 -0.6786,1.2913 -0.9685,1.2913 -0.3089,0 -0.6317,-0.4772 -0.9686,-1.4317 -0.3369,-0.9545 -0.5053,-1.8669 -0.5053,-2.7371 0,-0.6644 0.1309,-1.4364 0.393,-2.3161 0.2527,-0.7952 0.4562,-1.2282 0.6106,-1.2983 0.1544,-0.0702 0.3018,-0.1053 0.4422,-0.1053 0.5145,0 0.9029,0.4491 1.165,1.3475 0.159,0.5334 0.2853,1.3242 0.379,2.3722 0.0092,0.1123 0.014,0.2245 0.014,0.3368 0,0 0,0 0,0 z m 4.4917,-5.9936 c -0.1123,0 -0.2105,0.0421 -0.2947,0.1264 -0.1404,0.1498 -0.2316,0.393 -0.2738,0.7299 -0.0421,0.3368 -0.1101,0.5614 -0.2035,0.6737 -0.1123,0.1404 -0.3276,0.3183 -0.6457,0.5334 -0.2621,0.1965 -0.4094,0.3347 -0.4421,0.4141 -0.0329,0.0796 -0.0491,0.1568 -0.0491,0.2316 0,0.3557 0.2197,0.5334 0.6597,0.5334 0.1684,0 0.3461,-0.0373 0.5334,-0.1123 0.2526,-0.0934 0.566,-0.3882 0.9404,-0.8843 0.4211,-0.5426 0.6317,-1.0107 0.6317,-1.4037 0,-0.1871 -0.0562,-0.3415 -0.1685,-0.4632 -0.2246,-0.2526 -0.454,-0.379 -0.6878,-0.379 0,0 0,0 0,0 z m 4.7304,8.2535 c -0.206,-0.1123 -0.4492,-0.1684 -0.73,-0.1684 -0.2153,0 -0.3789,0.0305 -0.4912,0.0912 -0.1123,0.061 -0.1685,0.1943 -0.1685,0.4001 -0.0094,0.2246 -0.0515,0.3743 -0.1263,0.4491 -0.1779,0.5334 -0.4492,0.8001 -0.8141,0.8001 -0.2807,0 -0.4211,-0.4211 -0.4211,-1.2633 0,-0.7204 0.0888,-1.4971 0.2667,-2.33 0.1776,-0.8328 0.3461,-1.2493 0.5053,-1.2493 0.1496,0 0.2246,0.1919 0.2246,0.5755 0,0.075 0,0.1965 0,0.365 -0.0094,0.1592 -0.014,0.2807 -0.014,0.3649 0,0.3369 0.0467,0.5523 0.1403,0.6457 0.1965,0.1873 0.4773,0.2807 0.8422,0.2807 0.4678,0 0.7345,-0.145 0.8001,-0.4351 0.0281,-0.1215 0.0421,-0.2667 0.0421,-0.4351 0,-0.6177 -0.1592,-1.1883 -0.4772,-1.7125 -0.3839,-0.6176 -0.8844,-0.9264 -1.502,-0.9264 -0.786,0 -1.4271,0.4399 -1.923,1.3194 -0.4491,0.7955 -0.6737,1.7265 -0.6737,2.7933 0,0.9358 0.1825,1.7124 0.5474,2.3301 0.4117,0.6737 0.9872,1.0106 1.7265,1.0106 0.6268,0 1.2352,-0.4071 1.8248,-1.2212 0.0747,-0.1404 0.2432,-0.3509 0.5053,-0.6316 0.1684,-0.1965 0.2572,-0.3836 0.2667,-0.5615 0.0092,-0.2057 -0.1077,-0.3696 -0.3509,-0.4913 0,0 0,0 0,0 z m 3.7758,2.5266 c 0,-0.0934 -0.0399,-0.2432 -0.1193,-0.4492 -0.0796,-0.2057 -0.1193,-0.3741 -0.1193,-0.5053 0,-7.5797 0,-7.5797 0,-7.5797 0,-0.131 0.0372,-0.304 0.1123,-0.5194 0.0747,-0.2151 0.1122,-0.3695 0.1122,-0.4632 0,-0.1403 -0.0515,-0.2737 -0.1544,-0.4 -0.103,-0.1264 -0.3463,-0.1895 -0.7299,-0.1895 -0.262,0 -0.5101,0.0375 -0.7439,0.1123 -0.234,0.075 -0.3649,0.1638 -0.393,0.2667 0,0.0094 0,0.2386 0,0.6878 0.0561,8.1552 0.0561,8.1552 0.0561,8.1552 0,0.1312 -0.0329,0.2926 -0.0982,0.4843 -0.0656,0.1919 -0.0983,0.3298 -0.0983,0.414 0,0.1031 0.0281,0.1966 0.0842,0.2808 0.1871,0.2899 0.5146,0.4351 0.9826,0.4351 0.5053,0 0.8514,-0.1592 1.0387,-0.4772 0.0467,-0.0843 0.0702,-0.1685 0.0702,-0.2527 0,0 0,0 0,0 z m 3.9864,-7.0744 c -0.2902,0 -0.5709,0.0329 -0.8422,0.0982 -0.5242,0.1312 -0.9545,0.5755 -1.2914,1.3335 -0.3182,0.7113 -0.4772,1.5114 -0.4772,2.4003 0,1.0106 0.2057,1.8436 0.6176,2.4985 0.4678,0.7579 1.1321,1.1369 1.9932,1.1369 0.8702,0 1.5532,-0.4211 2.0493,-1.2633 0.4397,-0.7391 0.6597,-1.6328 0.6597,-2.6809 0,-1.3568 -0.3136,-2.3207 -0.9404,-2.8916 -0.4586,-0.4211 -1.0482,-0.6316 -1.7686,-0.6316 0,0 0,0 0,0 z m 1.0527,3.1582 c 0,0.7488 -0.1077,1.4506 -0.3228,2.1055 -0.2246,0.6832 -0.4681,1.006 -0.7299,0.9685 -0.4119,-0.0561 -0.6832,-0.379 -0.8142,-0.9685 -0.075,-0.3275 -0.1122,-0.8889 -0.1122,-1.6844 0,-0.5426 0.0982,-1.062 0.2947,-1.5581 0.2246,-0.552 0.4913,-0.8141 0.8001,-0.786 0.5895,0.0469 0.8843,0.6878 0.8843,1.923 0,0 0,0 0,0 z m 7.4113,1.3896 C 53.8629,2.1616 53.6196,2.1055 53.3389,2.1055 c -0.2154,0 -0.379,0.0305 -0.4913,0.0912 -0.1123,0.061 -0.1684,0.1943 -0.1684,0.4001 -0.0094,0.2246 -0.0516,0.3743 -0.1263,0.4491 -0.1779,0.5334 -0.4492,0.8001 -0.8142,0.8001 -0.2807,0 -0.4211,-0.4211 -0.4211,-1.2633 0,-0.7204 0.0889,-1.4971 0.2667,-2.33 0.1777,-0.8328 0.3461,-1.2493 0.5054,-1.2493 0.1495,0 0.2245,0.1919 0.2245,0.5755 0,0.075 0,0.1965 0,0.365 -0.0094,0.1592 -0.014,0.2807 -0.014,0.3649 0,0.3369 0.0467,0.5523 0.1404,0.6457 0.1965,0.1873 0.4772,0.2807 0.8422,0.2807 0.4678,0 0.7345,-0.145 0.8,-0.4351 0.0281,-0.1215 0.0421,-0.2667 0.0421,-0.4351 0,-0.6177 -0.1592,-1.1883 -0.4772,-1.7125 -0.3838,-0.6176 -0.8843,-0.9264 -1.5019,-0.9264 -0.7861,0 -1.4271,0.4399 -1.923,1.3194 -0.4492,0.7955 -0.6738,1.7265 -0.6738,2.7933 0,0.9358 0.1825,1.7124 0.5475,2.3301 0.4116,0.6737 0.9871,1.0106 1.7265,1.0106 0.6268,0 1.2352,-0.4071 1.8247,-1.2212 0.0748,-0.1404 0.2432,-0.3509 0.5053,-0.6316 0.1685,-0.1965 0.2573,-0.3836 0.2667,-0.5615 0.0092,-0.2057 -0.1077,-0.3696 -0.3509,-0.4913 0,0 0,0 0,0 z M 60.4274,3.453 C 60.1372,3.3407 59.9922,3.28 59.9922,3.2705 58.0131,1.6703 58.0131,1.6703 58.0131,1.6703 c 1.8247,-2.1335 1.8247,-2.1335 1.8247,-2.1335 0.1496,-0.1496 0.2994,-0.3088 0.4492,-0.4772 0.1496,-0.1685 0.2246,-0.3089 0.2246,-0.4211 0,-0.2152 -0.1123,-0.4117 -0.3369,-0.5896 -0.2246,-0.1776 -0.4446,-0.2667 -0.6597,-0.2667 -0.0562,0 -0.1077,0.0095 -0.1544,0.0281 -0.1592,0.0469 -0.2807,0.1404 -0.365,0.2807 -0.1403,0.2621 -0.2526,0.4446 -0.3368,0.5475 -0.6552,0.7206 -1.1885,1.3054 -1.6002,1.7545 -0.0094,-2.2364 -0.0094,-3.5933 0,-4.0706 0,-0.1028 0.0281,-0.2526 0.0842,-0.4491 0.0562,-0.1966 0.0842,-0.3369 0.0842,-0.4211 0,-0.1123 -0.0329,-0.2198 -0.0982,-0.3229 -0.1312,-0.1871 -0.4119,-0.2807 -0.8422,-0.2807 -0.3463,0 -0.5523,0.0936 -0.6176,0.2807 -0.0375,0.2902 -0.0516,0.5148 -0.0421,0.6738 0,8.1833 0,8.1833 0,8.1833 0,0.075 -0.0141,0.22 -0.0421,0.4351 -0.0189,0.1217 -0.0049,0.2386 0.0421,0.3509 0.0934,0.2527 0.3088,0.379 0.6456,0.379 0.3369,0 0.5988,-0.1077 0.7861,-0.3228 0.0842,-0.1029 0.1263,-0.2011 0.1263,-0.2948 0,-0.0467 -0.021,-0.1263 -0.0631,-0.2386 -0.0421,-0.1123 -0.0632,-0.2057 -0.0632,-0.2807 0,-1.0387 0,-1.0387 0,-1.0387 1.9932,1.544 1.9932,1.544 1.9932,1.544 0.0373,0.028 0.1403,0.1498 0.3088,0.3649 0.1028,0.1404 0.2246,0.2106 0.3649,0.2106 0.0748,0 0.1637,-0.0189 0.2667,-0.0562 0.4865,-0.1776 0.7299,-0.5145 0.7299,-1.0106 0,-0.0562 -0.0048,-0.1123 -0.014,-0.1684 C 60.68,3.6635 60.5864,3.528 60.4274,3.453 c 0,0 0,0 0,0 z"/>
    </g>
  </g>
</svg>