<?xml version="1.0" encoding="utf-8"?>
<svg xmlns="http://www.w3.org/2000/svg" viewBox="0 0 500 500">
  <defs>
    <clipPath id="clipPath28" clipPathUnits="userSpaceOnUse">
      <path id="path26" d="M 59.7516,332.574 H 191.942 v 90.06 H 59.7516 Z"/>
    </clipPath>
  </defs>
  <g clip-path="url(#clipPath28)" id="g24" transform="matrix(1.333333, 0, 0, 1.333333, 85.244705, -263.991821)">
    <g transform="translate(60.6701,337.3753)" id="g30">
      <path id="path32" style="fill:#000000;fill-opacity:1;fill-rule:nonzero;stroke:none" d="M 0,0 C 0.001,-0.0031 0.0018,-0.0062 0.0023,-0.0093 0.0013,0.0051 3e-4,0.0193 -7e-4,0.0335 -3e-4,0.0223 0,0.0112 0,0 Z"/>
    </g>
    <g transform="translate(60.9397,393.1566)" id="g34">
      <path id="path36" style="fill:#000000;fill-opacity:1;fill-rule:nonzero;stroke:none" d="m 0,0 c 0.0039,0.0312 0.0039,0.0625 0.0039,0.0937 0,0.004 0,0.0118 0,0.0196 C 0.0039,0.0742 0.0039,0.0391 0,0 Z"/>
    </g>
    <g transform="translate(61.3029,419.305)" id="g38">
      <path id="path40" style="fill:#000000;fill-opacity:1;fill-rule:nonzero;stroke:none" d="M 0,0 C 0,0 0.0039,0 0.0039,0.0039 0.0039,0.0039 0,0 0,0 Z"/>
    </g>
    <g transform="translate(60.929,392.6791)" id="g42">
      <path id="path44" style="fill:#000000;fill-opacity:1;fill-rule:nonzero;stroke:none" d="M 0,0 C 0,-0.0078 0,-0.0156 0,-0.0234 0,-0.0139 0,-0.0069 0,0 Z"/>
    </g>
    <g transform="translate(60.9407,393.1205)" id="g46">
      <path id="path48" style="fill:#000000;fill-opacity:1;fill-rule:nonzero;stroke:none" d="M 0,0 C 0,-0.0039 0,-0.0078 0,-0.0117 0,-0.0078 0,-0.0039 0,0 Z"/>
    </g>
    <g transform="translate(60.9407,393.1205)" id="g50">
      <path id="path52" style="fill:#000000;fill-opacity:1;fill-rule:nonzero;stroke:none" d="M 0,0 C 0,0.0117 0,0.0234 0,0.0352 0,0.0234 0,0.0117 0,0 Z"/>
    </g>
    <g transform="translate(61.2497,421.1444)" id="g54">
      <path id="path56" style="fill:#000000;fill-opacity:1;fill-rule:nonzero;stroke:none" d="m 0,0 c -0.0244,-0.0836 -0.0466,-0.1681 -0.067,-0.2531 0.6324,-0.6294 0.5904,-1.7901 0.5904,-2.6063 0,-1.0586 -0.039,-2.1133 -0.082,-3.1718 -0.0937,-2.4219 -0.2031,-4.8438 -0.2773,-7.2696 -0.1446,-4.8672 -0.336,-9.7265 -0.4688,-14.5937 0,-0.043 0,-0.086 -0.0039,-0.1289 0,-0.0313 0,-0.0625 0,-0.0938 0,0.0078 0,0.0117 0,0.0156 0,-0.0117 0,-0.0234 0,-0.0351 0,-0.0391 -0.0039,-0.0821 -0.0039,-0.125 0,0.0234 0,0.0469 0,0.0742 0,-0.0391 -0.0039,-0.0742 -0.0078,-0.1094 0.0039,-0.0547 0,-0.1094 0,-0.1679 0.0039,0.0468 0.0039,0.0898 0.0039,0.1367 0,-0.0508 0,-0.1055 -0.0039,-0.1602 0,0 0,-0.0039 0,-0.0039 0,-0.0195 0,-0.0391 0,-0.0586 0,-0.0547 -0.0039,-0.1094 -0.0078,-0.164 0,-0.0352 0,-0.0743 0,-0.1094 0.0039,0.0156 0.0039,0.0312 0.0039,0.0508 0,-0.0274 0,-0.0508 -0.0039,-0.0782 0,-0.0078 0,-0.0195 0,-0.0273 -0.0039,-0.1445 -0.0078,-0.2891 -0.0117,-0.4336 0,0.0156 0.0039,0.0352 0.0039,0.0547 -0.0391,-2.0235 -0.0352,-4.043 -0.0078,-6.0625 0.0039,-0.4805 0.0117,-0.957 0.0195,-1.4375 0,0.0117 0,0.0234 0,0.0351 0.0078,-0.4414 0.0156,-0.8828 0.0234,-1.3242 0.0469,-2.4961 0.1016,-4.9961 0.1953,-7.4922 0.0469,-1.2656 0.1016,-2.5312 0.1485,-3.8007 0.0195,-0.6133 0.039,-1.2305 0.0429,-1.8438 0.0039,-0.3125 0.0039,-0.6289 -0.0078,-0.9414 -0.0039,-0.293 -0.0078,-0.5938 -0.1015,-0.875 -0.0078,-0.0273 -0.0196,-0.0508 -0.0274,-0.0781 0.0039,-0.4844 0.0078,-0.9688 0.0078,-1.4532 0.0039,-1.207 -0.0078,-2.4101 -0.0507,-3.6132 -0.0235,-0.5625 -0.0469,-1.1211 -0.0899,-1.6797 -0.0039,-0.0313 -0.0039,-0.0664 -0.0078,-0.0977 0.0078,-0.9297 -0.0078,-1.8594 -0.0391,-2.789 -0.0195,-0.5899 -0.039,-1.1836 -0.082,-1.7735 -0.0234,-0.3554 -0.0312,-0.7656 -0.1328,-1.1289 0.0039,-0.043 0.0039,-0.082 0.0078,-0.125 0.0664,-1.3555 0.1289,-2.7109 0.1953,-4.0664 0.0508,-1.0039 0.0899,-2.0078 0.1211,-3.0117 0.043,-0.6484 0.0781,-1.3008 0.1133,-1.9492 0.0625,-1.1563 0.1055,-2.3125 0.0976,-3.4688 -0.0039,-0.4336 -0.0117,-0.8672 -0.0195,-1.3008 0.0039,-0.2461 0.0039,-0.4882 0.0039,-0.7304 0,-0.2774 0.0195,-0.5821 -0.039,-0.8555 -0.0274,-0.1289 -0.0743,-0.2539 -0.1329,-0.3633 0.0274,-1.2539 0.004,-2.5117 -0.0429,-3.7695 -0.0117,-0.3672 -0.0235,-0.7344 -0.0703,-1.0977 -0.0039,-0.0273 -0.0078,-0.0586 -0.0118,-0.0859 0.004,-0.0039 0.0079,-0.0039 0.0118,-0.0078 0,0 0.207,0.1797 0.207,0.1797 0,0 0.8242,-0.1172 0.8242,-0.1172 0.2695,0.1953 0.4258,0.5195 0.4297,0.875 0.0234,3.9414 0.0547,7.8828 0.0781,11.8203 0.0313,4.1289 0.0586,8.2539 0.086,12.3828 0.0273,4.1914 0.0586,8.3828 0.0859,12.5781 0.0273,4.1758 0.0586,8.3555 0.0859,12.5313 0.0274,4.1445 0.0586,8.293 0.086,12.4375 0.0273,3.9765 0.0547,7.9531 0.082,11.9297 0.0195,3.039 0.0391,6.0742 0.0586,9.1133 0,0.0078 0.0039,0.0156 0.0039,0.0195 0.0078,0.8398 0.0117,1.6758 0.0195,2.5156 0.0039,0.2031 -0.0703,0.3906 -0.1914,0.543 -0.0117,0 -0.0195,0 -0.0312,0 C 1.1275,0.367 0.6417,0.3813 0.1558,0.4028 0.0968,0.2689 0.0448,0.138 0,0 Z"/>
    </g>
    <g transform="translate(173.4363,420.6066)" id="g58">
      <path id="path60" style="fill:#000000;fill-opacity:1;fill-rule:nonzero;stroke:none" d="m 0,0 c 0.0117,0 0.0234,0 0.0352,0 0.001,2e-4 0.002,3e-4 0.003,5e-4 C 0.0258,0 0.0134,0 0,0 Z"/>
    </g>
    <g transform="translate(173.4745,420.6071)" id="g62">
      <path id="path64" style="fill:#000000;fill-opacity:1;fill-rule:nonzero;stroke:none" d="M 0,0 C 0.0032,1e-4 0.0064,4e-4 0.0096,5e-4 0.0178,0.0016 0.0268,0.0029 0.0361,0.0032 0.024,0.003 0.012,0.0022 0,0 Z"/>
    </g>
    <g transform="translate(187.4051,420.7863)" id="g66">
      <path id="path68" style="fill:#000000;fill-opacity:1;fill-rule:nonzero;stroke:none" d="M 0,0 C 0,0 -0.0039,0 -0.0078,0.0039 -0.0039,0 -0.0039,0 0,0 Z"/>
    </g>
    <g transform="translate(186.9285,421.1535)" id="g70">
      <path id="path72" style="fill:#000000;fill-opacity:1;fill-rule:nonzero;stroke:none" d="m 0,0 c 0,0 0,0 0,0.0039 0.0352,-0.043 0.0703,-0.082 0.1016,-0.1211 0.0039,0 0.0078,-0.0039 0.0117,-0.0078 C 0.0625,-0.0703 0.0156,-0.0156 -0.0273,0.043 -0.0156,0.0273 -0.0078,0.0156 0,0 Z"/>
    </g>
    <g transform="translate(124.9078,421.3529)" id="g74">
      <path id="path76" style="fill:#000000;fill-opacity:1;fill-rule:nonzero;stroke:none" d="M 0,0 C 0.0112,6e-4 0.0224,0.0012 0.0335,0.0018 0.0449,0.0028 0.0563,0.0037 0.0676,0.0037 0.0989,0.0076 0.1262,0.0076 0.1575,0.0115 0.1037,0.0077 0.05,0.0038 0,0 Z"/>
    </g>
    <g transform="translate(125.0027,421.3605)" id="g78">
      <path id="path80" style="fill:#000000;fill-opacity:1;fill-rule:nonzero;stroke:none" d="M 0,0 C 0.0547,0.0039 0.1094,0.0078 0.1602,0.0117 0.1055,0.0078 0.0547,0.0039 0,0 Z"/>
    </g>
    <g transform="translate(121.2119,421.0571)" id="g82">
      <path id="path84" style="fill:#000000;fill-opacity:1;fill-rule:nonzero;stroke:none" d="M 0,0 C 2e-4,0 4e-4,0 6e-4,1e-4 4e-4,0 2e-4,0 0,0 Z"/>
    </g>
    <g transform="translate(121.2385,421.0604)" id="g86">
      <path id="path88" style="fill:#000000;fill-opacity:1;fill-rule:nonzero;stroke:none" d="M 0,0 C -0.0087,0 -0.0173,-0.0021 -0.026,-0.0032 -0.0037,-1e-4 0.0215,3e-4 0.0469,0.0039 0.0312,0.0039 0.0156,0 0,0 Z"/>
    </g>
    <g transform="translate(121.2014,421.0579)" id="g90">
      <path id="path92" style="fill:#000000;fill-opacity:1;fill-rule:nonzero;stroke:none" d="m 0,0 c 0.0013,0 0.0026,0 0.0039,0 0,0 0,0 -0.0039,0 z"/>
    </g>
    <g transform="translate(61.2474,421.142)" id="g94">
      <path id="path96" style="fill:#000000;fill-opacity:1;fill-rule:nonzero;stroke:none" d="m 0,0 c -0.0232,-0.0826 -0.0446,-0.1666 -0.0646,-0.2514 0.182,-0.1771 0.3096,-0.4012 0.3966,-0.6549 0.086,-0.0234 0.1758,-0.0351 0.2657,-0.0351 0.1328,-0.0039 0.2656,-0.0039 0.3984,-0.0039 0.0234,0 0.0469,0 0.0703,0.0039 4.9727,-0.0078 9.9414,-0.0234 14.9102,-0.0352 C 21.2695,-0.9883 26.5625,-1 31.8555,-1.0117 37.2383,-1.0234 42.6172,-1.0352 48,-1.0469 c 5.4258,-0.0117 10.8477,-0.0234 16.2734,-0.0351 5.3868,-0.0118 10.7774,-0.0235 16.168,-0.0352 5.4063,-0.0117 10.8125,-0.0234 16.2188,-0.0351 5.2226,-0.0118 10.4453,-0.0235 15.6679,-0.0352 4.4571,-0.0078 8.918,-0.0195 13.375,-0.0273 0.6016,-0.004 1.2032,-0.004 1.8008,-0.004 0.2305,-0.0039 0.4609,-0.0039 0.6914,-0.0039 0.5469,0 1,0.4649 0.9961,1.0079 -0.004,0.0703 -0.0117,0.1406 -0.0273,0.2031 -0.3633,-0.0274 -0.7266,-0.0625 -1.0821,-0.1211 -0.3047,-0.0625 -0.6015,-0.1524 -0.8984,-0.25 0.0234,0.0078 0.0469,0.0195 0.0703,0.0273 -0.2578,-0.0898 -0.4687,-0.1445 -0.75,-0.1172 -0.1172,0.0118 -0.2266,0.043 -0.3281,0.0899 -0.4219,0.0625 -0.8477,0.0859 -1.2656,0.1211 0.0546,-0.0078 0.1093,-0.0117 0.1601,-0.0156 -1.2422,0.0937 -2.4883,0.1484 -3.7305,0.2304 -0.2695,0.0157 -0.539,0.0352 -0.8085,0.0508 -0.1954,-0.0195 -0.3907,-0.0391 -0.586,-0.0547 -2.5508,-0.2422 -5.1055,-0.3711 -7.664,-0.4804 -0.008,0 -0.0118,0 -0.0196,0 -0.008,-0.004 -0.0195,-0.004 -0.0273,-0.004 -0.004,0 -0.008,0 -0.0117,0 -0.0274,0 -0.0508,-0.0039 -0.0782,-0.0039 -2.1406,-0.0937 -4.2695,-0.1953 -6.4023,-0.2421 -2.0664,-0.0469 -4.1289,-0.0626 -6.1953,-0.0508 0.0547,0 0.1054,0 0.1601,0 -1.1875,0.0078 -2.375,0.0273 -3.5664,0.0508 -5.2304,0.1015 -10.4648,0.3164 -15.6914,0.5937 C 75.2383,0.0859 70.0234,0.5977 64.8047,0.2852 64.8555,0.2891 64.9102,0.293 64.9648,0.2969 64.8633,0.2891 64.7617,0.2852 64.6641,0.2773 64.7148,0.2812 64.7695,0.2852 64.8242,0.2891 64.707,0.2812 64.5898,0.2734 64.4727,0.2656 64.5234,0.2695 64.5781,0.2734 64.6328,0.2773 64.4531,0.2656 64.2695,0.2539 64.0898,0.2422 64.1445,0.2461 64.1953,0.25 64.25,0.2539 64.1328,0.2461 64.0156,0.2383 63.8984,0.2305 c 0.0274,0 0.0508,0 0.0782,0.0039 -0.0235,-0.0039 -0.043,-0.0039 -0.0625,-0.0039 -0.0625,-0.0078 -0.125,-0.0118 -0.1875,-0.0157 -0.0118,0 -0.0235,0 -0.0352,-0.0039 -0.0117,0 -0.0234,0 -0.0351,0 C 63.6094,0.207 63.5586,0.207 63.5117,0.2031 c 0.0039,0 0.0078,0 0.0078,0 C 62.9219,0.1602 62.332,0.1172 61.7383,0.0664 61.375,0.0352 61.0117,0.0039 60.6523,-0.0273 60.4258,-0.0469 60.1875,-0.0859 59.957,-0.0859 c -0.0156,-0.0039 -0.0312,-0.0039 -0.0468,-0.0039 0.0156,0 0.0312,0 0.0429,0.0039 -0.0039,0 -0.0078,0 -0.0117,0 -1.2695,-0.1094 -2.5391,-0.2227 -3.8086,-0.2852 -1.3359,-0.0703 -2.6719,-0.1055 -4.0078,-0.1367 -0.4531,-0.0117 -0.9062,-0.0195 -1.3594,-0.0274 -1.4843,-0.0781 -2.9726,-0.0898 -4.4609,-0.0585 -0.6914,0.0156 -1.3828,0.039 -2.0742,0.0703 -0.1328,0 -0.2696,0 -0.4024,0.0039 -2.8164,0.0273 -5.6367,0.0742 -8.457,0.1406 -0.0078,0 -0.0117,0 -0.0195,0 -0.043,0 -0.0899,0 -0.1328,0.0039 0.0078,0 0.0195,0 0.0273,0 -0.0195,0 -0.0352,0 -0.0508,0 0.0156,0 0.0313,0 0.0508,0 -0.0391,0 -0.0781,0 -0.1172,0.0039 -2.5859,0.0547 -5.168,0.1289 -7.75,0.2266 -1.8125,-0.0157 -3.6211,0.0039 -5.4297,0.082 -0.6914,0.0313 -1.3789,0.0664 -2.0664,0.1094 -1.8242,-0.1328 -3.6484,-0.2344 -5.4766,-0.2617 -2.8398,-0.0469 -5.6679,0.1445 -8.496,0.375 C 5.9648,0.1562 6.0156,0.1523 6.0703,0.1484 5.1914,0.2187 4.3125,0.2969 3.4336,0.3789 2.8242,0.3672 2.2187,0.3594 1.6133,0.3672 1.129,0.3708 0.6448,0.3845 0.1606,0.4051 0.1012,0.2736 0.0487,0.1387 0,0 Z"/>
    </g>
    <g transform="translate(189.7394,421.0679)" id="g98">
      <path id="path100" style="fill:#000000;fill-opacity:1;fill-rule:nonzero;stroke:none" d="m 0,0 c -0.0888,-0.149 -0.1415,-0.3226 -0.1468,-0.5075 -0.0937,-3.1015 -0.1523,-6.207 -0.2304,-9.3125 -0.0938,-3.875 -0.1914,-7.7461 -0.2852,-11.6211 -0.1055,-4.125 -0.207,-8.25 -0.3086,-12.375 -0.1016,-4.1054 -0.2031,-8.2109 -0.3047,-12.3125 -0.1015,-4.1523 -0.207,-8.3047 -0.3047,-12.4531 -0.1015,-4.1328 -0.207,-8.2656 -0.3086,-12.3945 -0.0976,-4.0664 -0.1992,-8.1328 -0.3007,-12.1992 -0.0274,-1.1407 -0.0586,-2.2852 -0.086,-3.4258 -0.0039,-0.2852 0.125,-0.5508 0.3242,-0.7344 0.4571,0.0039 0.9141,0.0078 1.375,0.0156 0.0313,0.0274 0.0547,0.0586 0.0821,0.0899 -0.0352,0.3632 -0.0664,0.7226 -0.0899,1.0859 -0.1133,1.7344 -0.1523,3.4727 -0.1718,5.2109 -0.0274,2.293 -0.0313,4.586 -0.0274,6.875 0.0117,4.8555 0.0274,9.711 0.1211,14.5625 0.0898,4.8789 0.2031,9.7579 0.4453,14.6289 0,0 0,-0.0039 0,-0.0039 0,0.0274 0,0.0547 0.0039,0.0821 0,0 0,0.0039 0,0.0039 0,0.0547 0.0039,0.1054 0.0078,0.1562 0,-0.0039 0,-0.0039 0,-0.0078 0.0625,1.2891 0.1289,2.5781 0.1914,3.8672 0.2188,4.8477 0.293,9.7031 0.3204,14.5508 0.0117,2.4687 0.0546,4.9375 0.1523,7.4062 0.1016,2.6289 0.2305,5.2539 0.3281,7.8828 0,-0.0546 -0.0039,-0.1054 -0.0039,-0.1601 0.0664,1.8516 0.1289,3.6953 0.1992,5.543 C 0.9626,-4.7458 0.9509,-3.9411 0.947,-3.1403 0.94,-2.0669 0.9363,-0.9873 0.9827,0.0874 0.6541,0.0649 0.3255,0.0396 0,0 Z"/>
    </g>
    <g transform="translate(123.6466,334.2618)" id="g102">
      <path id="path104" style="fill:#000000;fill-opacity:1;fill-rule:nonzero;stroke:none" d="M 0,0 C -0.0257,0.0015 -0.0515,0.0024 -0.0772,0.0035 -0.0515,0.0023 -0.0257,0.0012 0,0 Z"/>
    </g>
    <g transform="translate(61.124,336.3741)" id="g106">
      <path id="path108" style="fill:#000000;fill-opacity:1;fill-rule:nonzero;stroke:none" d="m 0,0 c -0.0048,-0.1612 -0.01,-0.3224 -0.0155,-0.4836 -0.0106,-0.3329 -0.0215,-0.6658 -0.0583,-0.9958 0.0341,-0.0337 0.0703,-0.0652 0.1091,-0.094 0,0 0.0859,0.0742 0.0859,0.0742 0,0 0.9688,-0.1328 0.9688,-0.1328 0.0234,0 0.043,0 0.0664,0 0.5078,0.0195 1.0156,0.0312 1.5273,0.039 0,0 0.0235,0.0039 0.0235,0.0039 0,0 0.1015,0.0157 0.1015,0.0157 0,0 0.1055,0.0195 0.1055,0.0195 0,0 0.1133,0.0156 0.1133,0.0156 0,0 0.1172,0.0117 0.1172,0.0117 0,0 0.1211,0.0157 0.1211,0.0157 0,0 0.1211,0.0078 0.1211,0.0078 0,0 0.1289,0.0117 0.1289,0.0117 0,0 0.1328,0.0078 0.1328,0.0078 0,0 0.1328,0.0078 0.1328,0.0078 0,0 0.1289,0 0.1289,0 0,0 0.1328,0.0039 0.1328,0.0039 0,0 0.1289,-0.0039 0.1289,-0.0039 0,0 0.1289,0 0.1289,0 0,0 0.1289,-0.0078 0.1289,-0.0078 0,0 0.125,-0.0078 0.125,-0.0078 0,0 0.1172,-0.0078 0.1172,-0.0078 0,0 0.1133,-0.0117 0.1133,-0.0117 0,0 0.1094,-0.0117 0.1094,-0.0117 0,0 0.1094,-0.0157 0.1094,-0.0157 0,0 0.1054,-0.0156 0.1054,-0.0156 0,0 0.0742,-0.0078 0.0742,-0.0078 0.5157,0 1.0313,0 1.5469,0 0.3477,0 0.6914,0 1.0391,0 2.3437,-0.0039 4.6875,-0.0391 7.0273,-0.082 0.0352,0 0.0703,0 0.1055,-0.0039 0.0078,0 0.0195,0 0.0273,0 0.0078,0 0.0118,0 0.0196,-0.004 4.4531,-0.082 8.9023,-0.2812 13.3554,-0.3515 -0.0547,0 -0.1054,0 -0.1601,0 2.4375,-0.0313 4.8789,-0.0469 7.3164,-0.0586 1.2812,-0.0039 2.5625,-0.0078 3.8437,-0.0117 0.5938,0 1.1836,0 1.7735,-0.0039 0.2851,0 0.5976,0.0273 0.8945,0 0.1133,0 0.2227,0 0.3359,0.0039 0.2852,0 0.5704,0 0.8594,0.0039 1.1953,0.0078 2.3906,0.0234 3.586,0.039 5.2226,0.0743 10.4492,0.1641 15.6757,-0.0781 -0.0117,0 -0.0234,0 -0.0351,0 0.0469,0 0.0937,0 0.1406,-0.0039 0.0039,0 0.0117,-0.0039 0.0195,-0.0039 -0.0039,0 -0.0039,0 -0.0078,0 0.3594,-0.0156 0.7227,-0.0352 1.0821,-0.0508 0.9843,-0.0117 1.9687,-0.0234 2.9531,-0.0351 0.1133,0 0.2265,0 0.3398,-0.0039 0.2305,0.0117 0.4688,-0.0079 0.6914,-0.0118 0.0508,0 0.1016,0 0.1524,-0.0039 2.5781,0.0821 5.1523,0.1953 7.7304,0.2578 1.5,0.0352 3.0039,0.0235 4.5079,-0.0273 2.1562,0.0508 4.3125,0.0664 6.4687,0.0156 -0.0508,0 -0.1055,0 -0.1602,0 1.7383,-0.0351 3.4727,-0.0312 5.2071,-0.0703 2.3828,-0.0508 4.7656,-0.1523 7.1484,-0.25 1.25,-0.0508 2.5039,-0.1133 3.75,-0.1875 1.0547,0.0274 2.1055,0.0586 3.1563,0.0977 2.5586,0.0898 5.1211,0.1797 7.6797,0.1875 1.2343,0.0039 2.4726,-0.0078 3.707,-0.0625 0.1367,-0.0078 0.2734,-0.0117 0.414,-0.0196 0.2461,-0.0039 0.4961,-0.0078 0.7461,-0.0117 0.2618,-0.0039 0.5196,-0.0078 0.7813,-0.0156 0.3789,-0.0039 0.7539,-0.0117 1.1328,-0.0313 1.2539,-0.0585 2.5039,-0.1875 3.7539,-0.3164 1.4375,0.0039 2.875,0.0039 4.3125,0.0274 0,0 0.0195,0.0078 0.0195,0.0078 0,0 0.004,0.0039 0.004,0.0039 -0.0391,0.3867 -0.0704,0.7773 -0.0938,1.1641 0,0.0234 -0.004,0.0429 -0.004,0.0625 -0.1758,0.1484 -0.4024,0.2343 -0.6445,0.2382 -3.8516,0.0508 -7.7032,0.086 -11.5547,0.125 -5.0352,0.0547 -10.0664,0.1094 -15.1016,0.1641 -5.082,0.0547 -10.1601,0.1133 -15.2383,0.168 -5.1562,0.0547 -10.3086,0.1094 -15.4648,0.1679 -5.211,0.0547 -10.4219,0.1133 -15.6328,0.168 C 49.215,-0.3 44.0392,-0.2453 38.8673,-0.1906 33.5236,-0.132 28.1798,-0.0734 22.8361,-0.0148 17.7384,0.0399 12.6408,0.0945 7.547,0.1492 5.2384,0.1766 2.9298,0.2274 0.6251,0.2274 0.3895,0.2274 0.1716,0.1412 0,0 Z"/>
    </g>
    <g transform="translate(92.1541,354.5972)" id="g110">
      <path id="path112" style="fill:#000000;fill-opacity:1;fill-rule:nonzero;stroke:none" d="m 0,0 c -5.8516,-0.3633 -11.8242,-0.2305 -17.5703,-1.4883 -5.4805,-1.625 -1.8711,-8.8437 2.7148,-8.8281 1.4414,-0.207 2.9493,-0.2695 4.3868,-0.0313 0.5312,0.1211 0.8906,0.6407 0.7812,1.1836 -0.2344,0.9219 -1.082,0.8204 -1.8906,0.7149 -0.3281,-0.043 -0.6563,-0.086 -0.9258,-0.0547 -1.6094,0.0898 -3.1289,0.0937 -4.418,0.9883 -1.4804,1.164 -2.2656,3.9179 0.3086,4.2304 16.9336,2.1524 34.1055,1.5157 51.1406,2.0938 12.6914,-0.2852 25.3828,-0.3399 38.0625,-0.9609 2.0235,-0.086 4.0469,-0.1875 6.0664,-0.3438 2.8907,-0.3828 5.8438,-0.0351 8.3946,-1.3867 0.8828,-1.2813 -0.211,-3.1094 -1.375,-3.8399 -1.3203,-0.6953 -2.711,-0.7109 -4.1133,-0.7812 -0.2695,-0.0313 -0.5938,0.0117 -0.9258,0.0547 -0.8086,0.1055 -1.668,0.207 -1.8945,-0.7149 -0.1094,-0.5429 0.25,-1.0625 0.7812,-1.1836 1.4414,-0.2382 2.9453,-0.1757 4.3867,0.0313 4.5508,-0.0234 8.2266,7.1953 2.7149,8.8281 C 80.8867,-0.2305 74.9062,-0.3633 69.0547,0 57.5586,0.4961 46.0351,0.5547 34.5273,0.8047 23.0195,0.5547 11.5,0.4961 0,0 Z"/>
    </g>
    <g transform="translate(114.7361,348.1324)" id="g114">
      <path id="path116" style="fill:#000000;fill-opacity:1;fill-rule:nonzero;stroke:none" d="m 0,0 c -11.0664,-0.1602 -22.0898,-1.168 -33.1406,-1.6484 -0.543,-0.0391 -0.9649,-0.5157 -0.9297,-1.0625 0.1875,-1.1289 1.3711,-1.0078 2.4609,-0.8868 0.4922,0.0547 0.9649,0.1094 1.3242,0.0508 11,0.6758 21.9922,1.4727 33.0157,1.6094 2.8203,0.0586 5.6445,0.0469 8.4609,-0.0742 0.2891,-0.0117 0.5586,0.0937 0.7539,0.2773 0.1992,-0.1836 0.4688,-0.289 0.7539,-0.2773 2.8164,0.1211 5.6406,0.1328 8.4609,0.0742 11.0274,-0.1367 22.0157,-0.9336 33.0157,-1.6094 0.3554,0.0547 0.8281,0 1.3164,-0.0508 1.0976,-0.1171 2.2851,-0.2382 2.4687,0.8868 0.0352,0.5468 -0.3867,1.0234 -0.9297,1.0625 -14.8125,0.6718 -29.625,2.1289 -44.4726,1.6289 -0.2344,-0.0078 -0.4492,-0.1133 -0.6133,-0.2696 -0.1601,0.1563 -0.375,0.2618 -0.6133,0.2696 C 9.5556,0.0576 7.7791,0.0873 6.0027,0.0873 4.0018,0.0873 2.0009,0.0497 0,0 Z"/>
    </g>
    <g transform="translate(124.0642,347.5347)" id="g118">
      <path id="path120" style="fill:#000000;fill-opacity:1;fill-rule:nonzero;stroke:none" d="M 0,0 C 0,-1.3789 1.6758,-1.1172 2.6172,-1.0859 3.5625,-1.1172 5.2383,-1.3789 5.2344,0 5.1133,1.0117 4.1445,0.9688 3.2891,0.9219 3.0508,0.9102 2.8164,0.8984 2.6172,0.9102 2.418,0.8984 2.1875,0.9102 1.9492,0.9219 1.7695,0.9317 1.5845,0.9416 1.4032,0.9416 0.7214,0.9416 0.0926,0.8023 0,0 Z"/>
    </g>
    <g transform="translate(124.0916,346.2418)" id="g122">
      <path id="path124" style="fill:#000000;fill-opacity:1;fill-rule:nonzero;stroke:none" d="m 0,0 c 0.4141,-0.5312 1.0781,-0.4844 1.7266,-0.4375 0.3007,0.0195 0.5937,0.0391 0.8632,0.0078 0.2657,0.0313 0.5586,0.0117 0.8594,-0.0078 C 4.0976,-0.4844 4.7617,-0.5312 5.1797,0 5.4453,0.3945 5.3789,0.875 5.0937,1.2305 4.8008,1.5938 4.3711,1.5781 3.9453,1.5625 3.7383,1.5547 3.5273,1.5469 3.3398,1.5859 3.0703,1.5508 2.7031,1.5664 2.3086,1.5781 2.1034,1.5841 1.8905,1.5902 1.6796,1.5902 0.5171,1.5902 -0.5852,1.4052 0,0 Z"/>
    </g>
    <g transform="translate(158.3885,346.3863)" id="g126">
      <path id="path128" style="fill:#000000;fill-opacity:1;fill-rule:nonzero;stroke:none" d="m 0,0 c -0.0391,-0.5508 0.3828,-1.0195 0.9258,-1.0664 2.8476,-0.2422 5.6836,-0.5703 8.5273,-0.8516 1.1328,-0.1172 2.2735,-0.1992 3.4141,-0.2773 0.4297,-0.0274 0.8633,-0.0469 1.293,-0.0664 0.3945,-0.0195 0.789,-0.043 1.1796,-0.0352 0.5469,0.0117 0.9688,0.5391 0.9336,1.0664 -0.0351,0.5508 -0.4961,0.9219 -0.9375,0.9297 -0.9492,0.0078 -1.8984,0.0703 -2.8437,0.1367 C 11.1484,-0.0664 9.8125,0.0547 8.4727,0.1914 6.0078,0.4414 3.5391,0.7187 1.0664,0.9297 1.043,0.9297 1.0156,0.9336 0.9883,0.9336 0.4766,0.9336 0.0352,0.5117 0,0 Z"/>
    </g>
    <g transform="translate(93.908,347.316)" id="g130">
      <path id="path132" style="fill:#000000;fill-opacity:1;fill-rule:nonzero;stroke:none" d="m 0,0 c -3.8164,-0.3242 -7.6055,-0.8203 -11.4258,-1.0938 -0.3906,-0.1054 -0.8945,-0.0898 -1.4101,-0.0742 -1.0743,0.0274 -2.1875,0.0586 -2.3711,-0.9922 -0.0352,-0.5273 0.3867,-1.0546 0.9336,-1.0664 1.9648,0.0274 3.9375,0.1914 5.8867,0.3789 2.8437,0.2813 5.6797,0.6094 8.5273,0.8516 C 1.4111,-1.8928 1.3094,0.0024 0.0782,0.0025 0.0526,0.0025 0.0266,0.0017 0,0 Z"/>
    </g>
    <g transform="translate(63.0603,418.4527)" id="g134">
      <path id="path136" style="fill:#949492;fill-opacity:1;fill-rule:nonzero;stroke:none" d="m 0,0 c 0,-0.0078 0,-0.0156 0,-0.0234 -0.0195,-3.0352 -0.043,-6.0743 -0.0625,-9.1094 -0.0273,-3.9766 -0.0547,-7.9531 -0.082,-11.9297 -0.0274,-4.1445 -0.0586,-8.293 -0.086,-12.4375 -0.0273,-4.1758 -0.0586,-8.3555 -0.0859,-12.5313 -0.0273,-4.1953 -0.0586,-8.3867 -0.0859,-12.5781 -0.0274,-4.1289 -0.0547,-8.2539 -0.086,-12.3828 -0.0234,-3.6172 -0.0508,-7.2383 -0.0703,-10.8594 2.0547,-0.0078 4.1094,-0.0507 6.168,-0.0742 5.0937,-0.0547 10.1914,-0.1094 15.289,-0.164 5.3438,-0.0586 10.6875,-0.1172 16.0313,-0.1758 5.1719,-0.0547 10.3476,-0.1094 15.5234,-0.168 5.211,-0.0547 10.4219,-0.1133 15.6328,-0.168 5.1563,-0.0586 10.3086,-0.1132 15.4649,-0.1679 5.0781,-0.0547 10.1562,-0.1133 15.2383,-0.168 5.0351,-0.0547 10.0664,-0.1094 15.1015,-0.1641 3.5117,-0.0351 7.0235,-0.0664 10.5352,-0.1132 0.0234,0.8867 0.0468,1.7734 0.0664,2.6601 0.1015,4.0664 0.2031,8.1328 0.3008,12.1992 0.1015,4.1289 0.207,8.2617 0.3086,12.3946 0.0976,4.1484 0.2031,8.3007 0.3046,12.4531 0.1016,4.1015 0.2032,8.207 0.3047,12.3125 0.1016,4.125 0.2032,8.25 0.3086,12.375 0.0938,3.875 0.1914,7.7461 0.2852,11.6211 0.0742,2.8906 0.1289,5.7851 0.2109,8.6719 -0.043,-0.0039 -0.0898,-0.0079 -0.1328,-0.0079 -0.2305,0 -0.4609,0.004 -0.6914,0.004 -0.5977,0 -1.1992,0.0039 -1.8008,0.0039 -4.457,0.0078 -8.918,0.0195 -13.375,0.0273 C 105.293,1.5117 100.0703,1.5234 94.8476,1.5352 89.4414,1.5469 84.0351,1.5586 78.6289,1.5703 73.2383,1.582 67.8476,1.5938 62.4609,1.6055 57.0352,1.6172 51.6133,1.6289 46.1875,1.6406 40.8047,1.6523 35.4258,1.6641 30.043,1.6758 24.75,1.6875 19.457,1.6992 14.1641,1.7109 9.4492,1.7227 4.7305,1.7383 0.0117,1.7461 0.0078,1.1641 0.0039,0.582 0,0 Z m 64.3008,-4.1289 c 0.0039,0 0.0039,0 0.0078,0 0.0352,0 0.0703,-0.0039 0.1016,-0.0117 0.8085,-0.0078 1.6171,-0.0156 2.4257,-0.0274 3.5352,-0.0312 7.0703,-0.0625 10.6055,-0.0976 3.9687,-0.0391 7.9414,-0.0742 11.9141,-0.1133 3.9179,-0.0391 7.8359,-0.0742 11.7539,-0.1094 3.8047,-0.039 7.6093,-0.0742 11.414,-0.1094 1.5313,-0.0156 3.0664,-0.0273 4.5977,-0.0429 0.3633,-0.0039 0.7305,-0.0078 1.0976,-0.0117 0.2188,0 0.4414,-0.0157 0.6641,-0.0079 0.0742,0.0235 0.1602,0.0313 0.2422,0.0235 0.1484,-0.0117 0.3008,-0.0469 0.4453,-0.0664 0.1094,-0.0196 0.2188,-0.0469 0.3242,-0.0742 0.1797,-0.043 0.3516,-0.1211 0.4727,-0.2657 0.1172,-0.1367 0.1172,-0.2929 0.1172,-0.457 0,-0.1172 0,-0.2305 -0.004,-0.3437 -0.004,-0.5391 -0.008,-1.0782 -0.0118,-1.6172 -0.0156,-1.418 -0.0273,-2.8399 -0.039,-4.2618 -0.0352,-3.5625 -0.0664,-7.1211 -0.0977,-10.6836 -0.0312,-3.7773 -0.0664,-7.5546 -0.1015,-11.332 -0.0313,-3.6914 -0.0391,-7.3789 -0.0586,-11.0703 -0.0196,-3.7344 -0.043,-7.4687 -0.0586,-11.1992 -0.004,-0.7656 -0.008,-1.5274 -0.0117,-2.2891 0,-0.0703 -0.0157,-0.1406 -0.0391,-0.2031 0.0351,-0.0742 0.0508,-0.1563 0.0469,-0.2383 -0.0157,-0.2851 -0.2539,-0.4726 -0.5235,-0.4726 -0.1093,0 -0.2148,0 -0.3242,0 0,0 0,0 -0.004,0 -3.6602,0 -7.3203,0.0117 -10.9805,0.0195 -4.0703,0.0039 -8.1406,0.0117 -12.207,0.0195 -3.9844,0.0078 -7.9687,0.0117 -11.9531,0.0196 -3.8633,0.0039 -7.7266,0.0117 -11.586,0.0195 -2.9726,0.0039 -5.9414,0.0117 -8.9101,0.0156 -2.9688,-0.0039 -5.9375,-0.0117 -8.9102,-0.0156 -3.8593,-0.0078 -7.7226,-0.0156 -11.5859,-0.0195 -3.9844,-0.0079 -7.9687,-0.0118 -11.9531,-0.0196 -4.0664,-0.0078 -8.1367,-0.0156 -12.2071,-0.0195 -3.6601,-0.0078 -7.3203,-0.0195 -10.9804,-0.0195 0,0 0,0 -0.0039,0 -0.1094,0 -0.2149,0 -0.3243,0 -0.2695,0 -0.5078,0.1875 -0.5234,0.4726 -0.0039,0.082 0.0117,0.1641 0.0469,0.2383 -0.0235,0.0625 -0.0391,0.1328 -0.0391,0.2031 -0.0039,0.7617 -0.0078,1.5235 -0.0117,2.2891 -0.0156,3.7305 -0.0391,7.4648 -0.0586,11.1992 -0.0195,3.6914 -0.0273,7.3789 -0.0586,11.0703 -0.0351,3.7774 -0.0703,7.5547 -0.1015,11.332 -0.0313,3.5625 -0.0625,7.1211 -0.0977,10.6836 -0.0117,1.4219 -0.0234,2.8438 -0.0391,4.2618 -0.0039,0.539 -0.0078,1.0781 -0.0117,1.6172 0,0.1132 -0.0039,0.2265 -0.0039,0.3437 0,0.1641 0,0.3203 0.1172,0.457 0.1211,0.1446 0.293,0.2227 0.4727,0.2657 0.1054,0.0273 0.2148,0.0546 0.3242,0.0742 0.1445,0.0195 0.2968,0.0547 0.4453,0.0664 0.0859,0.0078 0.168,0 0.2461,-0.0235 0.2187,-0.0078 0.4414,0.0079 0.6601,0.0079 0.3672,0.0039 0.7344,0.0078 1.0977,0.0117 1.5312,0.0156 3.0664,0.0273 4.5976,0.0429 3.8047,0.0352 7.6094,0.0704 11.4141,0.1094 3.918,0.0352 7.836,0.0703 11.7539,0.1094 3.9727,0.0391 7.9453,0.0742 11.9141,0.1133 3.5351,0.0351 7.0703,0.0664 10.6055,0.0976 0.8085,0.0118 1.6171,0.0196 2.4257,0.0274 0.0352,0.0078 0.0743,0.0117 0.1094,0.0117 0.2266,0 0.4531,-0.0039 0.6797,-0.0039 0.2266,0 0.4531,0.0039 0.6797,0.0039 z M 11.5234,-65.3438 c 5.7422,1.2618 11.7188,1.129 17.5704,1.4883 11.5,0.4961 23.0195,0.5586 34.5273,0.8086 11.5078,-0.25 23.0312,-0.3125 34.5273,-0.8086 5.8516,-0.3593 11.8282,-0.2265 17.5703,-1.4883 5.5118,-1.6328 1.836,-8.8476 -2.7148,-8.8281 -0.7305,-0.1054 -1.4727,-0.1719 -2.2188,-0.1797 -0.039,-0.0078 -0.0781,-0.0117 -0.1171,-0.0117 -0.3907,-0.0078 -0.7852,0.0156 -1.1797,0.0352 -0.4297,0.0195 -0.8633,0.039 -1.293,0.0664 -1.1406,0.0781 -2.2812,0.1601 -3.4141,0.2773 -1.5312,0.1524 -3.0586,0.3164 -4.5859,0.4727 -9.1133,0.5742 -18.2227,1.1445 -27.3594,1.2578 -2.2265,0.0469 -4.457,0.0469 -6.6836,-0.0156 -0.414,-0.4688 -1.0468,-0.4219 -1.6679,-0.3789 -0.3008,0.0195 -0.5977,0.0429 -0.8633,0.0078 -0.2695,0.0351 -0.5664,0.0117 -0.8633,-0.0078 -0.625,-0.043 -1.2578,-0.0899 -1.668,0.3789 -2.2265,0.0625 -4.457,0.0625 -6.6835,0.0156 -9.1329,-0.1133 -18.2461,-0.6836 -27.3594,-1.2578 -1.5274,-0.1563 -3.0547,-0.3203 -4.586,-0.4727 -1.7578,-0.164 -3.5351,-0.3164 -5.3086,-0.3633 -0.1914,-0.0078 -0.3867,-0.0117 -0.5781,-0.0156 -0.039,0 -0.0781,0.0039 -0.1172,0.0117 -0.7461,0.0078 -1.4922,0.0743 -2.2187,0.1797 -0.0048,0 -0.0101,0 -0.0149,0 -4.5791,-6e-4 -8.1747,7.2049 -2.7,8.8281 z"/>
    </g>
    <g transform="translate(61.0235,334.6911)" id="g138">
      <path id="path140" style="fill:#949492;fill-opacity:1;fill-rule:nonzero;stroke:none" d="m 0,0 c 0.002,0 0.0041,2e-4 0.0061,2e-4 0,0 0.0117,0.0117 0.0117,0.0117 C 0.0128,0.0144 0.0077,0.017 0.0027,0.0196 0.0018,0.013 9e-4,0.0066 0,0 Z"/>
    </g>
    <g transform="translate(75.5408,351.3121)" id="g142">
      <path id="path144" style="fill:#d9d9d1;fill-opacity:1;fill-rule:nonzero;stroke:none" d="m 0,0 c -2.5742,-0.3086 -1.7891,-3.0664 -0.3086,-4.2305 1.2891,-0.8906 2.8086,-0.8984 4.418,-0.9882 0.0195,-0.004 0.0351,-0.004 0.0547,-0.004 0.2695,0.0586 0.5781,0.0704 0.8945,0.0665 0.1211,0.0156 0.2422,0.0312 0.3633,0.0429 0.164,0.1641 0.3867,0.2696 0.6328,0.2891 2.7383,0.1172 5.4726,0.2695 8.2109,0.4336 1.3672,0.1406 2.7305,0.2812 4.1016,0.3945 0.2187,0.0156 0.4062,-0.0312 0.5586,-0.1133 6.75,0.418 13.5,0.8321 20.2695,0.9336 3.207,0.0781 6.4141,0.1289 9.6211,0.0391 0.375,0.3476 1.0469,0.3164 1.6524,0.2851 0.2421,-0.0117 0.4726,-0.0234 0.6718,-0.0117 0.1992,-0.0117 0.4297,0 0.668,0.0117 0.6133,0.0313 1.2851,0.0625 1.664,-0.2929 9.9766,0.2343 19.9415,-0.3633 29.9024,-0.9688 0.1406,0.0781 0.2969,0.1211 0.4609,0.1211 0.0274,0 0.0508,0 0.0782,-0.0039 1.3281,-0.1133 2.6523,-0.2461 3.9804,-0.3828 2.7774,-0.1641 5.5547,-0.3203 8.3321,-0.4453 0.246,-0.0195 0.4687,-0.125 0.6328,-0.2891 0.0039,0 0.0039,0 0.0039,0 0.2968,-0.0312 0.6054,-0.082 0.8828,-0.1054 0.1015,-0.004 0.207,-0.004 0.3086,-0.004 0.0117,-0.0039 0.0195,-0.0039 0.0273,0 0.0313,0 0.0625,0 0.0938,0.004 1.4023,0.0742 2.7929,0.0859 4.1133,0.7812 1.164,0.7305 2.2578,2.5625 1.375,3.8398 -2.5508,1.3516 -5.504,1.0079 -8.3946,1.3868 C 93.25,0.9453 91.2266,1.0469 89.2031,1.1328 76.5234,1.7539 63.832,1.8125 51.1406,2.0977 34.1055,1.5156 16.9336,2.1523 0,0 Z"/>
    </g>
    <g transform="translate(130.0955,349.3863)" id="g146">
      <path id="path148" style="fill:#d9d9d1;fill-opacity:1;fill-rule:nonzero;stroke:none" d="m 0,0 c -2.1133,-0.1055 -4.3164,-0.0469 -6.3711,-0.1797 -0.4219,0.0117 -0.6133,-0.2578 -0.5976,-0.5312 0.0156,-0.2735 0.2461,-0.5469 0.6562,-0.5274 3.5039,-0.1133 7.0352,-0.3008 10.5312,0.1445 0.2735,0.0274 0.4571,0.3126 0.418,0.5704 -0.043,0.2812 -0.3008,0.4453 -0.5703,0.4179 C 2.9805,-0.2187 2.0391,-0.3359 0.9883,-0.3555 0.8814,-0.0409 0.5501,0.0062 0.2445,0.0062 0.1591,0.0062 0.0759,0.0026 0,0 Z"/>
    </g>
    <g transform="translate(127.6932,346.3121)" id="g150">
      <path id="path152" style="fill:#949492;fill-opacity:1;fill-rule:nonzero;stroke:none" d="m 0,0 c -0.3437,-0.0039 -0.625,-0.0117 -0.7852,-0.0039 -0.5625,-0.0625 -1.1484,-0.0547 -1.7382,-0.0508 -0.9414,0.0117 -1.8868,0.0235 -2.7305,-0.2461 -0.3555,-0.3594 0.0156,-0.9414 0.4844,-0.8515 2.0156,-0.2657 4.8125,-0.3282 6.8281,-0.2266 0.0039,0 0.0039,0 0.0039,0 0.3828,-0.0156 0.9101,-0.2149 1.1484,0.1953 0.4727,-0.043 1.2266,-0.457 1.4375,0.1953 C 4.771,-0.1069 2.5182,0.0072 0.8328,0.0072 0.5313,0.0072 0.2484,0.0036 0,0 Z"/>
    </g>
    <g transform="translate(95.1463,348.4019)" id="g154">
      <path id="path156" style="fill:#d9d9d1;fill-opacity:1;fill-rule:nonzero;stroke:none" d="m 0,0 c -2.7461,-0.5664 -5.5898,-0.375 -8.375,-0.6758 -2.2695,-0.3281 -4.6406,-0.3359 -6.8672,-0.6797 -0.4961,-0.4804 0.0664,-1.0156 0.6328,-0.914 4.1446,0.1289 8.2735,0.7187 12.3985,0.9414 0.9648,0.0664 1.9375,0.0664 2.8984,0.1367 0.2695,0.0195 0.4961,0.2266 0.4922,0.5078 C 1.1719,-0.4062 0.9141,-0.1484 0.625,-0.1953 0.5413,-0.0446 0.3698,0.0443 0.1989,0.0443 0.1306,0.0443 0.0625,0.0302 0,0 Z"/>
    </g>
    <g transform="translate(61.1848,333.5892)" id="g158">
      <path id="path160" style="fill:#000000;fill-opacity:1;fill-rule:nonzero;stroke:none" d="M 0,0 C -0.0156,0.0039 -0.0312,0.0078 -0.0469,0.0117 -0.0547,0.0156 -0.0625,0.0156 -0.0703,0.0156 -0.043,0.0117 -0.0195,0.0039 0,0 Z"/>
    </g>
    <g transform="translate(61.0754,333.6165)" id="g162">
      <path id="path164" style="fill:#000000;fill-opacity:1;fill-rule:nonzero;stroke:none" d="M 0,0 C 0.0156,-0.0039 0.0352,-0.0078 0.0508,-0.0117 0.0283,-0.0053 0.0058,0.001 -0.0167,0.0052 -0.0115,0.0038 -0.0057,0.0019 0,0 Z"/>
    </g>
    <g transform="translate(61.1223,335.9017)" id="g166">
      <path id="path168" style="fill:#000000;fill-opacity:1;fill-rule:nonzero;stroke:none" d="m 0,0 c -0.0078,0 -0.0117,0 -0.0156,0 0,-0.0039 0,-0.0078 0,-0.0117 -0.0117,-0.3672 -0.0235,-0.7344 -0.0703,-1.0977 -0.0196,-0.1484 -0.0391,-0.3047 -0.0703,-0.4609 0.0268,-0.2351 0.0593,-0.4703 0.0903,-0.7079 0.0245,-0.0063 0.049,-0.0125 0.0737,-0.0187 0.1713,-0.0415 0.3426,-0.0779 0.5116,-0.1183 0.1704,-0.004 0.3344,-0.0191 0.504,-0.0457 0.0977,-0.0118 0.1993,-0.0235 0.3008,-0.0391 1.461,-0.0039 2.9219,-0.0156 4.3789,-0.0234 1.7031,-0.0078 3.4063,-0.0157 5.1055,-0.0235 3.0976,-0.0156 6.1953,-0.0312 9.2891,-0.0429 4.3046,-0.0196 8.6054,-0.0391 12.9062,-0.0586 4.6953,-0.0196 9.3906,-0.043 14.0859,-0.0664 4.7696,-0.0235 9.543,-0.043 14.3125,-0.0625 4.8946,-0.0235 9.7852,-0.0469 14.6758,-0.0664 4.8086,-0.0235 9.6172,-0.043 14.4258,-0.0665 4.6328,-0.0234 9.2656,-0.0429 13.9024,-0.0664 4.4492,-0.0195 8.9023,-0.039 13.3515,-0.0586 2.6524,-0.0117 5.3047,-0.0234 7.9571,-0.0351 0.0859,0 0.1757,0 0.2656,0 0.0195,-0.0039 0.039,-0.0039 0.0625,-0.0039 0.0898,0 0.1836,0 0.2773,0 0.2852,0 0.5703,-0.0039 0.8594,-0.0039 0.4062,0 0.7695,0.2148 0.9922,0.5312 -0.004,0.0157 -0.004,0.0274 -0.008,0.043 -0.0547,0.5078 -0.1016,1.0156 -0.1329,1.5234 0,0.0117 0,0.0235 0,0.0313 -0.2343,0.2305 -0.5585,0.3711 -0.9101,0.3711 -0.3789,0 -0.7578,0.0039 -1.1367,0.0039 -0.0235,0 -0.0469,0 -0.0703,0 -1.7188,0.0039 -3.4375,0.0195 -5.1563,0.0234 -4.2851,0.0196 -8.5742,0.0391 -12.8594,0.0586 -4.5429,0.0235 -9.0859,0.043 -13.6289,0.0625 -4.8007,0.0235 -9.5976,0.0469 -14.3945,0.0664 -4.9258,0.0196 -9.8516,0.0469 -14.7773,0.0664 -4.7696,0.0196 -9.5352,0.043 -14.3047,0.0664 -4.7657,0.0235 -9.5313,0.043 -14.2969,0.0625 -4.3867,0.0235 -8.7773,0.043 -13.1641,0.0625 -3.4023,0.0157 -6.8007,0.0313 -10.2031,0.0469 -2.0781,0.0078 -4.1523,0.0195 -6.2305,0.0274 -1.9959,0.0078 -3.992,0.0195 -5.9919,0.0273 C 0.6055,-0.0039 0.3047,0 0.0039,0 0.0039,0 0,0 0,0 Z"/>
    </g>
    <g transform="translate(189.6491,421.0594)" id="g170">
      <path id="path172" style="fill:#000000;fill-opacity:1;fill-rule:nonzero;stroke:none" d="m 0,0 c -0.2617,-0.2383 -0.4219,-0.5781 -0.4258,-0.9531 -0.0039,-0.0899 -0.0039,-0.1797 -0.0039,-0.2657 -0.0039,-0.0117 -0.0039,-0.0195 -0.0039,-0.0351 0,-0.0195 0,-0.0391 0.0039,-0.0625 -0.0039,-0.1445 -0.0078,-0.2852 -0.0117,-0.4297 0,-0.0156 0,-0.0312 0,-0.0508 -0.0391,-2.2773 -0.082,-4.5547 -0.125,-6.8359 -0.0781,-4.3555 -0.1563,-8.7149 -0.2344,-13.0742 -0.082,-4.6368 -0.164,-9.2696 -0.2461,-13.9063 -0.082,-4.582 -0.164,-9.168 -0.25,-13.7539 -0.0742,-4.3047 -0.1523,-8.6133 -0.2304,-12.918 -0.0625,-3.625 -0.129,-7.2539 -0.1954,-10.8789 -0.0586,-3.3515 -0.1211,-6.6992 -0.1796,-10.0507 -0.0157,-0.9415 -0.0352,-1.8868 -0.0508,-2.8282 -0.0117,-0.6836 0.6054,-1.2422 1.2695,-1.2343 0.6953,0.0117 1.2188,0.5898 1.2305,1.2695 0.0429,2.4726 0.0898,4.9453 0.1328,7.418 0.0664,3.6992 0.1328,7.3984 0.1992,11.0976 0.0664,3.7578 0.1367,7.5117 0.2031,11.2656 0.0782,4.5157 0.1602,9.0313 0.2422,13.543 0.086,4.7109 0.168,9.4219 0.2539,14.1328 0.0782,4.4727 0.1602,8.9453 0.2383,13.4219 0.0664,3.543 0.1289,7.082 0.1914,10.625 0.0111,0.6449 0.0222,1.2897 0.0347,1.9332 -0.0488,0.5737 -0.0423,1.1511 -0.1011,1.723 0.0078,-0.0507 0.0117,-0.1054 0.0195,-0.1562 -0.0234,0.2031 -0.0507,0.4102 -0.0937,0.6094 -0.0193,0.081 -0.0424,0.1544 -0.0655,0.2314 C 1.7101,-0.0505 1.5996,0.0471 1.4766,0.125 0.9844,0.0898 0.4883,0.0625 0,0 Z"/>
    </g>
    <g transform="translate(188.3777,335.64)" id="g174">
      <path id="path176" style="fill:#000000;fill-opacity:1;fill-rule:nonzero;stroke:none" d="M 0,0 C -1.4305,-0.4551 -0.806,-2.7173 0.6453,-2.4305 2.4848,-2.0679 1.7681,0.6835 0,0 Z"/>
    </g>
    <g transform="translate(187.0477,334.694)" id="g178">
      <path id="path180" style="fill:#000000;fill-opacity:1;fill-rule:nonzero;stroke:none" d="m 0,0 c 0.0117,-0.6875 0.5898,-1.2266 1.2734,-1.2266 0.6797,0 1.2383,0.6016 1.2266,1.2735 C 2.4883,0.7344 1.9102,1.2734 1.2266,1.2734 0.5469,1.2734 -0.0117,0.6719 0,0 Z"/>
    </g>
    <g transform="translate(187.5577,334.2686)" id="g182">
      <path id="path184" style="fill:#000000;fill-opacity:1;fill-rule:nonzero;stroke:none" d="m 0,0 c 0.0117,-0.6875 0.5898,-1.2266 1.2734,-1.2266 0.6797,0 1.2383,0.6016 1.2266,1.2735 C 2.4883,0.7344 1.9102,1.2734 1.2266,1.2734 0.5469,1.2734 -0.0117,0.6719 0,0 Z"/>
    </g>
    <g transform="translate(191.3444,421.1345)" id="g186">
      <path id="path188" style="fill:#000000;fill-opacity:1;fill-rule:nonzero;stroke:none" d="M 0,0 C -0.0039,0.0039 -0.0039,0.0078 -0.0078,0.0078 -0.0039,0.0039 -0.0039,0.0039 0,0 Z"/>
    </g>
    <g transform="translate(191.2194,421.2946)" id="g190">
      <path id="path192" style="fill:#000000;fill-opacity:1;fill-rule:nonzero;stroke:none" d="M 0,0 C 0,0 0,0 0,0.0039 -0.0156,0.0156 -0.0312,0.0273 -0.0469,0.0391 -0.0312,0.0273 -0.0156,0.0156 0,0 Z"/>
    </g>
    <g transform="translate(64.6061,422.197)" id="g194">
      <path id="path196" style="fill:#000000;fill-opacity:1;fill-rule:nonzero;stroke:none" d="m 0,0 c -0.2461,-0.0625 -0.4922,-0.1094 -0.7422,-0.1484 -0.6523,-0.0977 -1.3164,-0.1094 -1.9765,-0.1133 0.0546,0 0.1093,0 0.1601,0 -0.1094,-0.0039 -0.2187,-0.0039 -0.332,-0.0039 -0.0117,-0.0078 -0.0235,-0.0196 -0.0352,-0.0274 -0.0429,-0.0429 -0.0859,-0.082 -0.125,-0.125 -0.0351,-0.0468 -0.0703,-0.0937 -0.1015,-0.1406 -0.0157,-0.0234 -0.0274,-0.0508 -0.043,-0.0742 -0.0586,-0.1367 -0.1133,-0.2774 -0.1641,-0.4219 -0.0234,-0.0859 -0.0429,-0.1719 -0.0664,-0.2578 0.2891,-0.2891 0.4375,-0.6836 0.5078,-1.1055 2.7774,0 5.5586,-0.0039 8.3321,-0.0039 4.6093,-0.0039 9.2187,-0.0039 13.832,-0.0039 4.6406,-0.0039 9.2812,-0.0039 13.9258,-0.0039 4.8125,-0.0039 9.6289,-0.0078 14.4414,-0.0078 4.4883,0 8.9765,-0.0039 13.4687,-0.0039 4.6328,0 9.2656,0 13.8985,-0.0039 4.5312,-0.0039 9.0625,-0.0039 13.5937,-0.0039 4.4766,-0.0039 8.9531,-0.0039 13.4297,-0.0039 3.9219,-0.0039 7.8398,-0.0039 11.7617,-0.0078 2.7774,0 5.5547,0 8.332,0 1.4102,0 2.8204,-0.0039 4.2344,-0.0039 0.0313,0 0.0664,0 0.1016,0 0.0117,0 0.0234,0 0.0351,0 0.1942,0.0022 0.3791,0.0506 0.5441,0.1341 -0.007,0.1156 -0.0166,0.2311 -0.0284,0.3463 0.008,-0.0508 0.0117,-0.1054 0.0195,-0.1562 -0.0234,0.2031 -0.0508,0.4101 -0.0938,0.6093 -0.0195,0.0782 -0.0429,0.1563 -0.0664,0.2344 -0.0273,0.0625 -0.0546,0.125 -0.082,0.1836 -0.0273,0.0469 -0.0547,0.0938 -0.0859,0.1367 -0.0117,0.0118 -0.0196,0.0274 -0.0313,0.0391 -0.0312,0.0312 -0.0625,0.0586 -0.0937,0.0859 -0.1055,0.0821 -0.2149,0.1602 -0.3282,0.2344 -0.1289,0.0781 -0.2656,0.1406 -0.4023,0.2031 0.0391,-0.0156 0.0742,-0.0312 0.1133,-0.0468 -0.3477,0.1523 -0.7031,0.3125 -1.0664,0.4257 -0.0879,0.0252 -0.176,0.0476 -0.2641,0.0688 -0.7415,0.0019 -1.4828,0.0055 -2.2242,0.0055 -2.6445,0 -5.2891,0 -7.9297,0 -3.9414,0.0039 -7.8867,0.0039 -11.8281,0.0039 -4.418,0 -8.832,0.0039 -13.25,0.0078 -4.5391,0 -9.0742,0.0039 -13.6133,0.0039 -4.6367,0 -9.2695,0.0039 -13.9062,0.0039 -4.5039,0 -9.0078,0 -13.5118,0.0039 -4.7578,0.0039 -9.5156,0.0039 -14.2734,0.0039 -4.6523,0 -9.3086,0.0078 -13.9609,0.0078 -4.5664,0 -9.1328,0.0039 -13.6953,0.0039 C 6.2148,0.0195 5.9922,0.0234 5.7891,0.0195 5.5352,0.0117 5.2852,0.0117 5.0312,0.0156 4.3633,0.0234 3.6953,0.0547 3.0234,0.0781 c -0.9062,0 -1.8125,0 -2.7187,0.0039 C 0.2031,0.0508 0.0977,0.0273 0,0 Z"/>
    </g>
    <g transform="translate(61.037,419.6257)" id="g198">
      <path id="path200" style="fill:#000000;fill-opacity:1;fill-rule:nonzero;stroke:none" d="m 0,0 c 0.0017,0.025 0.0018,0.0518 0.0018,0.0785 0,0.027 0,0.054 0,0.0821 C 0.0018,0.107 0.0017,0.0535 0,0 Z"/>
    </g>
    <g transform="translate(61.0387,419.8175)" id="g202">
      <path id="path204" style="fill:#000000;fill-opacity:1;fill-rule:nonzero;stroke:none" d="m 0,0 c 2e-4,6e-4 3e-4,0.0011 5e-4,0.0017 1e-4,0.0015 4e-4,0.003 7e-4,0.0045 0,3e-4 0,6e-4 0,8e-4 C 6e-4,0.005 0,0.0028 0,0 Z"/>
    </g>
    <g transform="translate(61.0401,419.8251)" id="g206">
      <path id="path208" style="fill:#000000;fill-opacity:1;fill-rule:nonzero;stroke:none" d="m 0,0 c -1e-4,-4e-4 -1e-4,-9e-4 -2e-4,-0.0013 -1e-4,-9e-4 -1e-4,-0.0017 -1e-4,-0.0025 5e-4,0.002 0.001,0.0039 0.0014,0.0057 0,4e-4 0,8e-4 0,0.0012 C 7e-4,0.0022 4e-4,0.0011 0,0 Z"/>
    </g>
    <g transform="translate(61.0413,419.8293)" id="g210">
      <path id="path212" style="fill:#000000;fill-opacity:1;fill-rule:nonzero;stroke:none" d="m 0,0 c 0,-3e-4 0,-7e-4 0,-0.0011 1e-4,3e-4 1e-4,5e-4 2e-4,7e-4 C 3e-4,3e-4 5e-4,0.001 6e-4,0.0016 4e-4,0.0011 2e-4,5e-4 0,0 Z"/>
    </g>
    <g transform="translate(61.0725,333.6155)" id="g214">
      <path id="path216" style="fill:#000000;fill-opacity:1;fill-rule:nonzero;stroke:none" d="M 0,0 C 0.0195,-0.0039 0.0391,-0.0078 0.0547,-0.0117 0.0525,-0.0112 0.0504,-0.0106 0.0482,-0.0099 0.0274,-0.004 0.0066,0.0017 -0.0143,0.0055 -0.0092,0.004 -0.0041,0.002 0,0 Z"/>
    </g>
    <g transform="translate(61.0295,333.6273)" id="g218">
      <path id="path220" style="fill:#000000;fill-opacity:1;fill-rule:nonzero;stroke:none" d="M 0,0 C 0.0041,0 0.0093,-0.0011 0.0145,-0.0021 0.0137,-0.0016 0.0129,-0.001 0.0121,-3e-4 0.0117,-2e-4 0.0114,-1e-4 0.011,0 0.0074,0 0.0037,0 0,0 Z"/>
    </g>
    <g transform="translate(60.4982,333.8812)" id="g222">
      <path id="path224" style="fill:#000000;fill-opacity:1;fill-rule:nonzero;stroke:none" d="M 0,0 C -0.0039,0 -0.0039,0 -0.0039,0 -4e-4,-0.0035 0.003,-0.007 0.0061,-0.0108 0.0038,-0.0069 0.0016,-0.0031 0,0 Z"/>
    </g>
    <g transform="translate(60.4943,333.8812)" id="g226">
      <path id="path228" style="fill:#000000;fill-opacity:1;fill-rule:nonzero;stroke:none" d="M 0,0 C 0,0 0.0039,0 0.0039,0 -0.0039,0.0078 -0.0117,0.0156 -0.0156,0.0234 -0.0117,0.0156 -0.0039,0.0078 0,0 Z"/>
    </g>
    <g transform="translate(60.3029,334.2093)" id="g230">
      <path id="path232" style="fill:#000000;fill-opacity:1;fill-rule:nonzero;stroke:none" d="M 0,0 C -0.0037,0.0092 -0.0065,0.0184 -0.0093,0.0272 -0.0112,0.0314 -0.0131,0.0356 -0.015,0.0397 -0.0109,0.0274 -0.0055,0.0137 0,0 Z"/>
    </g>
    <g transform="translate(60.0022,335.7067)" id="g234">
      <path id="path236" style="fill:#000000;fill-opacity:1;fill-rule:nonzero;stroke:none" d="m 0,0 c -2e-4,-0.0186 -4e-4,-0.0373 -7e-4,-0.056 0.0012,0 0.0022,0 0.0045,0 0,0.0508 0,0.1055 0,0.1563 C 0.0038,0.0677 0.0022,0.0337 0,0 Z"/>
    </g>
    <g transform="translate(61.0334,419.5374)" id="g238">
      <path id="path240" style="fill:#000000;fill-opacity:1;fill-rule:nonzero;stroke:none" d="M 0,0 C 0,-0.0039 0,-0.0078 0,-0.0117 0,-0.0078 0,-0.0039 0,0 Z"/>
    </g>
    <g transform="translate(61.0334,419.5374)" id="g242">
      <path id="path244" style="fill:#000000;fill-opacity:1;fill-rule:nonzero;stroke:none" d="M 0,0 C 0,-0.0039 0,-0.0117 0,-0.0156 0,-0.0195 0,-0.0195 0,-0.0234 0,-0.0586 0,-0.0977 0,-0.1328 0,-0.0905 0,-0.0455 0,0 Z"/>
    </g>
    <g transform="translate(61.0334,419.5374)" id="g246">
      <path id="path248" style="fill:#000000;fill-opacity:1;fill-rule:nonzero;stroke:none" d="M 0,0 C 0,-0.0534 0,-0.1068 0,-0.1602 0,-0.1055 0,-0.0508 0,0 Z"/>
    </g>
    <g transform="translate(61.0334,419.5609)" id="g250">
      <path id="path252" style="fill:#000000;fill-opacity:1;fill-rule:nonzero;stroke:none" d="M 0,0 C 0,-0.0078 0,-0.0156 0,-0.0234 0,-0.0156 0,-0.0078 0,0 Z"/>
    </g>
    <g transform="translate(61.0334,419.5765)" id="g254">
      <path id="path256" style="fill:#000000;fill-opacity:1;fill-rule:nonzero;stroke:none" d="m 0,0 c 0,-0.0056 0,-0.011 0,-0.0156 0,0.0013 0,0.0026 0,0.0039 0,-0.0013 0,-0.0026 0,-0.0039 0,0.0059 2e-4,0.0118 4e-4,0.0177 C 2e-4,0.0014 2e-4,7e-4 0,0 Z"/>
    </g>
    <g transform="translate(61.0334,419.5765)" id="g258">
      <path id="path260" style="fill:#000000;fill-opacity:1;fill-rule:nonzero;stroke:none" d="M 0,0 C 0,0.0086 0,0.0179 0,0.0273 0,0.0156 0,0.0078 0,0 Z"/>
    </g>
    <g transform="translate(61.0373,419.6273)" id="g262">
      <path id="path264" style="fill:#000000;fill-opacity:1;fill-rule:nonzero;stroke:none" d="M 0,0 C 0,-0.0039 0,-0.0039 0,-0.0039 0,-0.0078 0,-0.0078 0,-0.0117 0,-0.0078 0,-0.0039 0,0 Z"/>
    </g>
    <g transform="translate(61.0373,419.6273)" id="g266">
      <path id="path268" style="fill:#000000;fill-opacity:1;fill-rule:nonzero;stroke:none" d="m 0,0 c 0,-0.0117 0,-0.0195 0,-0.0273 0,0.0078 0,0.0156 0,0.0234 0,0 0,0 0,0.0039 z"/>
    </g>
    <g transform="translate(61.0373,419.6702)" id="g270">
      <path id="path272" style="fill:#000000;fill-opacity:1;fill-rule:nonzero;stroke:none" d="M 0,0 C 0,-0.0325 -0.0026,-0.0623 -0.0035,-0.0916 -1e-4,-0.0767 0,-0.0616 0,-0.043 c 0,0.0049 0,0.0098 0,0.0157 0,0 0,0.0039 0,0.0039 C 0,-0.0156 0,-0.0078 0,0 0,0.0115 0,0.0233 0,0.0352 0,0.0229 0,0.0114 0,0 Z"/>
    </g>
    <g transform="translate(61.0412,419.8734)" id="g274">
      <path id="path276" style="fill:#000000;fill-opacity:1;fill-rule:nonzero;stroke:none" d="M 0,0 C 0,-0.0117 0,-0.0195 0,-0.0273 0,-0.0312 0,-0.0352 0,-0.0391 0,-0.0273 0,-0.0156 0,0 Z"/>
    </g>
    <g transform="translate(61.0412,419.8734)" id="g278">
      <path id="path280" style="fill:#000000;fill-opacity:1;fill-rule:nonzero;stroke:none" d="M 0,0 C 0,-0.0078 0,-0.0195 0,-0.0312 0,-0.0208 0,-0.0104 0,0 Z"/>
    </g>
    <g transform="translate(61.0412,419.8734)" id="g282">
      <path id="path284" style="fill:#000000;fill-opacity:1;fill-rule:nonzero;stroke:none" d="M 0,0 C 0,0.0065 0,0.013 0,0.0195 0,0.0273 0,0.0352 0,0.0391 0,0.0703 0,0.1016 0,0.1289 0,0.0878 0,0.0441 0,0 Z"/>
    </g>
    <g transform="translate(61.8889,421.9359)" id="g286">
      <path id="path288" style="fill:#000000;fill-opacity:1;fill-rule:nonzero;stroke:none" d="M 0,0 C 0.0547,0 0.1094,0 0.1602,0 0.0508,-0.0039 -0.0625,-0.0039 -0.1719,-0.0039 -0.1875,-0.0156 -0.1992,-0.0234 -0.2109,-0.0312 -0.25,-0.0742 -0.293,-0.1133 -0.332,-0.1562 -0.3672,-0.2031 -0.4023,-0.25 -0.4375,-0.2969 c -0.0117,-0.0234 -0.0273,-0.0508 -0.0391,-0.0742 -0.0625,-0.1367 -0.1171,-0.2773 -0.164,-0.418 -0.0742,-0.2539 -0.1289,-0.5156 -0.1719,-0.7773 -0.0195,-0.1641 -0.0313,-0.3281 -0.0352,-0.4961 0,-0.0167 0,-0.0328 0,-0.0469 -0.0039,-0.0664 -0.0039,-0.1328 -0.0039,-0.1992 0,-0.0049 0,-0.0098 0,-0.0156 0,0.0039 0,0.0039 0,0.0039 0,-0.0078 0,-0.0156 0,-0.0234 0,-0.002 0,-0.003 0,-0.004 -0.0039,-0.0156 -0.0039,-0.0312 -0.0039,-0.0507 0,-0.0664 0,-0.1368 0,-0.2071 0,0.0547 0,0.1094 0,0.1602 0,-0.1117 0,-0.22 0,-0.3281 0,-0.0196 0,-0.0391 -0.0039,-0.0586 0,-0.0122 0,-0.0254 0,-0.0391 0,-0.7773 -0.0469,-1.5391 -0.1211,-2.3125 C -0.9883,-5.2617 -0.9922,-5.3398 -1,-5.418 c -0.0391,-3.6875 -0.0781,-7.375 -0.1211,-11.0625 -0.0508,-4.4258 -0.0977,-8.8515 -0.1484,-13.2773 -0.0508,-4.6406 -0.1016,-9.2852 -0.1524,-13.9258 -0.0469,-4.582 -0.0976,-9.1602 -0.1484,-13.7422 -0.0469,-4.125 -0.0899,-8.25 -0.1367,-12.3711 -0.0196,-1.7969 -0.0391,-3.5937 -0.0586,-5.3906 0,-0.0234 0,-0.0469 0,-0.0664 -0.0274,-2.5352 -0.0547,-5.0703 -0.0821,-7.6094 -0.0115,-1.0627 -0.0243,-2.1268 -0.0369,-3.1906 0.0255,-0.1929 0.015,-0.3933 0.0252,-0.5906 0.0352,-0.2618 0.0938,-0.5157 0.1563,-0.7696 0.0277,-0.0727 0.0524,-0.1453 0.0794,-0.218 0.0035,-0.008 0.0069,-0.0161 0.0104,-0.0242 -0.003,0.0071 -0.006,0.0138 -0.009,0.0204 0.003,-0.0081 0.0059,-0.0162 0.009,-0.0243 0.004,-0.0088 0.0082,-0.0177 0.0123,-0.0266 -0.0017,0.0052 -0.0033,0.0103 -0.0045,0.0149 0.0042,-0.0082 0.0072,-0.0176 0.0103,-0.0274 0.0303,-0.0651 0.0627,-0.1302 0.0952,-0.1952 0.0234,-0.0391 0.0508,-0.0782 0.0781,-0.1172 0.0196,-0.0274 0.043,-0.0547 0.0664,-0.0781 0.0157,-0.0196 0.0352,-0.0352 0.0547,-0.0508 0.0039,-0.0039 0.0117,-0.0078 0.0195,-0.0117 0.0352,-0.0196 0.0743,-0.0391 0.1094,-0.0547 0.1072,-0.0399 0.2145,-0.0724 0.3236,-0.1016 2e-4,0 4e-4,0 6e-4,0 2e-4,-1e-4 3e-4,-1e-4 4e-4,-3e-4 0.0043,-0.0011 0.0086,-0.0023 0.0129,-0.0034 7e-4,0 0.0016,-2e-4 0.0024,-2e-4 -6e-4,0 -0.0011,0 -0.0017,0 0.0252,-0.0067 0.0505,-0.0132 0.0759,-0.0195 0.1627,-0.0401 0.3286,-0.0754 0.4926,-0.114 0.1758,-0.0034 0.3445,-0.0188 0.5191,-0.0462 0.1094,-0.0156 0.2227,-0.0273 0.3359,-0.0469 0.0235,2.3789 0.0508,4.7578 0.0782,7.1407 0.0234,2.375 0.0507,4.75 0.0781,7.125 0,0.0195 0,0.0429 0,0.0625 0.0391,3.7382 0.082,7.4765 0.1211,11.2109 0.0508,4.4414 0.0976,8.8828 0.1484,13.3242 0.0508,4.6602 0.1016,9.3203 0.1524,13.9805 0.0468,4.5195 0.0976,9.043 0.1484,13.5625 0.0469,4.5039 0.0977,9.0039 0.1484,13.5039 0.0274,2.5156 0.0547,5.0312 0.0821,7.5508 0,0.2148 -0.0039,0.4336 0.0039,0.6484 0,0.0274 0.0039,0.0547 0.0039,0.086 0,0.0078 0,0.0156 0,0.0273 0,0.1289 -0.0195,0.2539 -0.0586,0.3711 C 1,0.0117 0.5,0.0039 0,0 Z"/>
    </g>
    <g transform="translate(62.3083,422.31)" id="g290">
      <path id="path292" style="fill:#000000;fill-opacity:1;fill-rule:nonzero;stroke:none" d="m 0,0 c -0.1641,-0.0898 -0.3242,-0.1875 -0.4805,-0.293 -0.0468,-0.0351 -0.0976,-0.0742 -0.1484,-0.1132 -0.0391,-0.043 -0.082,-0.0821 -0.1211,-0.125 -0.0352,-0.0469 -0.0703,-0.0938 -0.1055,-0.1407 -0.0117,-0.0234 -0.0273,-0.0508 -0.039,-0.0742 -0.0625,-0.1367 -0.1172,-0.2773 -0.1641,-0.4219 -0.0742,-0.25 -0.1289,-0.5117 -0.1719,-0.7734 -10e-5,-7e-4 -10e-5,-0.0015 -2e-4,-0.0022 0.237,-0.252 0.5741,-0.408 0.9416,-0.408 0.6797,0 1.2383,0.6016 1.2266,1.2735 C 0.9261,-0.5574 0.5929,-0.1219 0.1323,0.0596 0.088,0.0404 0.0439,0.0205 0,0 Z"/>
    </g>
    <g transform="translate(61.038,419.6463)" id="g294">
      <path id="path296" style="fill:#000000;fill-opacity:1;fill-rule:nonzero;stroke:none" d="m 0,0 c 1e-4,-1e-4 2e-4,-2e-4 3e-4,-2e-4 2e-4,0.0076 5e-4,0.0153 5e-4,0.0232 0,-0.0078 0,-0.0156 0,-0.0234 0,0 0,-3e-4 0,-3e-4 0,0.0198 0,0.0394 0,0.0589 C 8e-4,0.0385 7e-4,0.019 0,0 Z"/>
    </g>
    <g transform="translate(61.0375,419.6468)" id="g298">
      <path id="path300" style="fill:#000000;fill-opacity:1;fill-rule:nonzero;stroke:none" d="m 0,0 c 1e-4,-2e-4 3e-4,-3e-4 5e-4,-5e-4 7e-4,0.019 7e-4,0.0386 7e-4,0.0582 0,0.027 0,0.054 0,0.082 C 0.0012,0.0932 0.0011,0.0466 0,0 Z"/>
    </g>
    <g transform="translate(61.0387,419.8178)" id="g302">
      <path id="path304" style="fill:#000000;fill-opacity:1;fill-rule:nonzero;stroke:none" d="m 0,0 c 2e-4,4e-4 3e-4,9e-4 5e-4,0.0013 0,0.001 2e-4,0.0021 4e-4,0.0031 C 4e-4,0.0027 0,0.0012 0,0 Z"/>
    </g>
    <g transform="translate(61.0399,419.8229)" id="g306">
      <path id="path308" style="fill:#000000;fill-opacity:1;fill-rule:nonzero;stroke:none" d="M 0,0 C 0,-8e-4 -1e-4,-0.0015 -1e-4,-0.0023 4e-4,-8e-4 9e-4,6e-4 0.0013,0.0022 c 0,7e-4 0,0.0014 1e-4,0.0021 C 9e-4,0.0029 4e-4,0.0014 0,0 Z"/>
    </g>
    <g transform="translate(61.0413,419.8296)" id="g310">
      <path id="path312" style="fill:#000000;fill-opacity:1;fill-rule:nonzero;stroke:none" d="m 0,0 c 0,-8e-4 -1e-4,-0.0015 -1e-4,-0.0023 2e-4,6e-4 4e-4,0.0012 6e-4,0.0017 C 6e-4,5e-4 8e-4,0.0015 9e-4,0.0026 5e-4,0.0017 3e-4,9e-4 0,0 Z"/>
    </g>
    <g transform="translate(61.4985,421.6991)" id="g314">
      <path id="path316" style="fill:#000000;fill-opacity:1;fill-rule:nonzero;stroke:none" d="m 0,0 c -0.0152,-0.0203 -0.0305,-0.0406 -0.0457,-0.061 -0.0117,-0.0234 -0.0274,-0.0508 -0.0391,-0.0742 -0.0625,-0.1367 -0.1172,-0.2773 -0.1641,-0.4219 -0.0742,-0.25 -0.1289,-0.5117 -0.1718,-0.7734 -0.0196,-0.1641 -0.0313,-0.3281 -0.0352,-0.4961 0,-0.0091 0,-0.0182 0,-0.0273 0,-0.0039 0,-0.0079 0,-0.0118 0,0.0131 0,0.0261 0,0.0391 0,-0.0078 0,-0.0195 0,-0.0312 0,0.0546 0,0.1093 0,0.1601 0,-0.0312 0,-0.0586 0,-0.0898 0,-0.0039 0,-0.0118 0,-0.0196 0,-0.0226 -0.0016,-0.0453 -0.0027,-0.068 3e-4,0.002 8e-4,0.0038 0.0014,0.0056 4e-4,0.0117 7e-4,0.0235 0.0013,0.0351 0,-0.0078 0,-0.0117 0,-0.0195 0,-0.0038 0,-0.0084 -4e-4,-0.013 10e-5,4e-4 2e-4,8e-4 4e-4,0.0012 0,-0.0012 -4e-4,-0.0027 -9e-4,-0.0044 -10e-5,-0.0013 -3e-4,-0.0026 -6e-4,-0.0039 -0.002,-0.0595 -0.0024,-0.1203 -0.0024,-0.1795 0.2326,-0.2326 0.5561,-0.3747 0.9063,-0.3747 0.6796,0 1.2382,0.6016 1.2265,1.2735 C 1.6613,-0.4672 1.0832,0.0718 0.3996,0.0718 0.2608,0.0718 0.126,0.0464 0,0 Z"/>
    </g>
    <g transform="translate(61.0307,419.0059)" id="g318">
      <path id="path320" style="fill:#000000;fill-opacity:1;fill-rule:nonzero;stroke:none" d="m 0,0 c 1e-4,-1e-4 1e-4,-1e-4 2e-4,-2e-4 0,0.0198 0,0.0393 0,0.0582 C 2e-4,0.0387 1e-4,0.0193 0,0 Z"/>
    </g>
    <g transform="translate(61.037,419.626)" id="g322">
      <path id="path324" style="fill:#000000;fill-opacity:1;fill-rule:nonzero;stroke:none" d="m 0,0 c 0.0017,0.025 0.0018,0.0518 0.0018,0.0785 0,0.027 0,0.054 0,0.0821 C 0.0018,0.107 0.0017,0.0535 0,0 Z"/>
    </g>
    <g transform="translate(61.0387,419.8178)" id="g326">
      <path id="path328" style="fill:#000000;fill-opacity:1;fill-rule:nonzero;stroke:none" d="m 0,0 c 2e-4,4e-4 3e-4,9e-4 5e-4,0.0013 0,0.001 2e-4,0.0021 4e-4,0.0031 C 4e-4,0.0027 0,0.0012 0,0 Z"/>
    </g>
    <g transform="translate(61.0399,419.8229)" id="g330">
      <path id="path332" style="fill:#000000;fill-opacity:1;fill-rule:nonzero;stroke:none" d="M 0,0 C 0,-8e-4 -1e-4,-0.0015 -1e-4,-0.0023 4e-4,-8e-4 9e-4,6e-4 0.0013,0.0022 c 0,7e-4 0,0.0014 1e-4,0.0021 C 9e-4,0.0029 4e-4,0.0014 0,0 Z"/>
    </g>
    <g transform="translate(61.0413,419.8296)" id="g334">
      <path id="path336" style="fill:#000000;fill-opacity:1;fill-rule:nonzero;stroke:none" d="m 0,0 c 0,-8e-4 -1e-4,-0.0015 -1e-4,-0.0023 2e-4,6e-4 4e-4,0.0012 6e-4,0.0017 C 6e-4,5e-4 8e-4,0.0015 9e-4,0.0026 5e-4,0.0017 3e-4,9e-4 0,0 Z"/>
    </g>
    <g transform="translate(61.2025,420.9711)" id="g338">
      <path id="path340" style="fill:#000000;fill-opacity:1;fill-rule:nonzero;stroke:none" d="m 0,0 c -0.051,-0.1972 -0.0914,-0.3998 -0.1247,-0.6025 -0.0195,-0.1641 -0.0312,-0.3281 -0.0351,-0.4961 0,-0.0091 0,-0.0182 0,-0.0273 0,-0.004 0,-0.0079 0,-0.0118 0,0.0131 0,0.0261 0,0.0391 0,-0.0078 0,-0.0195 0,-0.0313 0,0.0547 0,0.1094 0,0.1602 0,-0.0312 0,-0.0586 0,-0.0898 0,-0.0039 0,-0.0118 0,-0.0196 0,-0.0226 -0.0016,-0.0453 -0.0028,-0.068 4e-4,0.002 9e-4,0.0038 0.0014,0.0056 5e-4,0.0117 8e-4,0.0235 0.0014,0.0351 0,-0.0078 0,-0.0117 0,-0.0195 0,-0.0038 0,-0.0084 -5e-4,-0.013 2e-4,4e-4 3e-4,8e-4 5e-4,0.0012 0,-0.0012 -4e-4,-0.0027 -9e-4,-0.0044 -2e-4,-0.0013 -4e-4,-0.0026 -6e-4,-0.0039 -0.0023,-0.0659 -0.0024,-0.1336 -0.0024,-0.1987 0,-0.0013 0,-0.0026 0,-0.0039 0,-0.0039 0,-0.0039 0,-0.0078 0,0.0034 0,0.0075 0,0.0117 0,-0.0091 0,-0.0182 0,-0.0273 0,0.0078 0,0.0156 0,0.0234 0,0.0013 0,0.0026 0,0.0039 0,0.0267 0,0.0524 0,0.0781 0,-0.0267 -10e-5,-0.0535 -0.0018,-0.0785 -5e-4,-0.0168 -0.0012,-0.0336 -0.0021,-0.0504 0,0.0078 0,0.0156 0,0.0274 0,-0.0143 0,-0.0287 0,-0.043 0,0.0352 0.0039,0.0703 0.0039,0.1094 0,-0.0078 0,-0.0157 0,-0.0235 0,0 0,-0.0039 0,-0.0039 0,-0.0117 0,-0.0195 0,-0.0312 0,0.0039 0,0.0039 0,0.0039 0,-0.0078 0,-0.0156 0,-0.0235 0,-0.0039 0,-0.0039 0,-0.0078 0,0 0,0.0039 0,0.0039 -0.0039,-0.0156 -0.0039,-0.0312 -0.0039,-0.0507 0,-0.0037 0,-0.0074 0,-0.0118 0,0.004 0,0.0079 0,0.0118 0,-0.0039 0,-0.0118 0,-0.0157 0,-0.0039 0,-0.0039 0,-0.0078 0,-0.0351 0,-0.0742 0,-0.1094 0,0.0508 0,0.1055 0,0.1602 0,-0.0625 0,-0.125 0,-0.1875 0,0.0547 0,0.1094 0,0.1602 0,-0.0664 0,-0.1368 0,-0.2071 0,0.0547 0,0.1094 0,0.1602 0,-0.1211 0,-0.2383 0,-0.3555 0,0.0078 0,0.0195 0,0.0274 0,-0.0196 0,-0.0391 -0.0039,-0.0586 0,-0.0235 0,-0.0508 0,-0.0782 0,-0.0062 0,-0.0127 0,-0.0191 0.2285,-0.2094 0.5368,-0.3363 0.8671,-0.3363 0.6797,0 1.2383,0.6015 1.2266,1.2734 C 1.9105,-0.3408 1.3324,0.1983 0.6488,0.1983 0.4123,0.1983 0.1889,0.125 0,0 Z"/>
    </g>
    <g transform="translate(61.0304,418.9183)" id="g342">
      <path id="path344" style="fill:#000000;fill-opacity:1;fill-rule:nonzero;stroke:none" d="m 0,0 c 2e-4,-2e-4 4e-4,-3e-4 5e-4,-5e-4 0,0.05 0,0.0997 0,0.1461 C 5e-4,0.097 4e-4,0.0485 0,0 Z"/>
    </g>
    <g transform="translate(61.037,419.626)" id="g346">
      <path id="path348" style="fill:#000000;fill-opacity:1;fill-rule:nonzero;stroke:none" d="m 0,0 c 0.0017,0.025 0.0018,0.0518 0.0018,0.0785 0,0.027 0,0.054 0,0.0821 C 0.0018,0.107 0.0017,0.0535 0,0 Z"/>
    </g>
    <g transform="translate(61.0387,419.8178)" id="g350">
      <path id="path352" style="fill:#000000;fill-opacity:1;fill-rule:nonzero;stroke:none" d="m 0,0 c 2e-4,4e-4 3e-4,9e-4 5e-4,0.0013 0,0.001 2e-4,0.0021 4e-4,0.0031 C 4e-4,0.0027 0,0.0012 0,0 Z"/>
    </g>
    <g transform="translate(61.0399,419.8229)" id="g354">
      <path id="path356" style="fill:#000000;fill-opacity:1;fill-rule:nonzero;stroke:none" d="M 0,0 C 0,-8e-4 -1e-4,-0.0015 -1e-4,-0.0023 4e-4,-8e-4 9e-4,6e-4 0.0013,0.0022 c 0,7e-4 0,0.0014 1e-4,0.0021 C 9e-4,0.0029 4e-4,0.0014 0,0 Z"/>
    </g>
    <g transform="translate(61.0413,419.8296)" id="g358">
      <path id="path360" style="fill:#000000;fill-opacity:1;fill-rule:nonzero;stroke:none" d="m 0,0 c 0,-8e-4 -1e-4,-0.0015 -1e-4,-0.0023 2e-4,6e-4 4e-4,0.0012 6e-4,0.0017 C 6e-4,5e-4 8e-4,0.0015 9e-4,0.0026 5e-4,0.0017 3e-4,9e-4 0,0 Z"/>
    </g>
    <g transform="translate(61.1692,420.8353)" id="g362">
      <path id="path364" style="fill:#000000;fill-opacity:1;fill-rule:nonzero;stroke:none" d="m 0,0 c -0.0357,-0.1539 -0.0657,-0.3103 -0.0914,-0.4667 -0.0195,-0.1641 -0.0313,-0.3281 -0.0352,-0.4961 0,-0.0091 0,-0.0182 0,-0.0273 0,-0.0039 0,-0.0079 0,-0.0118 0,0.0131 0,0.0261 0,0.0391 0,-0.0078 0,-0.0195 0,-0.0312 0,0.0546 0,0.1093 0,0.1601 0,-0.0312 0,-0.0586 0,-0.0898 0,-0.0039 0,-0.0118 0,-0.0196 0,-0.0226 -0.0015,-0.0453 -0.0027,-0.068 3e-4,0.002 8e-4,0.0038 0.0014,0.0056 4e-4,0.0117 8e-4,0.0235 0.0013,0.0351 0,-0.0078 0,-0.0117 0,-0.0195 0,-0.0038 0,-0.0084 -4e-4,-0.013 2e-4,4e-4 2e-4,8e-4 4e-4,0.0012 0,-0.0012 -3e-4,-0.0027 -8e-4,-0.0044 -2e-4,-0.0013 -4e-4,-0.0026 -7e-4,-0.0039 -0.0022,-0.0659 -0.0024,-0.1336 -0.0024,-0.1987 0,-0.0013 0,-0.0026 0,-0.0039 0,-0.0039 0,-0.0039 0,-0.0078 0,0.0034 0,0.0075 0,0.0117 0,-0.0091 0,-0.0182 0,-0.0273 0,0.0078 0,0.0156 0,0.0234 0,0.0013 0,0.0026 0,0.0039 0,0.0267 0,0.0524 0,0.0781 0,-0.0267 0,-0.0535 -0.0017,-0.0785 -6e-4,-0.0168 -0.0012,-0.0336 -0.0022,-0.0504 0,0.0078 0,0.0157 0,0.0274 0,-0.0143 0,-0.0287 0,-0.043 0,0.0352 0.0039,0.0703 0.0039,0.1094 0,-0.0078 0,-0.0156 0,-0.0235 0,0 0,-0.0039 0,-0.0039 0,-0.0117 0,-0.0195 0,-0.0312 0,0.0039 0,0.0039 0,0.0039 0,-0.0078 0,-0.0156 0,-0.0234 0,-0.004 0,-0.004 0,-0.0079 0,0 0,0.0039 0,0.0039 -0.0039,-0.0156 -0.0039,-0.0312 -0.0039,-0.0507 0,-0.0037 0,-0.0074 0,-0.0118 0,0.004 0,0.0079 0,0.0118 0,-0.0039 0,-0.0118 0,-0.0157 0,-0.0039 0,-0.0039 0,-0.0078 0,-0.0351 0,-0.0742 0,-0.1093 0,0.0507 0,0.1054 0,0.1601 0,-0.0625 0,-0.125 0,-0.1875 0,0.0547 0,0.1094 0,0.1602 0,-0.0664 0,-0.1368 0,-0.2071 0,0.0547 0,0.1094 0,0.1602 0,-0.1211 0,-0.2383 0,-0.3555 0,0.0078 0,0.0196 0,0.0274 0,-0.0196 0,-0.0391 -0.0039,-0.0586 0,-0.0235 0,-0.0508 0,-0.0782 0,-0.0344 0,-0.0718 0,-0.107 0.2313,-0.2173 0.5452,-0.35 0.8828,-0.35 0.6797,0 1.2383,0.6016 1.2266,1.2735 C 1.9594,-0.3065 1.3813,0.2325 0.6977,0.2325 0.4395,0.2325 0.1984,0.1454 0,0 Z"/>
    </g>
    <g transform="translate(70.2951,422.2782)" id="g366">
      <path id="path368" style="fill:#000000;fill-opacity:1;fill-rule:nonzero;stroke:none" d="M 0,0 C -0.0352,0 -0.0664,0.0039 -0.1016,0.0039 -0.0664,0 -0.0352,0 0,0 Z"/>
    </g>
    <g transform="translate(62.8181,422.3842)" id="g370">
      <path id="path372" style="fill:#000000;fill-opacity:1;fill-rule:nonzero;stroke:none" d="m 0,0 c -0.1145,0 -0.2293,0 -0.3441,-1e-4 -0.0551,-0.0237 -0.1098,-0.0483 -0.1637,-0.0741 -0.168,-0.0899 -0.3281,-0.1875 -0.4805,-0.293 -0.0508,-0.0351 -0.1015,-0.0742 -0.1484,-0.1133 -0.043,-0.0429 -0.0821,-0.082 -0.125,-0.125 -0.0352,-0.0468 -0.0703,-0.0937 -0.1016,-0.1406 -0.0156,-0.0234 -0.0273,-0.0508 -0.039,-0.0742 -0.0625,-0.1367 -0.1172,-0.2774 -0.168,-0.4219 -0.007,-0.0247 -0.0137,-0.0495 -0.0204,-0.0744 0.1217,-0.23 0.3299,-0.4312 0.6454,-0.5701 0.9141,-0.4063 1.8867,-0.2422 2.8672,-0.0821 0.7265,0.1211 1.4609,0.2383 2.1758,0.129 0.4492,0.0195 1.0507,-0.1172 1.6835,-0.2539 1.4024,-0.3047 2.9454,-0.6094 3.2461,0.8398 0.0586,0.4961 -0.1796,0.9297 -0.5625,1.1836 C 8.4023,-0.0781 8.3398,-0.082 8.2734,-0.0859 8.2617,-0.0898 8.25,-0.0937 8.2383,-0.0977 8.0352,-0.168 7.7969,-0.1641 7.582,-0.168 7.3281,-0.1758 7.0781,-0.1758 6.8242,-0.1719 6.082,-0.1602 5.3398,-0.125 4.5977,-0.1016 c 0.0546,0 0.1093,-0.0039 0.1601,-0.0039 C 3.2266,-0.0547 1.6953,0 0.1602,0 0.1094,0 0.0547,0 0,0 Z"/>
    </g>
    <g transform="translate(129.7812,403.1016)" id="g374">
      <path id="path376" style="fill:#000000;fill-opacity:1;fill-rule:nonzero;stroke:none" d="M 0,0 C 0.3672,0.0078 0.7305,0 1.0938,-0.0195 0.8164,-0.0078 0.543,0 0.2656,0 0.1797,0 0.0898,0 0,0 Z m 53.7578,9.5078 c 0.0039,0.1133 0.0039,0.2266 0.0039,0.3438 0,0.164 0,0.3203 -0.1172,0.457 -0.1211,0.1445 -0.2929,0.2226 -0.4726,0.2656 -0.1055,0.0274 -0.2149,0.0547 -0.3242,0.0742 -0.1446,0.0196 -0.2969,0.0547 -0.4454,0.0664 -0.082,0.0079 -0.1679,0 -0.2421,-0.0234 -0.2227,-0.0078 -0.4454,0.0078 -0.6641,0.0078 -0.3672,0.0039 -0.7344,0.0078 -1.0977,0.0117 -1.5312,0.0157 -3.0664,0.0274 -4.5976,0.043 -3.8047,0.0352 -7.6094,0.0703 -11.4141,0.1094 -3.9179,0.0351 -7.8359,0.0703 -11.7539,0.1094 -3.9726,0.039 -7.9453,0.0742 -11.9141,0.1132 -3.5351,0.0352 -7.0703,0.0664 -10.6054,0.0977 -0.8086,0.0117 -1.6172,0.0195 -2.4258,0.0273 -0.0312,0.0078 -0.0664,0.0118 -0.1016,0.0118 -0.0039,0 -0.0039,0 -0.0078,0 -0.2265,0 -0.4531,-0.004 -0.6797,-0.004 -0.2265,0 -0.4531,0.004 -0.6796,0.004 -0.0352,0 -0.0743,-0.004 -0.1094,-0.0118 -0.8086,-0.0078 -1.6172,-0.0156 -2.4258,-0.0273 -3.5352,-0.0313 -7.0703,-0.0625 -10.6055,-0.0977 -3.9687,-0.039 -7.9414,-0.0742 -11.914,-0.1132 -3.918,-0.0391 -7.836,-0.0743 -11.7539,-0.1094 -3.8047,-0.0391 -7.6094,-0.0742 -11.4141,-0.1094 -1.5313,-0.0156 -3.0664,-0.0273 -4.5977,-0.043 -0.3632,-0.0039 -0.7304,-0.0078 -1.0976,-0.0117 -0.2188,0 -0.4414,-0.0156 -0.6602,-0.0078 -0.0781,0.0234 -0.1601,0.0313 -0.2461,0.0234 -0.1484,-0.0117 -0.3008,-0.0468 -0.4453,-0.0664 -0.1094,-0.0195 -0.2187,-0.0468 -0.3242,-0.0742 -0.1797,-0.043 -0.3516,-0.1211 -0.4727,-0.2656 -0.1171,-0.1367 -0.1171,-0.293 -0.1171,-0.457 0,-0.1172 0.0039,-0.2305 0.0039,-0.3438 0.0039,-0.5391 0.0078,-1.0781 0.0117,-1.6172 0.0156,-1.4179 0.0273,-2.8398 0.039,-4.2617 0.0352,-3.5625 0.0664,-7.1211 0.0977,-10.6836 0.0312,-3.7773 0.0664,-7.5547 0.1016,-11.332 0.0312,-3.6914 0.039,-7.3789 0.0586,-11.0703 0.0195,-3.7344 0.0429,-7.4688 0.0585,-11.1993 0.004,-0.7656 0.0079,-1.5273 0.0118,-2.289 0,-0.0703 0.0156,-0.1406 0.039,-0.2031 -0.0351,-0.0743 -0.0508,-0.1563 -0.0468,-0.2383 0.0156,-0.2852 0.2539,-0.4727 0.5234,-0.4727 0.1094,0 0.2148,0 0.3242,0 0.0039,0 0.0039,0 0.0039,0 3.6602,0 7.3203,0.0117 10.9805,0.0196 4.0703,0.0039 8.1406,0.0117 12.207,0.0195 3.9844,0.0078 7.9688,0.0117 11.9531,0.0195 3.8633,0.0039 7.7266,0.0117 11.586,0.0195 2.9726,0.004 5.9414,0.0118 8.9101,0.0157 2.9688,-0.0039 5.9375,-0.0117 8.9102,-0.0157 3.8594,-0.0078 7.7226,-0.0156 11.5859,-0.0195 3.9844,-0.0078 7.9688,-0.0117 11.9532,-0.0195 4.0664,-0.0078 8.1367,-0.0156 12.207,-0.0195 3.6601,-0.0079 7.3203,-0.0196 10.9805,-0.0196 0.0039,0 0.0039,0 0.0039,0 0.1093,0 0.2148,0 0.3242,0 0.2695,0 0.5078,0.1875 0.5234,0.4727 0.0039,0.082 -0.0117,0.164 -0.0469,0.2383 0.0235,0.0625 0.0391,0.1328 0.0391,0.2031 0.0039,0.7617 0.0078,1.5234 0.0117,2.289 0.0157,3.7305 0.0391,7.4649 0.0586,11.1993 0.0196,3.6914 0.0274,7.3789 0.0586,11.0703 0.0352,3.7773 0.0703,7.5547 0.1016,11.332 0.0312,3.5625 0.0625,7.1211 0.0976,10.6836 0.0118,1.4219 0.0235,2.8438 0.0391,4.2617 0.0039,0.5391 0.0078,1.0781 0.0117,1.6172 z"/>
    </g>
  </g>
</svg>